<svg width="122" height="34" viewBox="0 0 122 34" fill="none" xmlns="http://www.w3.org/2000/svg">
<path fill-rule="evenodd" clip-rule="evenodd" d="M80.8052 15.8519V31.3942H84.1663H87.5275L87.491 15.8903L87.4547 0.386481L84.1299 0.348098L80.8052 0.30957V15.8519ZM92.1022 15.8519V31.3942H95.4633H98.8245L98.788 15.8903L98.7517 0.386481L95.4269 0.348098L92.1022 0.30957V15.8519ZM11.3643 6.10908C7.28647 6.74356 4.12231 8.82229 2.00605 12.257C-1.73554 18.3301 0.00434 26.1584 5.96186 30.0555C8.15105 31.4875 10.1257 32.1054 12.8645 32.2154C15.062 32.3036 16.1978 32.1495 18.0694 31.5094L19.3259 31.0796L19.9284 31.7738C20.2596 32.1557 20.7612 32.7192 21.0429 33.0263L21.5552 33.5845L23.7163 31.8091C24.9051 30.8324 25.8812 29.995 25.8853 29.9478C25.8896 29.9006 25.4436 29.3528 24.8942 28.7304C24.3448 28.1081 23.8943 27.5506 23.8932 27.4916C23.8921 27.4328 24.109 27.0783 24.3751 26.7039C26.9919 23.0238 27.4698 17.5828 25.5433 13.4066C23.7027 9.4168 20.1407 6.80357 15.5972 6.10965C13.9903 5.86431 12.9387 5.86417 11.3643 6.10908ZM63.0881 6.35199C56.9375 6.98947 52.6095 11.3621 51.9203 17.6346C51.2362 23.8614 54.4888 29.3625 60.0579 31.3982C65.1101 33.2449 70.7429 32.0673 74.2449 28.4323C75.2289 27.411 76.9004 25.0008 76.7378 24.8379C76.6865 24.7866 75.3124 24.3783 73.6842 23.9304L70.7237 23.1162L70.438 23.4956C69.0586 25.3275 67.2587 26.2347 65.0037 26.2347C61.8807 26.2347 59.054 24.1968 58.6531 21.6559L58.54 20.9389H68.0098H77.4799L77.5528 20.187C77.7378 18.2801 77.2047 15.3498 76.3261 13.4455C74.9884 10.5454 72.5205 8.21746 69.6333 7.13197C67.8259 6.45253 65.171 6.13615 63.0881 6.35199ZM39.2866 6.47201C34.5687 7.3216 30.9156 10.4755 29.4974 14.9236C28.982 16.54 28.8429 17.518 28.8457 19.5067C28.849 21.9007 29.1828 23.3849 30.1823 25.4504C31.4026 27.9719 33.1274 29.702 35.6887 30.9737C37.8383 32.0408 39.0731 32.3119 41.7662 32.3078C43.567 32.305 44.2056 32.2463 45.1715 31.9951C46.7881 31.5746 48.4657 30.7555 49.8926 29.6901C50.9511 28.8996 51.0623 28.7738 50.8939 28.5578C50.4018 27.9272 47.3205 24.3763 47.2653 24.3763C47.2308 24.3763 46.8965 24.6117 46.5222 24.8996C44.7925 26.2296 42.5965 26.6942 40.5557 26.1618C39.3536 25.8483 38.4482 25.3095 37.5657 24.383C36.3067 23.061 35.8 21.816 35.668 19.7215C35.5182 17.3456 36.2351 15.44 37.8464 13.9305C39.0215 12.8295 39.9571 12.4553 41.7309 12.3765C43.5069 12.2979 44.6833 12.648 46.0029 13.6483L46.9577 14.3722L47.2808 14.0392C48.0498 13.2466 50.7741 9.9695 50.7723 9.83917C50.7693 9.60872 48.6943 8.18853 47.5064 7.60404C45.6551 6.69314 44.5631 6.44766 42.1237 6.39424C40.9439 6.36846 39.6672 6.4034 39.2866 6.47201ZM110.302 6.47788C108.011 6.71921 105.976 7.61492 104.615 8.98169C103.161 10.441 102.541 11.9865 102.541 14.1532C102.541 16.2121 103.197 17.7452 104.659 19.1004C105.781 20.1409 107.394 20.9577 110.18 21.8965C113.599 23.0486 114.458 23.6776 114.458 25.0292C114.458 26.3135 113.374 27.2407 111.873 27.2407C110.244 27.2407 109.202 26.3721 108.901 24.7634L108.801 24.233H105.6H102.398V24.7758C102.398 25.0743 102.496 25.7028 102.616 26.1723C103.351 29.0555 105.421 31.0602 108.547 31.9159C109.867 32.2771 113.669 32.2857 114.982 31.9305C118.917 30.8664 121.278 28.0227 121.272 24.3556C121.268 21.4209 119.886 19.3695 116.951 17.9397C116.143 17.5463 114.357 16.8608 112.98 16.4165C111.604 15.9721 110.262 15.4773 109.998 15.3169C108.561 14.4428 108.666 12.457 110.188 11.7104C110.567 11.5246 111.039 11.4361 111.622 11.4415C113.303 11.4574 114.553 12.5189 114.553 13.9303V14.3507H117.699H120.845V13.7363C120.845 12.8731 120.488 11.5692 119.967 10.5263C118.837 8.26787 116.499 6.84295 113.325 6.47874C111.931 6.31876 111.814 6.31876 110.302 6.47788ZM11.6839 11.8566C9.19524 12.46 7.04409 14.6884 6.43762 17.2912C6.18952 18.356 6.22269 20.1645 6.50841 21.1537C7.26302 23.7666 9.1296 25.6548 11.6119 26.3165C12.4443 26.5383 14.5522 26.5936 14.8546 26.4014C14.9919 26.3143 14.6783 25.8549 13.6749 24.6723C12.9232 23.7865 12.3082 23.0143 12.3082 22.9563C12.3082 22.8983 13.1931 22.1511 14.2745 21.2958C15.356 20.4406 16.3461 19.6525 16.4748 19.5446C16.6826 19.3703 16.8676 19.5335 18.1193 20.9938C18.8951 21.8986 19.5753 22.6433 19.6312 22.6484C19.8542 22.6686 20.3494 20.6507 20.4197 19.4351C20.5527 17.1375 19.9621 15.4834 18.4182 13.8303C16.7146 12.0064 14.1575 11.2569 11.6839 11.8566ZM62.7017 12.2635C61.6195 12.5097 60.5175 13.0598 59.7928 13.7153C59.2459 14.2102 58.5843 15.3723 58.6682 15.6902C58.7004 15.812 60.3091 15.836 64.8831 15.7829L71.0547 15.7113L70.8643 15.1566C70.4626 13.9867 69.171 12.9018 67.5777 12.396C66.5937 12.0836 63.8234 12.0084 62.7017 12.2635Z" fill="#16232A" fill-opacity="0.6"/>
</svg>
