<svg width="30" height="31" viewBox="0 0 30 31" fill="none" xmlns="http://www.w3.org/2000/svg">
<rect y="0.302979" width="30" height="30.2273" rx="5" fill="#E4EEF0"/>
<path d="M11.1875 13.8863V17.7196M24.125 16.7613V14.8446M9.94167 21.553H20.1C21.1734 21.553 21.7102 21.553 22.1202 21.3441C22.4808 21.1603 22.774 20.8671 22.9577 20.5065C23.1667 20.0965 23.1667 19.5597 23.1667 18.4863V13.1196C23.1667 12.0462 23.1667 11.5095 22.9577 11.0995C22.774 10.7388 22.4808 10.4456 22.1202 10.2619C21.7102 10.053 21.1734 10.053 20.1 10.053H9.94167C8.86824 10.053 8.33151 10.053 7.92152 10.2619C7.56087 10.4456 7.26766 10.7388 7.08391 11.0995C6.875 11.5095 6.875 12.0462 6.875 13.1196V18.4863C6.875 19.5597 6.875 20.0965 7.08391 20.5065C7.26766 20.8671 7.56087 21.1603 7.92152 21.3441C8.33151 21.553 8.86823 21.553 9.94167 21.553Z" stroke="#16232A" stroke-width="1.5" stroke-linecap="round" stroke-linejoin="round"/>
</svg>
