<svg width="20" height="20" viewBox="0 0 20 20" fill="none" xmlns="http://www.w3.org/2000/svg">
<path fill-rule="evenodd" clip-rule="evenodd" d="M5.09113 5.48959C5.79513 4.74799 6.04393 4.53999 6.34393 4.44319C6.55155 4.38879 6.76929 4.38576 6.97833 4.43439C7.25353 4.51439 7.32633 4.57519 8.22871 5.47439C9.02151 6.26399 9.10071 6.34959 9.17671 6.50399C9.32207 6.77501 9.34479 7.09518 9.23911 7.38399C9.15911 7.60399 9.04551 7.74959 8.56471 8.23199L8.25111 8.54643C8.16879 8.63011 8.14943 8.75715 8.20311 8.86163C8.89991 10.0503 9.88839 11.0415 11.0751 11.7416C11.2118 11.8147 11.38 11.7911 11.4911 11.6832L11.7927 11.3864C11.9791 11.1953 12.1765 11.0153 12.3839 10.8472C12.7097 10.6472 13.1155 10.6294 13.4575 10.8C13.6247 10.88 13.6799 10.9296 14.4975 11.7456C15.3407 12.5864 15.3647 12.6128 15.4575 12.8056C15.6321 13.1247 15.6303 13.5113 15.4527 13.8288C15.3623 14.008 15.3071 14.0728 14.8327 14.5576C14.5463 14.8504 14.2767 15.1176 14.2335 15.1568C13.8422 15.4808 13.3401 15.6398 12.8335 15.6C11.9068 15.5155 11.0097 15.2291 10.2055 14.7608C8.42407 13.8169 6.90745 12.4417 5.79433 10.7608C5.55189 10.409 5.33634 10.0394 5.14953 9.65523C4.6484 8.79627 4.38961 7.81754 4.40073 6.82319C4.43899 6.30299 4.68845 5.82112 5.09113 5.48959Z" stroke="#16232A" stroke-linecap="round" stroke-linejoin="round"/>
</svg>
