<svg width="20" height="20" viewBox="0 0 20 20" fill="none" xmlns="http://www.w3.org/2000/svg">
<path fill-rule="evenodd" clip-rule="evenodd" d="M5.09065 5.48959C5.79465 4.74799 6.04345 4.53999 6.34345 4.44319C6.55106 4.38879 6.7688 4.38576 6.97785 4.43439C7.25305 4.51439 7.32585 4.57519 8.22822 5.47439C9.02102 6.26399 9.10022 6.34959 9.17622 6.50399C9.32158 6.77501 9.3443 7.09518 9.23862 7.38399C9.15862 7.60399 9.04502 7.74959 8.56422 8.23199L8.25062 8.54643C8.1683 8.63011 8.14894 8.75715 8.20262 8.86163C8.89942 10.0503 9.8879 11.0415 11.0746 11.7416C11.2113 11.8147 11.3795 11.7911 11.4906 11.6832L11.7922 11.3864C11.9786 11.1953 12.1761 11.0153 12.3834 10.8472C12.7092 10.6472 13.115 10.6294 13.457 10.8C13.6242 10.88 13.6794 10.9296 14.497 11.7456C15.3402 12.5864 15.3642 12.6128 15.457 12.8056C15.6317 13.1247 15.6298 13.5113 15.4522 13.8288C15.3618 14.008 15.3066 14.0728 14.8322 14.5576C14.5458 14.8504 14.2762 15.1176 14.233 15.1568C13.8417 15.4808 13.3396 15.6398 12.833 15.6C11.9063 15.5155 11.0093 15.2291 10.205 14.7608C8.42358 13.8169 6.90697 12.4417 5.79385 10.7608C5.5514 10.409 5.33585 10.0394 5.14905 9.65523C4.64791 8.79627 4.38913 7.81754 4.40025 6.82319C4.4385 6.30299 4.68797 5.82112 5.09065 5.48959Z" stroke="#16232A" stroke-linecap="round" stroke-linejoin="round"/>
</svg>
