<svg width="33" height="33" viewBox="0 0 33 33" fill="none" xmlns="http://www.w3.org/2000/svg">
<path d="M16.5 30.25C24.0938 30.25 30.25 24.0938 30.25 16.5C30.25 8.90608 24.0938 2.75 16.5 2.75C8.90608 2.75 2.75 8.90608 2.75 16.5C2.75 18.6996 3.26648 20.7784 4.18476 22.6222C4.42879 23.1121 4.51001 23.6721 4.36854 24.2008L3.54958 27.2617C3.19406 28.5904 4.40964 29.8059 5.73836 29.4504L8.79916 28.6315C9.3279 28.49 9.88791 28.5713 10.3779 28.8152C12.2215 29.7335 14.3004 30.25 16.5 30.25Z" stroke="#E4EEF0" stroke-width="3"/>
<path opacity="0.5" d="M11 16.5H11.0124M16.4876 16.5H16.5M21.9876 16.5H22" stroke="#E4EEF0" stroke-width="3" stroke-linecap="round" stroke-linejoin="round"/>
</svg>
