<svg width="23" height="23" viewBox="0 0 23 23" fill="none" xmlns="http://www.w3.org/2000/svg">
<rect width="23" height="23" rx="11.5" fill="#F47121"/>
<path d="M6.41303 15.6121C6.14357 15.8816 6.14357 16.3184 6.41303 16.5879C6.68249 16.8574 7.11938 16.8574 7.38884 16.5879L6.41303 15.6121ZM11.9888 11.9879C12.2583 11.7184 12.2583 11.2816 11.9888 11.0121C11.7193 10.7427 11.2825 10.7427 11.0131 11.0121L11.9888 11.9879ZM11.0131 11.0121C10.7436 11.2816 10.7436 11.7184 11.0131 11.9879C11.2825 12.2574 11.7193 12.2574 11.9888 11.9879L11.0131 11.0121ZM16.5888 7.38792C16.8583 7.11846 16.8583 6.68157 16.5888 6.41212C16.3193 6.14266 15.8825 6.14266 15.6131 6.41212L16.5888 7.38792ZM11.9888 11.0121C11.7193 10.7427 11.2825 10.7427 11.0131 11.0121C10.7436 11.2816 10.7436 11.7184 11.0131 11.9879L11.9888 11.0121ZM15.6131 16.5879C15.8825 16.8574 16.3193 16.8574 16.5888 16.5879C16.8583 16.3184 16.8583 15.8816 16.5888 15.6121L15.6131 16.5879ZM11.0131 11.9879C11.2825 12.2574 11.7193 12.2574 11.9888 11.9879C12.2583 11.7184 12.2583 11.2816 11.9888 11.0121L11.0131 11.9879ZM7.38884 6.41212C7.11938 6.14266 6.68249 6.14266 6.41303 6.41212C6.14357 6.68157 6.14357 7.11846 6.41303 7.38792L7.38884 6.41212ZM7.38884 16.5879L11.9888 11.9879L11.0131 11.0121L6.41303 15.6121L7.38884 16.5879ZM11.9888 11.9879L16.5888 7.38792L15.6131 6.41212L11.0131 11.0121L11.9888 11.9879ZM11.0131 11.9879L15.6131 16.5879L16.5888 15.6121L11.9888 11.0121L11.0131 11.9879ZM11.9888 11.0121L7.38884 6.41212L6.41303 7.38792L11.0131 11.9879L11.9888 11.0121Z" fill="white"/>
</svg>
