<svg width="18" height="18" viewBox="0 0 18 18" fill="none" xmlns="http://www.w3.org/2000/svg">
<g clip-path="url(#clip0_673_324)">
<path fill-rule="evenodd" clip-rule="evenodd" d="M9 16.875C4.65075 16.875 1.125 13.3481 1.125 9C1.125 4.65188 4.65075 1.125 9 1.125C13.3492 1.125 16.875 4.65188 16.875 9C16.875 13.3481 13.3492 16.875 9 16.875ZM9 0C4.02919 0 0 4.0275 0 9C0 13.9725 4.02919 18 9 18C13.9708 18 18 13.9725 18 9C18 4.0275 13.9708 0 9 0ZM12.2158 5.78252C11.9942 5.56314 11.6359 5.56314 11.4142 5.78252L8.99664 8.20123L6.61387 5.81623C6.39394 5.59686 6.03731 5.59686 5.8185 5.81623C5.59856 6.03561 5.59856 6.39563 5.8185 6.61501L8.20126 8.99437L5.80164 11.3963C5.58058 11.6156 5.58058 11.9756 5.80164 12.2006C6.02326 12.42 6.38212 12.42 6.60374 12.2006L9.00336 9.79877L11.3861 12.1838C11.6061 12.4031 11.9627 12.4031 12.1821 12.1838C12.402 11.9644 12.402 11.6044 12.1821 11.385L9.79874 9.00563L12.2158 6.58685C12.4369 6.36185 12.4369 6.00752 12.2158 5.78252Z" fill="white"/>
</g>
<defs>
<clipPath id="clip0_673_324">
<rect width="18" height="18" fill="white"/>
</clipPath>
</defs>
</svg>
