<svg width="20" height="20" viewBox="0 0 20 20" fill="none" xmlns="http://www.w3.org/2000/svg">
<path d="M5.57612 13.5758C5.34181 13.8101 5.34181 14.1899 5.57612 14.4243C5.81044 14.6586 6.19034 14.6586 6.42465 14.4243L5.57612 13.5758ZM10.4246 10.4243C10.6589 10.1899 10.6589 9.8101 10.4246 9.57578C10.1903 9.34146 9.81047 9.34146 9.57615 9.57578L10.4246 10.4243ZM9.57615 9.57578C9.34183 9.8101 9.34183 10.1899 9.57615 10.4243C9.81047 10.6586 10.1903 10.6586 10.4246 10.4243L9.57615 9.57578ZM14.4246 6.42429C14.6589 6.18997 14.6589 5.81007 14.4246 5.57576C14.1903 5.34145 13.8105 5.34145 13.5761 5.57576L14.4246 6.42429ZM10.4246 9.57578C10.1903 9.34146 9.81047 9.34146 9.57615 9.57578C9.34183 9.8101 9.34183 10.1899 9.57615 10.4243L10.4246 9.57578ZM13.5761 14.4243C13.8105 14.6586 14.1903 14.6586 14.4246 14.4243C14.6589 14.1899 14.6589 13.8101 14.4246 13.5758L13.5761 14.4243ZM9.57615 10.4243C9.81047 10.6586 10.1903 10.6586 10.4246 10.4243C10.6589 10.1899 10.6589 9.8101 10.4246 9.57578L9.57615 10.4243ZM6.42465 5.57576C6.19034 5.34145 5.81044 5.34145 5.57612 5.57576C5.34181 5.81007 5.34181 6.18997 5.57612 6.42429L6.42465 5.57576ZM6.42465 14.4243L10.4246 10.4243L9.57615 9.57578L5.57612 13.5758L6.42465 14.4243ZM10.4246 10.4243L14.4246 6.42429L13.5761 5.57576L9.57615 9.57578L10.4246 10.4243ZM9.57615 10.4243L13.5761 14.4243L14.4246 13.5758L10.4246 9.57578L9.57615 10.4243ZM10.4246 9.57578L6.42465 5.57576L5.57612 6.42429L9.57615 10.4243L10.4246 9.57578Z" fill="#FF0000"/>
</svg>
