<svg width="29" height="30" viewBox="0 0 29 30" fill="none" xmlns="http://www.w3.org/2000/svg">
<path d="M26.7344 7.29065C25.4828 7.29065 24.4688 8.3052 24.4688 9.55627C24.4688 9.8132 24.5209 10.0556 24.5992 10.2858L19.0766 15.0414C18.6891 14.7328 18.2057 14.5406 17.6719 14.5406C17.0561 14.5406 16.4992 14.7881 16.0914 15.1868L11.7654 13.0209C11.6811 11.8459 10.7119 10.9156 9.51562 10.9156C8.26458 10.9156 7.25 11.9302 7.25 13.1813C7.25 13.5238 7.33156 13.8451 7.4675 14.136L3.05678 19.2219C2.80937 19.1294 2.5452 19.0719 2.26562 19.0719C1.01455 19.0719 0 20.0864 0 21.3375C0 22.5886 1.01455 23.6031 2.26562 23.6031C3.5167 23.6031 4.53125 22.5886 4.53125 21.3375C4.53125 21.0362 4.46962 20.7494 4.36269 20.4866L8.845 15.3345C9.05842 15.4007 9.28045 15.4469 9.51562 15.4469C10.1749 15.4469 10.763 15.1605 11.1772 14.7106L15.4085 16.8321C15.4235 18.0709 16.4294 19.0719 17.6719 19.0719C18.9234 19.0719 19.9375 18.0574 19.9375 16.8063C19.9375 16.7659 19.928 16.7283 19.9257 16.6885L25.8191 11.6257C26.0995 11.7499 26.4076 11.8219 26.7344 11.8219C27.9859 11.8219 29 10.8078 29 9.55627C29 8.3052 27.9859 7.29065 26.7344 7.29065Z" fill="#E4EEF0"/>
</svg>
