<svg width="72" height="73" viewBox="0 0 72 73" fill="none" xmlns="http://www.w3.org/2000/svg">
<path d="M18 30.0527H20.25C22.3211 30.0527 24 31.7315 24 33.8027V44.3027C24 46.3739 22.3211 48.0527 20.25 48.0527H18C13.0295 48.0527 9 44.0234 9 39.0527C9 34.082 13.0295 30.0527 18 30.0527ZM18 30.0527V27.0527C18 17.1116 26.0589 9.05273 36 9.05273C45.9411 9.05273 54 17.1116 54 27.0527V30.0527M54 30.0527H51.75C49.6788 30.0527 48 31.7315 48 33.8027V44.3027C48 46.3739 49.6788 48.0527 51.75 48.0527H54M54 30.0527C58.9707 30.0527 63 34.082 63 39.0527C63 44.0234 58.9707 48.0527 54 48.0527M54 48.0527L52.1361 55.508C51.4683 58.1789 49.0686 60.0527 46.3152 60.0527H39" stroke="#FE4819" stroke-width="3.5" stroke-linecap="round" stroke-linejoin="round"/>
</svg>
