<svg width="69" height="70" viewBox="0 0 69 70" fill="none" xmlns="http://www.w3.org/2000/svg">
<path d="M54.625 9.4668H25.875C20.4538 9.4668 17.7433 9.4668 16.0591 11.1509C14.375 12.8351 14.375 15.5456 14.375 20.9668V31.0293V49.7168" stroke="#FE4819" stroke-width="4" stroke-linecap="round" stroke-linejoin="round"/>
<path d="M40.25 49.7168V55.4668C40.25 58.6425 42.8243 61.2168 46 61.2168C49.1757 61.2168 51.75 58.6425 51.75 55.4668V26.7168V13.7793C51.75 11.3976 53.6808 9.4668 56.0625 9.4668C58.4442 9.4668 60.375 11.3976 60.375 13.7793C60.375 16.161 58.4442 18.0918 56.0625 18.0918H53.1875" stroke="#FE4819" stroke-width="4" stroke-linecap="round" stroke-linejoin="round"/>
<path d="M46 61.2168H14.375C11.1994 61.2168 8.625 58.6425 8.625 55.4668C8.625 52.2911 11.1994 49.7168 14.375 49.7168H40.25" stroke="#FE4819" stroke-width="4" stroke-linecap="round" stroke-linejoin="round"/>
<path d="M25.875 20.9668H40.25" stroke="#FE4819" stroke-width="4" stroke-linecap="round" stroke-linejoin="round"/>
<path d="M25.875 32.4668H40.25" stroke="#FE4819" stroke-width="4" stroke-linecap="round" stroke-linejoin="round"/>
</svg>
