<svg width="24" height="23" viewBox="0 0 24 23" fill="none" xmlns="http://www.w3.org/2000/svg">
<path d="M7.16055 8.67085C7.54456 8.64631 8.01797 8.64631 8.6268 8.64631H13.8401C14.4489 8.64631 14.9224 8.64631 15.3064 8.67085M7.16055 8.67085C6.68131 8.70143 6.34131 8.77026 6.05111 8.92487C5.59128 9.16986 5.21744 9.56077 4.98315 10.0416C4.7168 10.5884 4.7168 11.3039 4.7168 12.7352V13.9278C4.7168 15.3591 4.7168 16.0746 4.98315 16.6213C5.21744 17.1022 5.59128 17.4931 6.05111 17.7381C6.57385 18.0167 7.25817 18.0167 8.6268 18.0167H13.8401C15.2088 18.0167 15.893 18.0167 16.4158 17.7381C16.8757 17.4931 17.2495 17.1022 17.4838 16.6213C17.7501 16.0746 17.7501 15.3591 17.7501 13.9278V12.7352C17.7501 11.3039 17.7501 10.5884 17.4838 10.0416C17.2495 9.56077 16.8757 9.16986 16.4158 8.92487C16.1256 8.77026 15.7856 8.70143 15.3064 8.67085M7.16055 8.67085V6.94261C7.16055 4.59029 8.98406 2.68335 11.2335 2.68335C13.4829 2.68335 15.3064 4.59029 15.3064 6.94261V8.67085" stroke="#E4EEF0" stroke-width="2" stroke-linecap="round" stroke-linejoin="round"/>
</svg>
