<svg width="72" height="73" viewBox="0 0 72 73" fill="none" xmlns="http://www.w3.org/2000/svg">
<path d="M33 12.8419H21.6C18.2397 12.8419 16.5595 12.8419 15.2761 13.4958C14.1471 14.0711 13.2292 14.989 12.654 16.1179C12 17.4014 12 19.0816 12 22.4419V51.2419C12 54.6022 12 56.2825 12.654 57.5659C13.2292 58.6948 14.1471 59.6128 15.2761 60.1879C16.5595 60.8419 18.2397 60.8419 21.6 60.8419H50.4C53.7603 60.8419 55.4406 60.8419 56.724 60.1879C57.8529 59.6128 58.7709 58.6948 59.346 57.5659C60 56.2825 60 54.6022 60 51.2419V38.3419M46.5 17.3419L54.9852 25.8272M32.2881 31.5538L52.233 11.6089C54.576 9.26578 58.3752 9.26578 60.7182 11.6089C63.0615 13.9521 63.0615 17.7511 60.7182 20.0942L40.1322 40.6801C37.8474 42.9652 36.705 44.1076 35.4036 45.016C34.2486 45.8227 33.0027 46.4905 31.692 47.0065C30.2151 47.5879 28.6313 47.9074 25.4638 48.5467L24 48.8419L24.1424 47.8453C24.6461 44.3194 24.898 42.5563 25.4709 40.9102C25.9792 39.4495 26.6737 38.0608 27.5372 36.7777C28.5102 35.3317 29.7696 34.0723 32.2881 31.5538Z" stroke="#FE4819" stroke-width="4" stroke-linecap="round" stroke-linejoin="round"/>
</svg>
