<svg width="30" height="31" viewBox="0 0 30 31" fill="none" xmlns="http://www.w3.org/2000/svg">
<rect y="0.302979" width="30" height="30.2273" rx="5" fill="#E4EEF0"/>
<path d="M15.4167 13.2196L13.3333 16.1363H16.6667L14.5833 19.0529M7.5 17.4696V15.4113C7.5 14.4541 7.5 13.9755 7.62338 13.5347C7.73267 13.1443 7.91227 12.777 8.15337 12.451C8.42556 12.083 8.80337 11.7892 9.55898 11.2015L11.7256 9.51631C12.8967 8.60546 13.4823 8.15005 14.1288 7.97498C14.6993 7.82051 15.3007 7.82051 15.8712 7.97498C16.5177 8.15005 17.1032 8.60547 18.2743 9.51631L20.441 11.2015C21.1967 11.7892 21.5744 12.083 21.8466 12.451C22.0878 12.777 22.2673 13.1443 22.3766 13.5347C22.5 13.9755 22.5 14.4541 22.5 15.4113V17.4696C22.5 19.3364 22.5 20.2698 22.1367 20.9829C21.8171 21.6101 21.3072 22.12 20.68 22.4396C19.9669 22.8029 19.0335 22.8029 17.1667 22.8029H12.8333C10.9665 22.8029 10.0331 22.8029 9.32003 22.4396C8.69283 22.12 8.18289 21.6101 7.86331 20.9829C7.5 20.2698 7.5 19.3364 7.5 17.4696Z" stroke="#16232A" stroke-width="1.5" stroke-linecap="round" stroke-linejoin="round"/>
</svg>
