<svg width="16" height="16" viewBox="0 0 16 16" fill="none" xmlns="http://www.w3.org/2000/svg">
<path d="M4.66733 14.7499C4.66733 15.1642 5.00312 15.4999 5.41735 15.4999C5.83155 15.4999 6.16735 15.1642 6.16735 14.7499H4.66733ZM9.33535 14.7499C9.33535 15.1642 9.67115 15.4999 10.0853 15.4999C10.4995 15.4999 10.8353 15.1642 10.8353 14.7499H9.33535ZM5.41735 15.4999C5.83155 15.4999 6.16735 15.1642 6.16735 14.7499C6.16735 14.3357 5.83155 13.9999 5.41735 13.9999V15.4999ZM3.08333 14.7499L3.07569 15.4999H3.08333V14.7499ZM1.05133 13.0029L0.301845 13.0307C0.302985 13.0616 0.306045 13.0924 0.310995 13.123L1.05133 13.0029ZM0.782325 5.74395L1.53182 5.71617C1.53055 5.68188 1.52691 5.6477 1.52096 5.6139L0.782325 5.74395ZM1.89433 3.49195L1.55335 2.82392L1.54853 2.82642L1.89433 3.49195ZM6.82935 0.97295L7.17034 1.64096L7.17184 1.64017L6.82935 0.97295ZM8.67435 0.97295L8.33185 1.64017L8.33334 1.64096L8.67435 0.97295ZM13.6093 3.49195L13.9551 2.82641L13.9503 2.82394L13.6093 3.49195ZM14.7213 5.74395L13.9826 5.6139C13.9767 5.64767 13.9731 5.68181 13.9718 5.71607L14.7213 5.74395ZM14.4513 13.0029L15.1916 13.123C15.1966 13.0925 15.1996 13.0617 15.2008 13.0308L14.4513 13.0029ZM12.4193 14.7499V15.5L12.4269 15.4999L12.4193 14.7499ZM10.0853 13.9999C9.67115 13.9999 9.33535 14.3357 9.33535 14.7499C9.33535 15.1642 9.67115 15.4999 10.0853 15.4999V13.9999ZM5.41735 13.9999C5.00312 13.9999 4.66733 14.3357 4.66733 14.7499C4.66733 15.1642 5.00312 15.4999 5.41735 15.4999V13.9999ZM10.0853 15.4999C10.4995 15.4999 10.8353 15.1642 10.8353 14.7499C10.8353 14.3357 10.4995 13.9999 10.0853 13.9999V15.4999ZM6.16735 14.7499V12.4169H4.66733V14.7499H6.16735ZM6.16735 12.4169C6.16735 11.5421 6.87654 10.8329 7.75135 10.8329V9.3329C6.04805 9.3329 4.66733 10.7137 4.66733 12.4169H6.16735ZM7.75135 10.8329C8.62615 10.8329 9.33535 11.5421 9.33535 12.4169H10.8353C10.8353 10.7137 9.45455 9.3329 7.75135 9.3329V10.8329ZM9.33535 12.4169V14.7499H10.8353V12.4169H9.33535ZM5.41735 13.9999H3.08333V15.4999H5.41735V13.9999ZM3.09097 14C2.44375 13.9934 1.89525 13.5218 1.79166 12.8829L0.310995 13.123C0.531415 14.4825 1.69852 15.4859 3.07569 15.4999L3.09097 14ZM1.80081 12.9752L1.53182 5.71617L0.0328454 5.7717L0.301845 13.0307L1.80081 12.9752ZM1.52096 5.6139C1.41701 5.02348 1.70816 4.43388 2.24013 4.15747L1.54853 2.82642C0.435375 3.40481 -0.173825 4.63855 0.0436853 5.874L1.52096 5.6139ZM2.23531 4.15996L7.17034 1.64096L6.48835 0.30494L1.55335 2.82392L2.23531 4.15996ZM7.17184 1.64017C7.53594 1.45328 7.96775 1.45328 8.33185 1.64017L9.01684 0.30573C8.22274 -0.10191 7.28095 -0.10191 6.48685 0.30573L7.17184 1.64017ZM8.33334 1.64096L13.2683 4.15996L13.9503 2.82394L9.01534 0.30494L8.33334 1.64096ZM13.2635 4.15747C13.7955 4.43388 14.0866 5.02348 13.9826 5.6139L15.4599 5.874C15.6774 4.63855 15.0682 3.4048 13.9551 2.82641L13.2635 4.15747ZM13.9718 5.71607L13.7018 12.9751L15.2008 13.0308L15.4708 5.7718L13.9718 5.71607ZM13.711 12.8829C13.6074 13.5218 13.0589 13.9934 12.4116 14L12.4269 15.4999C13.8041 15.4859 14.9712 14.4825 15.1916 13.123L13.711 12.8829ZM12.4193 13.9999H10.0853V15.4999L12.4193 15.5V13.9999ZM5.41735 15.4999H10.0853V13.9999H5.41735V15.4999Z" fill="#16232A"/>
</svg>
