<svg width="60" height="60" viewBox="0 0 60 60" fill="none" xmlns="http://www.w3.org/2000/svg">
<path fill-rule="evenodd" clip-rule="evenodd" d="M30 3.125C31.0355 3.125 31.875 3.96448 31.875 5V10C31.875 11.0355 31.0355 11.875 30 11.875C28.9645 11.875 28.125 11.0355 28.125 10V5C28.125 3.96448 28.9645 3.125 30 3.125ZM9.17162 9.29023C9.87037 8.52597 11.0564 8.47287 11.8206 9.17162L17.3757 14.2506C18.1399 14.9494 18.193 16.1353 17.4943 16.8996C16.7955 17.6638 15.6095 17.7169 14.8452 17.0182L9.29023 11.9392C8.52597 11.2405 8.47287 10.0545 9.17162 9.29023ZM50.8285 9.29023C51.5272 10.0545 51.474 11.2405 50.7097 11.9392L45.1547 17.0182C44.3905 17.7169 43.2045 17.6638 42.5058 16.8996C41.807 16.1353 41.86 14.9494 42.6242 14.2506L48.1795 9.17162C48.9437 8.47287 50.1295 8.52597 50.8285 9.29023ZM30 19.375C24.132 19.375 19.375 24.132 19.375 30C19.375 35.868 24.132 40.625 30 40.625C35.868 40.625 40.625 35.868 40.625 30C40.625 24.132 35.868 19.375 30 19.375ZM15.625 30C15.625 22.0609 22.0609 15.625 30 15.625C37.939 15.625 44.375 22.0609 44.375 30C44.375 37.939 37.939 44.375 30 44.375C22.0609 44.375 15.625 37.939 15.625 30ZM3.125 30C3.125 28.9645 3.96448 28.125 5 28.125H10C11.0355 28.125 11.875 28.9645 11.875 30C11.875 31.0355 11.0355 31.875 10 31.875H5C3.96448 31.875 3.125 31.0355 3.125 30ZM48.125 30C48.125 28.9645 48.9645 28.125 50 28.125H55C56.0355 28.125 56.875 28.9645 56.875 30C56.875 31.0355 56.0355 31.875 55 31.875H50C48.9645 31.875 48.125 31.0355 48.125 30ZM42.5637 42.563C43.296 41.8307 44.4833 41.8307 45.2155 42.563L50.7705 48.1187C51.5028 48.851 51.5025 50.0383 50.7702 50.7705C50.038 51.5028 48.8507 51.5025 48.1187 50.7702L42.5637 45.2145C41.8315 44.4823 41.8315 43.2952 42.5637 42.563ZM17.4367 42.5632C18.1689 43.2955 18.1689 44.4827 17.4367 45.215L11.8811 50.7705C11.1489 51.5028 9.9617 51.5028 9.22945 50.7705C8.49723 50.0383 8.49723 48.851 9.22945 48.119L14.785 42.5632C15.5173 41.831 16.7044 41.831 17.4367 42.5632ZM30 48.125C31.0355 48.125 31.875 48.9645 31.875 50V55C31.875 56.0355 31.0355 56.875 30 56.875C28.9645 56.875 28.125 56.0355 28.125 55V50C28.125 48.9645 28.9645 48.125 30 48.125Z" fill="#FE4819"/>
</svg>
