<svg width="16" height="16" viewBox="0 0 16 16" fill="none" xmlns="http://www.w3.org/2000/svg">
<path fill-rule="evenodd" clip-rule="evenodd" d="M1.65255 2.97381C1.89615 2.92782 2.14673 3.00517 2.32203 3.18046L4.17545 5.03388C4.41328 5.27171 4.79888 5.27171 5.03671 5.03388C5.27455 4.79606 5.27455 4.41045 5.03671 4.17262L3.18421 2.32011C3.00883 2.14473 2.93149 1.89399 2.97763 1.65028C3.02377 1.40658 3.18739 1.20145 3.41475 1.10231C5.05062 0.388953 7.02795 0.700143 8.36812 2.04029C9.42847 3.10065 9.8445 4.56049 9.61897 5.93305L14.7778 11.0919C15.7956 12.1096 15.7956 13.7597 14.7778 14.7774C13.7601 15.7951 12.1101 15.7951 11.0923 14.7774L5.93344 9.61848C4.56091 9.84401 3.10111 9.42791 2.04078 8.36763C0.699568 7.02641 0.38894 5.04698 1.10451 3.41034C1.20382 3.1832 1.40895 3.0198 1.65255 2.97381ZM2.23023 5.20998C2.23183 5.96953 2.52264 6.72813 3.10144 7.30691C3.88056 8.08608 4.98485 8.34348 5.98061 8.07558C6.23962 8.00591 6.51615 8.07986 6.70582 8.26953L12.153 13.7168C12.5849 14.1487 13.2853 14.1487 13.7172 13.7168C14.1491 13.2849 14.1491 12.5845 13.7172 12.1526L8.27002 6.70541C8.08035 6.51573 8.0064 6.23921 8.07607 5.9802C8.34405 4.98441 8.08657 3.88009 7.3074 3.10095C6.72982 2.52334 5.97314 2.23254 5.21516 2.22975L6.09738 3.11196C6.921 3.93558 6.921 5.27093 6.09738 6.09455C5.27376 6.91818 3.93841 6.91818 3.11479 6.09455L2.23023 5.20998Z" fill="#16232A"/>
</svg>
