<svg width="26" height="26" viewBox="0 0 26 26" fill="none" xmlns="http://www.w3.org/2000/svg">
<path fill-rule="evenodd" clip-rule="evenodd" d="M6.61867 7.1364C7.53387 6.17232 7.85731 5.90192 8.24731 5.77608C8.51721 5.70536 8.80027 5.70143 9.07203 5.76464C9.42979 5.86864 9.52443 5.94768 10.6975 7.11664C11.7282 8.14312 11.8311 8.2544 11.9299 8.45512C12.1189 8.80745 12.1484 9.22367 12.011 9.59912C11.907 9.88512 11.7594 10.0744 11.1343 10.7015L10.7266 11.1103C10.6196 11.2191 10.5945 11.3842 10.6642 11.5201C11.5701 13.0653 12.8551 14.3539 14.3978 15.2641C14.5755 15.3591 14.7942 15.3284 14.9386 15.1881L15.3307 14.8023C15.573 14.5538 15.8297 14.3198 16.0993 14.1013C16.5228 13.8413 17.0504 13.8181 17.495 14.04C17.7123 14.144 17.7841 14.2085 18.847 15.2693C19.9431 16.3623 19.9743 16.3966 20.095 16.6473C20.322 17.0621 20.3196 17.5646 20.0887 17.9774C19.9712 18.2104 19.8994 18.2946 19.2827 18.9249C18.9104 19.3055 18.5599 19.6529 18.5038 19.7038C17.995 20.125 17.3423 20.3317 16.6838 20.28C15.479 20.1701 14.3129 19.7977 13.2674 19.189C10.9515 17.9619 8.97989 16.1742 7.53283 13.989C7.21765 13.5316 6.93744 13.0511 6.69459 12.5517C6.04311 11.4351 5.70669 10.1627 5.72115 8.87008C5.77088 8.19383 6.09519 7.5674 6.61867 7.1364Z" stroke="black" stroke-opacity="0.6" stroke-linecap="round" stroke-linejoin="round"/>
</svg>
