<svg width="16" height="15" viewBox="0 0 16 15" fill="none" xmlns="http://www.w3.org/2000/svg">
<path d="M12.275 2.8125H3.725C3.24221 2.81374 2.77961 3.0064 2.43866 3.34823C2.09772 3.69005 1.90625 4.15314 1.90625 4.63594V9.89531C1.90625 10.3781 2.09772 10.8412 2.43866 11.183C2.77961 11.5248 3.24221 11.7175 3.725 11.7188H12.275C12.7578 11.7175 13.2204 11.5248 13.5613 11.183C13.9023 10.8412 14.0938 10.3781 14.0938 9.89531V4.63594C14.0938 4.15314 13.9023 3.69005 13.5613 3.34823C13.2204 3.0064 12.7578 2.81374 12.275 2.8125ZM3.725 3.75H12.275C12.5092 3.75124 12.7333 3.84513 12.8984 4.01114C13.0636 4.17715 13.1563 4.40178 13.1562 4.63594V5.15625H2.84375V4.63594C2.84375 4.40178 2.93644 4.17715 3.10158 4.01114C3.26671 3.84513 3.49085 3.75124 3.725 3.75ZM12.275 10.7812H3.725C3.49085 10.78 3.26671 10.6861 3.10158 10.5201C2.93644 10.3541 2.84375 10.1295 2.84375 9.89531V6.09375H13.1562V9.89531C13.1563 10.1295 13.0636 10.3541 12.8984 10.5201C12.7333 10.6861 12.5092 10.78 12.275 10.7812Z" fill="#E4EEF0"/>
<path d="M11.75 8.90625H9.40625C9.28193 8.90625 9.1627 8.95564 9.07479 9.04354C8.98689 9.13145 8.9375 9.25068 8.9375 9.375C8.9375 9.49932 8.98689 9.61855 9.07479 9.70646C9.1627 9.79436 9.28193 9.84375 9.40625 9.84375H11.75C11.8743 9.84375 11.9935 9.79436 12.0815 9.70646C12.1694 9.61855 12.2188 9.49932 12.2188 9.375C12.2188 9.25068 12.1694 9.13145 12.0815 9.04354C11.9935 8.95564 11.8743 8.90625 11.75 8.90625Z" fill="#E4EEF0"/>
</svg>
