<svg width="62" height="63" viewBox="0 0 62 63" fill="none" xmlns="http://www.w3.org/2000/svg">
<g clip-path="url(#clip0_198_729)">
<path fill-rule="evenodd" clip-rule="evenodd" d="M31 0.537109L39.6111 8.34911L51.2327 7.90132L52.8068 19.4264L62 26.5496L55.8 36.3869L58.2628 47.757L47.1889 51.3048L41.7673 61.5933L31 57.1948L20.2327 61.5933L14.8111 51.3048L3.73721 47.757L6.2 36.3869L0 26.5496L9.19321 19.4264L10.7673 7.90132L22.3889 8.34911L31 0.537109ZM31 5.18711L24.7001 10.9014L23.6599 11.8452L22.2545 11.7936L13.7537 11.4663L12.6032 19.8914L12.4138 21.2864L11.3012 22.1441L4.58112 27.3556L9.114 34.5544L9.86488 35.7393L9.56521 37.1171L7.76721 45.4286L15.8651 48.0257L17.205 48.4562L17.8629 49.6997L21.824 57.2223L29.698 54.0087L31 53.4748L32.302 54.0087L40.176 57.2223L44.1405 49.6997L44.795 48.4562L46.1349 48.0257L54.2328 45.4286L52.4348 37.1171L52.1351 35.7393L52.886 34.5544L57.4223 27.3556L50.6988 22.1441L49.5862 21.2864L49.3968 19.8914L48.2429 11.4663L39.7489 11.7936L38.3401 11.8452L37.2999 10.9014L31 5.18711ZM42.0133 24.9975L44.0971 27.7427L25.9621 41.5067L17.7265 33.271L20.1617 30.8358L26.2721 36.9463L42.0133 24.9975Z" fill="#FE4819"/>
</g>
<defs>
<clipPath id="clip0_198_729">
<rect width="62" height="62" fill="white" transform="translate(0 0.0527344)"/>
</clipPath>
</defs>
</svg>
