<svg width="15" height="15" viewBox="0 0 15 15" fill="none" xmlns="http://www.w3.org/2000/svg">
<g clip-path="url(#clip0_1271_2465)">
<path fill-rule="evenodd" clip-rule="evenodd" d="M11.9768 6.04211C11.9768 8.39711 10.1572 10.3103 7.851 10.5H7.10025C4.79475 10.3103 2.97675 8.40808 2.97675 6.05383C2.97675 6.02308 2.98125 6 2.98125 6H11.9723C11.9723 6 11.9768 6.01211 11.9768 6.04211ZM14.25 4.5H10.5V0.75C10.5 0.33525 10.1648 0 9.75 0C9.336 0 9 0.33525 9 0.75V4.5H6V0.75C6 0.33525 5.66475 0 5.25 0C4.836 0 4.5 0.33525 4.5 0.75V4.5H0.75C0.336 4.5 0 4.83525 0 5.25C0 5.664 0.336 6 0.75 6H1.48125C1.48125 6 1.48875 6.01211 1.48875 6.04211C1.48875 9.10136 3.75 11.6003 6.75 11.967V15H8.25V11.967C11.25 11.6018 13.4888 9.11308 13.4888 6.05383C13.4888 6.02308 13.473 6 13.473 6H14.25C14.6648 6 15 5.664 15 5.25C15 4.83525 14.6648 4.5 14.25 4.5Z" fill="#16232A"/>
</g>
<defs>
<clipPath id="clip0_1271_2465">
<rect width="15" height="15" fill="white"/>
</clipPath>
</defs>
</svg>
