<svg width="27" height="27" viewBox="0 0 27 27" fill="none" xmlns="http://www.w3.org/2000/svg">
<rect width="27" height="27" rx="5" fill="#FE4819"/>
<path fill-rule="evenodd" clip-rule="evenodd" d="M13.5007 5.70825C10.8132 5.70825 9.35794 7.14536 8.61549 8.56803C8.25261 9.26337 8.0594 9.95081 7.95614 10.4592C7.90419 10.7149 7.87416 10.9296 7.85697 11.083C7.84615 11.1795 7.83398 11.2776 7.83398 11.3749C7.83398 13.3033 8.70676 14.4305 9.45923 15.0252C9.83357 15.3212 10.0419 15.6242 10.0752 15.8903L10.5177 19.4302C10.6506 20.4936 11.5546 21.2916 12.6263 21.2916H14.375C15.4467 21.2916 16.3507 20.4936 16.4837 19.4302L16.9261 15.8903C16.9594 15.6242 17.1677 15.3212 17.542 15.0252C18.2945 14.4305 19.1673 13.3033 19.1673 11.3749C19.1673 11.2776 19.1551 11.1795 19.1443 11.083C19.1272 10.9296 19.0971 10.7149 19.0451 10.4592C18.9419 9.95081 18.7487 9.26337 18.3858 8.56803C17.6433 7.14536 16.1881 5.70825 13.5007 5.70825ZM10.3378 13.9139C9.56098 13.2999 9.15515 12.2196 9.26482 11.2407C9.27802 11.123 9.30198 10.9503 9.34446 10.7412C9.43003 10.3199 9.58739 9.76772 9.87141 9.22347C10.4228 8.16698 11.4466 7.12492 13.5007 7.12492C15.5547 7.12492 16.5785 8.16698 17.1299 9.22347C17.4139 9.76772 17.5713 10.3199 17.6569 10.7412C17.6993 10.9503 17.7233 11.123 17.7365 11.2407C17.8461 12.2196 17.4403 13.2999 16.6636 13.9139C16.1819 14.2946 15.6225 14.8982 15.5204 15.7147L15.3545 17.0416H11.6468L11.4809 15.7147C11.3789 14.8982 10.8194 14.2946 10.3378 13.9139ZM11.8239 18.4583L11.9234 19.2544C11.9677 19.6089 12.269 19.8749 12.6263 19.8749H14.375C14.7323 19.8749 15.0336 19.6089 15.0779 19.2544L15.1774 18.4583H11.8239Z" fill="white"/>
</svg>
