<svg width="27" height="27" viewBox="0 0 27 27" fill="none" xmlns="http://www.w3.org/2000/svg">
<rect width="27" height="27" rx="5" fill="#BB141D"/>
<path d="M10.4173 20.4999C10.4173 20.9142 10.7531 21.2499 11.1673 21.2499C11.5815 21.2499 11.9173 20.9142 11.9173 20.4999H10.4173ZM15.0853 20.4999C15.0853 20.9142 15.4211 21.2499 15.8353 21.2499C16.2495 21.2499 16.5853 20.9142 16.5853 20.4999H15.0853ZM11.1673 21.2499C11.5815 21.2499 11.9173 20.9142 11.9173 20.4999C11.9173 20.0857 11.5815 19.7499 11.1673 19.7499V21.2499ZM8.83333 20.4999L8.82569 21.2499H8.83333V20.4999ZM6.80133 18.7529L6.05184 18.7807C6.05298 18.8116 6.05604 18.8424 6.06099 18.873L6.80133 18.7529ZM6.53233 11.494L7.28182 11.4662C7.28055 11.4319 7.27691 11.3977 7.27096 11.3639L6.53233 11.494ZM7.64433 9.24195L7.30335 8.57392L7.29853 8.57642L7.64433 9.24195ZM12.5793 6.72295L12.9203 7.39096L12.9218 7.39017L12.5793 6.72295ZM14.4243 6.72295L14.0818 7.39017L14.0833 7.39096L14.4243 6.72295ZM19.3593 9.24195L19.7051 8.57641L19.7003 8.57394L19.3593 9.24195ZM20.4713 11.494L19.7326 11.3639C19.7267 11.3977 19.7231 11.4318 19.7218 11.4661L20.4713 11.494ZM20.2013 18.7529L20.9416 18.873C20.9466 18.8425 20.9496 18.8117 20.9508 18.7808L20.2013 18.7529ZM18.1693 20.4999V21.25L18.1769 21.2499L18.1693 20.4999ZM15.8353 19.7499C15.4211 19.7499 15.0853 20.0857 15.0853 20.4999C15.0853 20.9142 15.4211 21.2499 15.8353 21.2499V19.7499ZM11.1673 19.7499C10.7531 19.7499 10.4173 20.0857 10.4173 20.4999C10.4173 20.9142 10.7531 21.2499 11.1673 21.2499V19.7499ZM15.8353 21.2499C16.2495 21.2499 16.5853 20.9142 16.5853 20.4999C16.5853 20.0857 16.2495 19.7499 15.8353 19.7499V21.2499ZM11.9173 20.4999V18.1669H10.4173V20.4999H11.9173ZM11.9173 18.1669C11.9173 17.2921 12.6265 16.5829 13.5013 16.5829V15.0829C11.798 15.0829 10.4173 16.4637 10.4173 18.1669H11.9173ZM13.5013 16.5829C14.3761 16.5829 15.0853 17.2921 15.0853 18.1669H16.5853C16.5853 16.4637 15.2045 15.0829 13.5013 15.0829V16.5829ZM15.0853 18.1669V20.4999H16.5853V18.1669H15.0853ZM11.1673 19.7499H8.83333V21.2499H11.1673V19.7499ZM8.84097 19.75C8.19375 19.7434 7.64525 19.2718 7.54166 18.6329L6.06099 18.873C6.28141 20.2325 7.44852 21.2359 8.82569 21.2499L8.84097 19.75ZM7.55081 18.7252L7.28182 11.4662L5.78285 11.5217L6.05184 18.7807L7.55081 18.7252ZM7.27096 11.3639C7.16701 10.7735 7.45816 10.1839 7.99013 9.90747L7.29853 8.57642C6.18538 9.15481 5.57618 10.3886 5.79369 11.624L7.27096 11.3639ZM7.98531 9.90996L12.9203 7.39096L12.2383 6.05494L7.30335 8.57392L7.98531 9.90996ZM12.9218 7.39017C13.2859 7.20328 13.7177 7.20328 14.0818 7.39017L14.7668 6.05573C13.9727 5.64809 13.0309 5.64809 12.2368 6.05573L12.9218 7.39017ZM14.0833 7.39096L19.0183 9.90996L19.7003 8.57394L14.7653 6.05494L14.0833 7.39096ZM19.0135 9.90747C19.5455 10.1839 19.8366 10.7735 19.7326 11.3639L21.2099 11.624C21.4274 10.3886 20.8182 9.1548 19.7051 8.57641L19.0135 9.90747ZM19.7218 11.4661L19.4518 18.7251L20.9508 18.7808L21.2208 11.5218L19.7218 11.4661ZM19.461 18.6329C19.3574 19.2718 18.8089 19.7434 18.1616 19.75L18.1769 21.2499C19.5541 21.2359 20.7212 20.2325 20.9416 18.873L19.461 18.6329ZM18.1693 19.7499H15.8353V21.2499L18.1693 21.25V19.7499ZM11.1673 21.2499H15.8353V19.7499H11.1673V21.2499Z" fill="white"/>
</svg>
