<svg width="12" height="12" viewBox="0 0 12 12" fill="none" xmlns="http://www.w3.org/2000/svg">
<path d="M6 3.16912V10.3913M6 3.16912H4.03572C3.74629 3.16912 3.46872 3.05206 3.26407 2.84368C3.05942 2.63531 2.94444 2.35269 2.94444 2.05801C2.94444 1.76333 3.05942 1.48071 3.26407 1.27234C3.46872 1.06396 3.74629 0.946899 4.03572 0.946899C5.5635 0.946899 6 3.16912 6 3.16912ZM6 3.16912H7.96428C8.25372 3.16912 8.53128 3.05206 8.73594 2.84368C8.94056 2.63531 9.05556 2.35269 9.05556 2.05801C9.05556 1.76333 8.94056 1.48071 8.73594 1.27234C8.53128 1.06396 8.25372 0.946899 7.96428 0.946899C6.4365 0.946899 6 3.16912 6 3.16912ZM2.11111 5.9469H9.88889V9.16912C9.88889 9.7914 9.88889 10.1026 9.76778 10.3402C9.66128 10.5493 9.49128 10.7193 9.28222 10.8258C9.04456 10.9469 8.73339 10.9469 8.11111 10.9469H3.88889C3.26661 10.9469 2.95547 10.9469 2.71779 10.8258C2.50872 10.7193 2.33874 10.5493 2.23222 10.3402C2.11111 10.1026 2.11111 9.7914 2.11111 9.16912V5.9469ZM1.88889 5.9469H10.1111C10.4223 5.9469 10.5778 5.9469 10.6967 5.88634C10.8012 5.83307 10.8862 5.74812 10.9394 5.64357C11 5.52473 11 5.36918 11 5.05801V4.05801C11 3.74687 11 3.5913 10.9394 3.47246C10.8862 3.36793 10.8012 3.28294 10.6967 3.22967C10.5778 3.16912 10.4223 3.16912 10.1111 3.16912H1.88889C1.57775 3.16912 1.42218 3.16912 1.30334 3.22967C1.19881 3.28294 1.11382 3.36793 1.06055 3.47246C1 3.5913 1 3.74687 1 4.05801V5.05801C1 5.36918 1 5.52473 1.06055 5.64357C1.11382 5.74812 1.19881 5.83307 1.30334 5.88634C1.42218 5.9469 1.57775 5.9469 1.88889 5.9469Z" stroke="#E4EEF0" stroke-linecap="round" stroke-linejoin="round"/>
</svg>
