<svg width="16" height="17" viewBox="0 0 16 17" fill="none" xmlns="http://www.w3.org/2000/svg">
<path fill-rule="evenodd" clip-rule="evenodd" d="M3.66663 12.4735C3.66663 12.2894 3.81587 12.1401 3.99996 12.1401H12C12.184 12.1401 12.3333 12.2894 12.3333 12.4735C12.3333 12.6575 12.184 12.8068 12 12.8068H3.99996C3.81587 12.8068 3.66663 12.6575 3.66663 12.4735Z" fill="#E4EEF0"/>
<path d="M6.00004 8.14014H4.66671C4.48261 8.14014 4.33337 8.28938 4.33337 8.47347V12.4735C4.33337 12.6576 4.48261 12.8068 4.66671 12.8068H6.00004C6.18414 12.8068 6.33337 12.6576 6.33337 12.4735V8.47347C6.33337 8.28938 6.18414 8.14014 6.00004 8.14014Z" fill="#E4EEF0"/>
<path d="M8.66667 4.14014H7.33333C7.14924 4.14014 7 4.28938 7 4.47347V12.4735C7 12.6576 7.14924 12.8068 7.33333 12.8068H8.66667C8.85076 12.8068 9 12.6576 9 12.4735V4.47347C9 4.28938 8.85076 4.14014 8.66667 4.14014Z" fill="#E4EEF0"/>
<path d="M11.3333 6.14014H9.99996C9.81586 6.14014 9.66663 6.28938 9.66663 6.47347V12.4735C9.66663 12.6576 9.81586 12.8068 9.99996 12.8068H11.3333C11.5174 12.8068 11.6666 12.6576 11.6666 12.4735V6.47347C11.6666 6.28938 11.5174 6.14014 11.3333 6.14014Z" fill="#E4EEF0"/>
</svg>
