<svg width="19" height="19" viewBox="0 0 19 19" fill="none" xmlns="http://www.w3.org/2000/svg">
<g clip-path="url(#clip0_1191_1760)">
<path d="M9.5 14.0521C9.82791 14.0521 10.0938 13.7863 10.0938 13.4584V8.70837C10.0938 8.38047 9.82791 8.11462 9.5 8.11462C9.17209 8.11462 8.90625 8.38047 8.90625 8.70837V13.4584C8.90625 13.7863 9.17209 14.0521 9.5 14.0521Z" fill="#E4EEF0"/>
<path d="M9.49967 5.54175C9.93691 5.54175 10.2913 5.89619 10.2913 6.33341C10.2913 6.77064 9.93691 7.12508 9.49967 7.12508C9.06244 7.12508 8.70801 6.77064 8.70801 6.33341C8.70801 5.89619 9.06244 5.54175 9.49967 5.54175Z" fill="#E4EEF0"/>
<path fill-rule="evenodd" clip-rule="evenodd" d="M0.989258 9.49992C0.989258 4.79975 4.7995 0.989502 9.49967 0.989502C14.1999 0.989502 18.0101 4.79975 18.0101 9.49992C18.0101 14.2001 14.1999 18.0103 9.49967 18.0103C4.7995 18.0103 0.989258 14.2001 0.989258 9.49992ZM9.49967 2.177C5.45534 2.177 2.17676 5.45559 2.17676 9.49992C2.17676 13.5442 5.45534 16.8228 9.49967 16.8228C13.544 16.8228 16.8226 13.5442 16.8226 9.49992C16.8226 5.45559 13.544 2.177 9.49967 2.177Z" fill="#E4EEF0"/>
</g>
<defs>
<clipPath id="clip0_1191_1760">
<rect width="19" height="19" fill="white"/>
</clipPath>
</defs>
</svg>
