<svg width="28" height="28" viewBox="0 0 28 28" fill="none" xmlns="http://www.w3.org/2000/svg">
<path fill-rule="evenodd" clip-rule="evenodd" d="M13.9939 1.18083C14.4916 1.3154 14.8373 1.76698 14.8373 2.2826V10.2719H21.6853C22.094 10.2719 22.4714 10.4904 22.6749 10.8447C22.8785 11.1991 22.877 11.6352 22.6711 11.9882L14.6819 25.6841C14.422 26.1295 13.8959 26.3454 13.3981 26.2108C12.9004 26.0762 12.5547 25.6246 12.5547 25.1091V17.1198H5.70675C5.29808 17.1198 4.92061 16.9013 4.71707 16.5469C4.51352 16.1925 4.51498 15.7564 4.7209 15.4034L12.7101 1.70753C12.97 1.26214 13.4962 1.04627 13.9939 1.18083ZM7.69384 14.8372H13.696C14.3264 14.8372 14.8373 15.3481 14.8373 15.9785V20.8873L19.6982 12.5545H13.696C13.0657 12.5545 12.5547 12.0436 12.5547 11.4132V6.50426L7.69384 14.8372Z" fill="#E4EEF0"/>
</svg>
