<svg width="12" height="14" viewBox="0 0 12 14" fill="none" xmlns="http://www.w3.org/2000/svg">
<path fill-rule="evenodd" clip-rule="evenodd" d="M6.2136 12.2451C6.11752 12.3156 6.02797 12.3796 5.94615 12.437C5.85885 12.3791 5.76202 12.3125 5.65702 12.2374C5.16195 11.8832 4.51988 11.3632 3.88754 10.7147C2.59052 9.3844 1.5 7.68633 1.5 5.875C1.5 3.38972 3.51472 1.375 6 1.375C8.48528 1.375 10.5 3.38972 10.5 5.875C10.5 7.6669 9.36142 9.3601 8.01697 10.7045C7.3647 11.3568 6.7083 11.8824 6.2136 12.2451ZM11.625 5.875C11.625 10.375 6 13.75 6 13.75C5.71875 13.75 0.375 10.375 0.375 5.875C0.375 2.76839 2.89339 0.25 6 0.25C9.10658 0.25 11.625 2.76839 11.625 5.875ZM7.125 5.875C7.125 6.4963 6.6213 7 6 7C5.3787 7 4.875 6.4963 4.875 5.875C4.875 5.25368 5.3787 4.75 6 4.75C6.6213 4.75 7.125 5.25368 7.125 5.875ZM8.25 5.875C8.25 7.11767 7.24267 8.125 6 8.125C4.75733 8.125 3.75 7.11767 3.75 5.875C3.75 4.63236 4.75733 3.625 6 3.625C7.24267 3.625 8.25 4.63236 8.25 5.875Z" fill="#16232A"/>
</svg>
