<svg width="193" height="34" viewBox="0 0 193 34" fill="none" xmlns="http://www.w3.org/2000/svg">
<path d="M82.6616 14.88H77.2049C77.2049 13.8259 76.8305 13.015 76.0815 12.4473C75.3593 11.8527 74.3563 11.5553 73.0724 11.5553C71.8954 11.5553 70.9994 11.7851 70.3842 12.2446C69.769 12.7041 69.4614 13.3258 69.4614 14.1097C69.4614 14.5962 69.5683 15.0152 69.7823 15.3666C70.0231 15.6909 70.4109 15.9477 70.9459 16.1369C71.4808 16.3261 71.9757 16.4748 72.4304 16.5829C72.8851 16.691 73.5405 16.8127 74.3964 16.9478C75.2791 17.056 75.9612 17.1641 76.4426 17.2722C77.5928 17.5155 78.7029 17.8263 79.7728 18.2047C80.8695 18.6102 81.7521 19.3535 82.4208 20.4347C83.0895 21.4889 83.4239 22.8134 83.4239 24.4081C83.4239 26.8679 82.461 28.7194 80.5351 29.9628C78.6627 31.1791 76.1751 31.7873 73.0724 31.7873C70.0498 31.7873 67.6291 31.071 65.8102 29.6384C64.0181 28.1788 63.122 26.2462 63.122 23.8405H68.6188C68.6188 24.8136 69.0334 25.611 69.8626 26.2326C70.6918 26.8273 71.7617 27.1246 73.0724 27.1246C74.4633 27.1246 75.5599 26.8949 76.3624 26.4354C77.1648 25.9488 77.566 25.2731 77.566 24.4081C77.566 23.8675 77.4457 23.435 77.2049 23.1107C76.991 22.7593 76.6165 22.489 76.0815 22.2998C75.5466 22.0835 75.0651 21.9349 74.6371 21.8538C74.2092 21.7457 73.5404 21.6375 72.631 21.5294C71.7483 21.4213 71.0796 21.3267 70.6249 21.2456C69.341 20.9753 68.2176 20.678 67.2546 20.3536C66.1847 19.9482 65.3154 19.2184 64.6467 18.1642C64.0047 17.083 63.6837 15.7315 63.6837 14.1097C63.6837 11.7851 64.4996 10.0146 66.1312 8.79828C67.7896 7.55489 70.1033 6.9332 73.0724 6.9332C76.0682 6.9332 78.4086 7.63598 80.0938 9.04155C81.8056 10.4201 82.6616 12.3662 82.6616 14.88Z" fill="#FE4819"/>
<path d="M100.473 21.3267V7.62247H106.171V31.0981H100.915V27.7328H100.834C100.166 28.9762 99.2028 29.9628 97.9457 30.6926C96.7152 31.4224 95.2842 31.7873 93.6526 31.7873C90.9778 31.7873 88.7978 30.8683 87.1126 29.0303C85.4543 27.1382 84.6251 24.7325 84.6251 21.8132V7.62247H90.3224V21.3267C90.3224 22.7863 90.8173 24.0162 91.8069 25.0163C92.7966 26.0164 93.9869 26.5165 95.3778 26.5165C96.7955 26.5165 97.9991 26.0164 98.9888 25.0163C99.9785 24.0162 100.473 22.7863 100.473 21.3267Z" fill="#FE4819"/>
<path d="M113.883 17.3938V31.0981H108.186V7.62247H113.442V10.9877H113.522C114.191 9.74433 115.14 8.75773 116.371 8.02792C117.628 7.29811 119.072 6.9332 120.704 6.9332C123.379 6.9332 125.545 7.86574 127.204 9.73081C128.889 11.5418 129.732 13.934 129.732 16.9073V31.0981H124.034V17.3938C124.034 15.9612 123.539 14.7449 122.55 13.7448C121.533 12.7176 120.343 12.2041 118.979 12.2041C117.588 12.2041 116.384 12.7176 115.368 13.7448C114.378 14.7449 113.883 15.9612 113.883 17.3938Z" fill="#FE4819"/>
<path d="M137.444 31.0981H131.747V0.689264H137.444V31.0981Z" fill="#FE4819"/>
<path d="M139.439 31.0981V7.62247H145.136V31.0981H139.439ZM139.118 3.16251C139.118 2.29755 139.426 1.55423 140.041 0.932536C140.683 0.310845 141.432 0 142.288 0C143.144 0 143.879 0.310845 144.494 0.932536C145.136 1.55423 145.457 2.29755 145.457 3.16251C145.457 4.05451 145.15 4.81135 144.534 5.43304C143.919 6.0277 143.17 6.32503 142.288 6.32503C141.405 6.32503 140.656 6.0277 140.041 5.43304C139.426 4.81135 139.118 4.05451 139.118 3.16251Z" fill="#FE4819"/>
<path d="M152.829 17.3938V31.0981H147.131V7.62247H152.387V10.9877H152.467C153.136 9.74433 154.086 8.75773 155.316 8.02792C156.573 7.29811 158.018 6.9332 159.649 6.9332C162.324 6.9332 164.491 7.86574 166.149 9.73081C167.834 11.5418 168.677 13.934 168.677 16.9073V31.0981H162.979V17.3938C162.979 15.9612 162.485 14.7449 161.495 13.7448C160.478 12.7176 159.288 12.2041 157.924 12.2041C156.533 12.2041 155.329 12.7176 154.313 13.7448C153.323 14.7449 152.829 15.9612 152.829 17.3938Z" fill="#FE4819"/>
<path d="M176.389 17.3127L185.417 7.62247H193L182.689 18.5291L193 31.0981H185.858L178.877 22.5025L176.389 25.2596V31.0981H170.692V0.689264H176.389V17.3127Z" fill="#FE4819"/>
<path d="M28.165 23.2271C28.1698 23.2216 28.1746 23.2155 28.1794 23.2113C28.174 23.2155 28.1686 23.2204 28.1638 23.2252L28.165 23.2271Z" fill="#FE4819"/>
<path d="M31.2851 33.251C31.122 33.2083 30.9607 33.1595 30.7999 33.1114L30.7958 33.1132C30.95 33.1595 31.1137 33.2065 31.2851 33.251Z" fill="#FE4819"/>
<path d="M21.3322 24.6485H21.3299C21.4513 24.9626 21.6251 25.3187 21.796 25.6418H21.8037C21.6347 25.3169 21.4775 24.986 21.3322 24.6485Z" fill="#FE4819"/>
<path d="M21.796 25.6418C21.9692 25.9691 22.1389 26.2608 22.2467 26.4431C22.0901 26.1808 21.9454 25.9125 21.8037 25.6418H21.796Z" fill="#FE4819"/>
<path d="M22.3638 26.6363H22.3674C22.3387 26.5886 22.3075 26.5444 22.2794 26.4967C22.3315 26.5837 22.3638 26.6363 22.3638 26.6363Z" fill="#FE4819"/>
<path d="M30.5493 33.0374C30.1736 32.9189 29.8057 32.7823 29.4443 32.6349L29.439 32.6373C29.4747 32.6524 29.9039 32.8323 30.5493 33.0374Z" fill="#FE4819"/>
<path d="M30.7958 33.1132L30.7999 33.1114C30.7365 33.0933 30.6734 33.0766 30.6106 33.0561C30.671 33.076 30.7323 33.0957 30.7958 33.1132Z" fill="#FE4819"/>
<path d="M44.0314 3.86516H35.0197C34.2416 3.86516 33.4772 3.92532 32.7306 4.04144C32.5681 4.0667 32.4085 4.1022 32.2478 4.13228C35.0137 5.73618 37.2897 8.10594 38.7888 10.9564H44.4945C48.8536 10.9564 52.387 14.5282 52.387 18.9332C52.387 23.3376 48.853 26.9094 44.4945 26.9094H34.6381C32.6705 26.9094 30.8731 26.1802 29.4908 24.977L29.489 24.9788L29.4878 24.977C29.1937 24.7279 28.9603 24.4945 28.7698 24.2863C28.3531 23.8267 28.1679 23.5024 28.1679 23.5024L28.1691 23.5006L28.1679 23.4988C27.2719 22.2054 26.7457 20.6315 26.7457 18.9332C26.7457 17.2812 27.2422 15.747 28.0929 14.4734C28.1173 14.4373 28.1441 14.403 28.1685 14.3675C27.135 13.4814 25.8003 12.9435 24.3411 12.9435H21.34C20.5511 14.7796 20.1094 16.8035 20.1094 18.9332C20.1094 21.0617 20.5482 23.0861 21.3364 24.9222C21.4817 25.2598 21.6394 25.5906 21.8079 25.9155C21.949 26.1862 22.0949 26.4546 22.252 26.7169C22.2639 26.7367 22.2735 26.7524 22.2842 26.7698C22.3122 26.8173 22.3431 26.8612 22.3717 26.9088C24.0339 29.5938 26.5081 31.7096 29.4491 32.9087C29.8111 33.0561 30.179 33.1926 30.554 33.3111C30.5743 33.3178 30.5945 33.3244 30.6154 33.3298C30.6779 33.3503 30.7416 33.3665 30.8047 33.3845C30.9654 33.4327 31.1268 33.4814 31.2899 33.5241L31.2958 33.5259C32.4865 33.8346 33.7344 33.9994 35.0191 33.9994H44.0308C52.2655 33.9994 58.9405 27.2535 58.9405 18.9326C58.9411 10.6117 52.2661 3.86516 44.0314 3.86516Z" fill="#FE4819"/>
<path d="M14.9097 34H23.9214C24.7001 34 25.4645 33.9392 26.211 33.8231C26.3736 33.7979 26.5337 33.763 26.6939 33.7323C23.9279 32.129 21.6513 29.7592 20.1529 26.9088H14.4465C10.0874 26.9088 6.5541 23.3376 6.5541 18.932C6.5541 14.527 10.0874 10.9564 14.4465 10.9564H24.3024C26.2694 10.9564 28.0667 11.6855 29.4491 12.8888L29.4503 12.887L29.4515 12.8888C29.7462 13.1372 29.9795 13.3707 30.1695 13.5794C30.5868 14.0379 30.7713 14.3627 30.7713 14.3627L30.7702 14.3645L30.7719 14.3663C31.6679 15.6598 32.1948 17.2336 32.1948 18.9314C32.1948 20.5834 31.6977 22.1181 30.847 23.3905C30.8225 23.4278 30.7964 23.4615 30.7713 23.4964C31.8049 24.3832 33.1402 24.9216 34.5988 24.9216H37.6005C38.3887 23.0849 38.8299 21.0611 38.8299 18.9314C38.8299 16.8023 38.3911 14.7784 37.6029 12.9423C37.4576 12.6048 37.2999 12.2739 37.1314 11.9491C36.9903 11.6777 36.8444 11.4088 36.6872 11.1477C36.6753 11.1278 36.6658 11.1116 36.6557 11.0942C36.6271 11.0472 36.5968 11.0021 36.5682 10.9558C34.906 8.27078 32.4312 6.15431 29.4908 4.95589C29.1288 4.8085 28.7609 4.67253 28.3858 4.55281C28.3656 4.54619 28.3453 4.54018 28.3245 4.53356C28.262 4.51431 28.1983 4.49806 28.1352 4.48002C27.9744 4.43128 27.8131 4.38255 27.6494 4.34044L27.644 4.33924C26.4533 4.02941 25.2061 3.86517 23.9202 3.86517H14.9097C6.67496 3.86517 0 10.6105 0 18.932C0 27.2541 6.67496 34 14.9097 34Z" fill="#FE4819"/>
<path d="M28.1638 23.2287C28.1638 23.2287 28.3489 23.553 28.7656 24.0126C28.7686 24.009 28.7716 24.0054 28.7752 24.0036C28.5555 23.7587 28.3531 23.4984 28.165 23.2271L28.1638 23.2287Z" fill="#FE4819"/>
<path d="M22.2794 26.4967C22.2685 26.479 22.2588 26.4633 22.2467 26.4431C22.2581 26.4614 22.2685 26.4784 22.2794 26.4967Z" fill="#FE4819"/>
<path d="M28.7752 24.0036C28.7716 24.0054 28.7686 24.009 28.7656 24.0126C28.9556 24.2214 29.1889 24.4542 29.4836 24.7033L29.4848 24.7015C29.2348 24.4837 28.9966 24.2508 28.7752 24.0036Z" fill="#FE4819"/>
<path d="M29.4868 24.7043C29.4868 24.7043 29.4895 24.7003 29.4948 24.6942C29.4922 24.6969 29.4882 24.6988 29.4848 24.7015L29.4868 24.7043Z" fill="#FE4819"/>
<path d="M29.4873 24.7021L29.4836 24.7033L29.4836 24.7057L29.4868 24.7043L29.4873 24.7021Z" fill="#FE4819"/>
</svg>
