<svg width="30" height="31" viewBox="0 0 30 31" fill="none" xmlns="http://www.w3.org/2000/svg">
<rect y="0.54541" width="30" height="30.2273" rx="5" fill="#E4EEF0"/>
<path fill-rule="evenodd" clip-rule="evenodd" d="M15.7885 14.5497L16.1933 15.7669L16.4605 16.5915C17.1594 18.7784 17.4993 20.1063 17.4993 20.697C17.4993 22.0882 16.3801 23.2159 14.9993 23.2159C13.6186 23.2159 12.4993 22.0882 12.4993 20.697C12.4993 20.0354 12.9257 18.4491 13.8054 15.7669L14.2102 14.5497C14.466 13.7899 15.5327 13.7899 15.7885 14.5497ZM14.9993 8.10229C19.6017 8.10229 23.3327 11.8615 23.3327 16.4988C23.3327 18.1829 22.8387 19.795 21.9281 21.1652C21.6721 21.5505 21.1545 21.6537 20.7721 21.3957C20.3896 21.1377 20.2872 20.6162 20.5433 20.2308C21.2716 19.135 21.666 17.8475 21.666 16.4988C21.666 12.789 18.6812 9.78159 14.9993 9.78159C11.3175 9.78159 8.33268 12.789 8.33268 16.4988C8.33268 17.8475 8.72713 19.135 9.45541 20.2308C9.71149 20.6162 9.60906 21.1377 9.22664 21.3957C8.84422 21.6537 8.32662 21.5505 8.07055 21.1652C7.15995 19.795 6.66602 18.1829 6.66602 16.4988C6.66602 11.8615 10.397 8.10229 14.9993 8.10229ZM14.9993 17.5055L14.7256 18.396L14.5365 19.0434C14.2909 19.9086 14.166 20.4689 14.166 20.697C14.166 21.1607 14.5391 21.5366 14.9993 21.5366C15.4596 21.5366 15.8327 21.1607 15.8327 20.697C15.8327 20.4181 15.6459 19.6425 15.2803 18.4202L14.9993 17.5055Z" fill="#16232A"/>
</svg>
