<svg width="47" height="47" viewBox="0 0 47 47" fill="none" xmlns="http://www.w3.org/2000/svg">
<path fill-rule="evenodd" clip-rule="evenodd" d="M11.9633 12.9003C13.6177 11.1576 14.2024 10.6688 14.9074 10.4413C15.3953 10.3134 15.907 10.3063 16.3983 10.4206C17.045 10.6086 17.2161 10.7515 19.3366 12.8646C21.1997 14.7202 21.3858 14.9213 21.5644 15.2842C21.906 15.9211 21.9594 16.6735 21.7111 17.3522C21.5231 17.8692 21.2561 18.2113 20.1262 19.345L19.3893 20.0839C19.1958 20.2805 19.1503 20.5791 19.2765 20.8246C20.914 23.6179 23.2369 25.9474 26.0257 27.5926C26.3468 27.7644 26.7421 27.709 27.0033 27.4554L27.712 26.7579C28.1501 26.3088 28.6141 25.8858 29.1014 25.4908C29.8669 25.0208 30.8206 24.9788 31.6243 25.3798C32.0172 25.5678 32.147 25.6844 34.0683 27.602C36.0498 29.5779 36.1062 29.6399 36.3243 30.093C36.7347 30.8429 36.7304 31.7514 36.313 32.4975C36.1006 32.9186 35.9709 33.0709 34.856 34.2102C34.183 34.8983 33.5494 35.5262 33.4479 35.6183C32.5282 36.3797 31.3483 36.7533 30.1579 36.6599C27.9801 36.4613 25.8721 35.7881 23.9821 34.6877C19.7957 32.4695 16.2317 29.2378 13.6159 25.2877C13.0461 24.4609 12.5396 23.5923 12.1006 22.6896C10.9229 20.671 10.3148 18.371 10.3409 16.0343C10.4308 14.8118 11.017 13.6794 11.9633 12.9003Z" stroke="#E4EEF0" stroke-width="2.5" stroke-linecap="round" stroke-linejoin="round"/>
</svg>
