<svg width="16" height="17" viewBox="0 0 16 17" fill="none" xmlns="http://www.w3.org/2000/svg">
<g clip-path="url(#clip0_883_292)">
<path fill-rule="evenodd" clip-rule="evenodd" d="M8 8.47344C6.2268 8.47344 4.78477 7.03824 4.78477 5.27344C4.78477 3.50864 6.2268 2.07344 8 2.07344C9.7732 2.07344 11.2152 3.50864 11.2152 5.27344C11.2152 7.03824 9.7732 8.47344 8 8.47344ZM11.0207 9.01182C12.2964 7.99022 13.0399 6.33819 12.7666 4.52939C12.4491 2.43099 10.6952 0.751831 8.57794 0.507031C5.6561 0.168631 3.17715 2.43264 3.17715 5.27344C3.17715 6.78544 3.88128 8.13262 4.97929 9.01182C2.2817 10.0206 0.31237 12.3894 0.00370725 15.5862C-0.0413055 16.059 0.329254 16.4734 0.806716 16.4734C1.21585 16.4734 1.56471 16.1662 1.60088 15.7606C1.92321 12.1902 4.66982 10.0734 8 10.0734C11.3302 10.0734 14.0768 12.1902 14.3991 15.7606C14.4353 16.1662 14.7842 16.4734 15.1933 16.4734C15.6708 16.4734 16.0413 16.059 15.9963 15.5862C15.6876 12.3894 13.7183 10.0206 11.0207 9.01182Z" fill="#E4EEF0"/>
</g>
<defs>
<clipPath id="clip0_883_292">
<rect width="16" height="16" fill="white" transform="translate(0 0.47345)"/>
</clipPath>
</defs>
</svg>
