<svg width="13" height="13" viewBox="0 0 13 13" fill="none" xmlns="http://www.w3.org/2000/svg">
<path d="M5.72725 9.9545C8.33804 9.9545 10.4545 7.83804 10.4545 5.22725C10.4545 2.61646 8.33804 0.5 5.72725 0.5C3.11646 0.5 1 2.61646 1 5.22725C1 7.83804 3.11646 9.9545 5.72725 9.9545Z" stroke="white" stroke-opacity="0.6" stroke-linejoin="round"/>
<mask id="path-2-inside-1_180_378" fill="white">
<path d="M12.3791 12.3938C12.5212 12.5358 12.7514 12.5358 12.8935 12.3938C13.0354 12.2518 13.0354 12.0215 12.8935 11.8795L12.3791 12.3938ZM12.8935 11.8795L9.25712 8.24316L8.7428 8.75749L12.3791 12.3938L12.8935 11.8795Z"/>
</mask>
<path d="M12.3791 12.3938C12.5212 12.5358 12.7514 12.5358 12.8935 12.3938C13.0354 12.2518 13.0354 12.0215 12.8935 11.8795L12.3791 12.3938ZM12.8935 11.8795L9.25712 8.24316L8.7428 8.75749L12.3791 12.3938L12.8935 11.8795Z" fill="#16232A"/>
<path d="M12.8935 11.8795L12.5399 11.526L12.0256 12.0403L12.3791 12.3938L12.7327 12.7474L13.247 12.2331L12.8935 11.8795ZM12.3791 12.3938L11.672 13.1009L11.6722 13.1011L12.3791 12.3938ZM12.8935 12.3938L13.6004 13.1011L13.6008 13.1008L12.8935 12.3938ZM12.8935 11.8795L13.6008 11.1726L13.6006 11.1724L12.8935 11.8795ZM9.25712 8.24316L9.96423 7.53606L9.25712 6.82895L8.55002 7.53606L9.25712 8.24316ZM8.7428 8.75749L8.03569 8.05038L7.32858 8.75749L8.03569 9.46459L8.7428 8.75749ZM12.3791 12.3938L11.6722 13.1011C12.2047 13.6334 13.0679 13.6334 13.6004 13.1011L12.8935 12.3938L12.1865 11.6865C12.435 11.4382 12.8376 11.4382 13.0861 11.6865L12.3791 12.3938ZM12.8935 12.3938L13.6008 13.1008C14.133 12.5682 14.133 11.7051 13.6008 11.1726L12.8935 11.8795L12.1862 12.5864C11.9379 12.338 11.9379 11.9354 12.1862 11.6869L12.8935 12.3938ZM12.8935 11.8795L13.6006 11.1724L9.96423 7.53606L9.25712 8.24316L8.55002 8.95027L12.1864 12.5866L12.8935 11.8795ZM9.25712 8.24316L8.55002 7.53606L8.03569 8.05038L8.7428 8.75749L9.4499 9.46459L9.96423 8.95027L9.25712 8.24316ZM8.7428 8.75749L8.03569 9.46459L11.672 13.1009L12.3791 12.3938L13.0862 11.6867L9.4499 8.05038L8.7428 8.75749Z" fill="white" fill-opacity="0.6" mask="url(#path-2-inside-1_180_378)"/>
</svg>
