<svg width="60" height="61" viewBox="0 0 60 61" fill="none" xmlns="http://www.w3.org/2000/svg">
<path d="M28.5581 8.27291C29.1734 6.88711 29.4811 6.19421 29.9095 5.98084C30.2816 5.79545 30.7185 5.79545 31.0905 5.98084C31.5189 6.19421 31.8267 6.88711 32.4419 8.27291L37.3425 19.311C37.5246 19.7206 37.6155 19.9255 37.7563 20.0823C37.8807 20.2211 38.033 20.3322 38.2028 20.4082C38.395 20.4941 38.6171 20.5176 39.0615 20.5647L51.0321 21.8331C52.535 21.9924 53.2863 22.072 53.6209 22.4151C53.9114 22.7131 54.0464 23.1304 53.9858 23.543C53.9161 24.018 53.3549 24.5257 52.2323 25.5415L43.2903 33.6319C42.9586 33.9321 42.7925 34.0823 42.6875 34.2651C42.5945 34.4271 42.5363 34.6066 42.5169 34.7923C42.4948 35.0023 42.5411 35.2216 42.6338 35.6605L45.1314 47.4824C45.445 48.9667 45.6018 49.7088 45.3802 50.1341C45.1875 50.5039 44.8341 50.7616 44.4245 50.8313C43.9531 50.9113 43.2985 50.5324 41.9894 49.7744L31.5623 43.7363C31.1753 43.5122 30.9818 43.4004 30.7761 43.3564C30.5941 43.3177 30.4059 43.3177 30.2239 43.3564C30.0182 43.4004 29.8247 43.5122 29.4378 43.7363L19.0107 49.7744C17.7017 50.5324 17.0471 50.9113 16.5756 50.8313C16.1661 50.7616 15.8125 50.5039 15.62 50.1341C15.3984 49.7088 15.5551 48.9667 15.8687 47.4824L18.3662 35.6605C18.4589 35.2216 18.5053 35.0023 18.4833 34.7923C18.4638 34.6066 18.4057 34.4271 18.3126 34.2651C18.2075 34.0823 18.0416 33.9321 17.7097 33.6319L8.76793 25.5415C7.64533 24.5257 7.08402 24.018 7.01423 23.543C6.95364 23.1304 7.08867 22.7131 7.37925 22.4151C7.71379 22.072 8.46522 21.9924 9.9681 21.8331L21.9387 20.5647C22.383 20.5176 22.6051 20.4941 22.7972 20.4082C22.9672 20.3322 23.1193 20.2211 23.2439 20.0823C23.3846 19.9255 23.4755 19.7206 23.6574 19.311L28.5581 8.27291Z" stroke="#FE4819" stroke-width="4" stroke-linecap="round" stroke-linejoin="round"/>
</svg>
