<svg width="32" height="33" viewBox="0 0 32 33" fill="none" xmlns="http://www.w3.org/2000/svg">
<path fill-rule="evenodd" clip-rule="evenodd" d="M16.0001 2.61359C16.5523 2.61359 17.0001 3.06131 17.0001 3.61359V6.28025C17.0001 6.83253 16.5523 7.28025 16.0001 7.28025C15.4478 7.28025 15.0001 6.83253 15.0001 6.28025V3.61359C15.0001 3.06131 15.4478 2.61359 16.0001 2.61359ZM4.89161 5.90171C5.26428 5.49411 5.89681 5.46579 6.30441 5.83845L9.26709 8.54724C9.67469 8.91991 9.70301 9.55243 9.33035 9.96003C8.95768 10.3676 8.32515 10.3959 7.91755 10.0233L4.95487 7.31451C4.54727 6.94184 4.51895 6.30931 4.89161 5.90171ZM27.1086 5.90171C27.4813 6.30931 27.4529 6.94184 27.0453 7.31451L24.0826 10.0233C23.675 10.3959 23.0425 10.3676 22.6698 9.96003C22.2971 9.55243 22.3254 8.91991 22.733 8.54724L25.6958 5.83845C26.1034 5.46579 26.7358 5.49411 27.1086 5.90171ZM16.0001 11.2803C12.8705 11.2803 10.3334 13.8173 10.3334 16.9469C10.3334 20.0765 12.8705 22.6136 16.0001 22.6136C19.1297 22.6136 21.6667 20.0765 21.6667 16.9469C21.6667 13.8173 19.1297 11.2803 16.0001 11.2803ZM8.33341 16.9469C8.33341 12.7127 11.7659 9.28025 16.0001 9.28025C20.2342 9.28025 23.6667 12.7127 23.6667 16.9469C23.6667 21.1811 20.2342 24.6136 16.0001 24.6136C11.7659 24.6136 8.33341 21.1811 8.33341 16.9469ZM1.66675 16.9469C1.66675 16.3947 2.11447 15.9469 2.66675 15.9469H5.33341C5.88569 15.9469 6.33341 16.3947 6.33341 16.9469C6.33341 17.4992 5.88569 17.9469 5.33341 17.9469H2.66675C2.11447 17.9469 1.66675 17.4992 1.66675 16.9469ZM25.6667 16.9469C25.6667 16.3947 26.1145 15.9469 26.6667 15.9469H29.3334C29.8857 15.9469 30.3334 16.3947 30.3334 16.9469C30.3334 17.4992 29.8857 17.9469 29.3334 17.9469H26.6667C26.1145 17.9469 25.6667 17.4992 25.6667 16.9469ZM22.7007 23.6472C23.0913 23.2567 23.7245 23.2567 24.115 23.6472L27.0777 26.6103C27.4682 27.0008 27.4681 27.634 27.0775 28.0245C26.687 28.4151 26.0538 28.4149 25.6634 28.0244L22.7007 25.0613C22.3102 24.6708 22.3102 24.0377 22.7007 23.6472ZM9.29964 23.6473C9.69016 24.0379 9.69016 24.6711 9.29964 25.0616L6.33667 28.0245C5.94615 28.4151 5.31299 28.4151 4.92245 28.0245C4.53193 27.634 4.53193 27.0008 4.92245 26.6104L7.88543 23.6473C8.27595 23.2568 8.90911 23.2568 9.29964 23.6473ZM16.0001 26.6136C16.5523 26.6136 17.0001 27.0613 17.0001 27.6136V30.2803C17.0001 30.8325 16.5523 31.2803 16.0001 31.2803C15.4478 31.2803 15.0001 30.8325 15.0001 30.2803V27.6136C15.0001 27.0613 15.4478 26.6136 16.0001 26.6136Z" fill="#E4EEF0"/>
</svg>
