<svg width="61" height="62" viewBox="0 0 61 62" fill="none" xmlns="http://www.w3.org/2000/svg">
<path d="M60.9998 43.9197C60.9998 40.3503 59.9309 36.9037 57.9084 33.9525C56.4537 31.8297 54.5804 30.0669 52.4095 28.757C54.9654 26.3365 56.5646 22.9155 56.5646 19.1258C56.5646 11.808 50.611 5.85449 43.2935 5.85449C38.9543 5.85449 34.8897 8.00048 32.4207 11.5232C31.7933 11.4319 31.1524 11.3826 30.4999 11.3826C29.8475 11.3826 29.2067 11.432 28.5793 11.5232C26.1102 8.00048 22.0455 5.85449 17.7065 5.85449C10.3888 5.85449 4.43527 11.808 4.43527 19.1258C4.43527 22.9155 6.03444 26.3365 8.5905 28.757C6.41946 30.0668 4.54614 31.8297 3.09157 33.9523C1.06906 36.9037 0 40.3503 0 43.9197V51.3015H12.7936V56.8294H48.2066V51.3015H61V43.9197H60.9998ZM43.2935 9.12997C48.8052 9.12997 53.2892 13.614 53.2892 19.1259C53.2892 24.6378 48.8052 29.1219 43.2935 29.1219C43.1947 29.1219 43.096 29.1204 42.9971 29.1174C43.0046 29.0965 43.0108 29.075 43.0182 29.0541C43.1888 28.5703 43.3311 28.0734 43.4453 27.5659C43.4533 27.5299 43.4625 27.4942 43.4702 27.458C43.4998 27.3211 43.5259 27.1829 43.5512 27.0443C43.5632 26.9788 43.5755 26.9135 43.5864 26.8478C43.6071 26.7242 43.6258 26.6 43.6429 26.4754C43.6549 26.3888 43.6657 26.3021 43.676 26.2153C43.689 26.1053 43.7016 25.9951 43.7119 25.8842C43.7224 25.771 43.7302 25.6577 43.7378 25.5442C43.7437 25.4548 43.751 25.3657 43.7551 25.2758C43.7641 25.0831 43.7692 24.89 43.7699 24.6967C43.7699 24.6825 43.771 24.6686 43.771 24.6542C43.771 24.6465 43.7704 24.6388 43.7704 24.6311C43.77 24.4337 43.7643 24.2375 43.7555 24.042C43.7528 23.9852 43.7494 23.9285 43.7461 23.8718C43.7365 23.7056 43.7238 23.5402 43.7083 23.3756C43.7047 23.3383 43.7017 23.301 43.698 23.2638C43.2031 18.4803 40.1811 14.386 35.8217 12.4922C37.7002 10.3818 40.4174 9.12997 43.2935 9.12997ZM27.0413 15.2748C27.0733 15.2632 27.1055 15.2522 27.1375 15.2407C27.2369 15.2052 27.3371 15.1715 27.4378 15.1389C27.5141 15.1145 27.5909 15.0909 27.6682 15.0683C27.7244 15.0517 27.7807 15.0359 27.8372 15.0201C27.9381 14.9925 28.0395 14.9654 28.1419 14.9407C28.8985 14.757 29.6875 14.6572 30.4996 14.6572C31.3124 14.6579 32.1017 14.7578 32.8585 14.9415C32.9602 14.9661 33.0609 14.993 33.1613 15.0205C33.2186 15.0364 33.2759 15.0524 33.3327 15.0693C33.4091 15.0917 33.485 15.115 33.5605 15.139C33.6626 15.172 33.7639 15.206 33.8645 15.242C33.8954 15.253 33.9264 15.2635 33.9572 15.2748C37.3001 16.5111 39.8066 19.4862 40.3739 23.0967C40.3783 23.1256 40.3825 23.1546 40.3868 23.1835C40.405 23.3059 40.4202 23.4292 40.4338 23.5528C40.4387 23.5984 40.4439 23.6437 40.4484 23.6894C40.4592 23.8022 40.4672 23.9159 40.4744 24.0299C40.4774 24.0787 40.4814 24.1273 40.4837 24.1763C40.4906 24.3219 40.4944 24.4683 40.4949 24.6155C40.4949 24.6283 40.4957 24.6407 40.4957 24.6535C40.4957 24.6594 40.4954 24.6655 40.4954 24.6714C40.495 24.8138 40.4908 24.9553 40.4846 25.0963C40.4826 25.1407 40.4806 25.1851 40.478 25.2293C40.4703 25.3656 40.4602 25.5012 40.4471 25.6358C40.442 25.6878 40.4351 25.7398 40.4292 25.7917C40.4192 25.8788 40.4081 25.9658 40.396 26.0522C40.3865 26.1195 40.377 26.187 40.3662 26.254C40.3496 26.356 40.3313 26.4574 40.3116 26.5584C40.2941 26.6483 40.2749 26.7379 40.255 26.8273C40.243 26.8812 40.2306 26.9351 40.2176 26.9886C40.1857 27.1215 40.1506 27.2534 40.1133 27.385C40.0984 27.4372 40.0845 27.4898 40.0688 27.5415C40.046 27.6168 40.0214 27.6915 39.997 27.7662C39.9774 27.826 39.9572 27.8854 39.9364 27.9447C39.9129 28.012 39.8896 28.0795 39.8647 28.1463C39.8223 28.2598 39.7777 28.3723 39.7314 28.4838C39.7108 28.5336 39.6888 28.5829 39.6674 28.6325C39.6269 28.7254 39.5853 28.8177 39.5421 28.9091C39.537 28.9199 39.5319 28.9307 39.5269 28.9415C39.5113 28.974 39.4959 29.0066 39.48 29.039C39.4315 29.1379 39.3811 29.2357 39.3294 29.3326C39.3092 29.3703 39.2897 29.4084 39.2691 29.4459C39.2678 29.4484 39.2665 29.4507 39.2652 29.453C39.2085 29.5562 39.1494 29.6577 39.0893 29.7586C39.0654 29.7985 39.0418 29.8387 39.0174 29.8781C38.9519 29.9844 38.8846 30.0895 38.8153 30.193C38.7722 30.2574 38.7272 30.3205 38.6826 30.3838C38.6448 30.4375 38.6071 30.4914 38.5683 30.5443C38.5181 30.6128 38.4668 30.6804 38.4147 30.7477C38.3793 30.7934 38.3437 30.8388 38.3076 30.884C38.2526 30.9528 38.1971 31.0212 38.1404 31.0885C38.1052 31.1303 38.069 31.1712 38.0331 31.2123C37.9742 31.28 37.9154 31.3478 37.8548 31.4138C37.8188 31.4529 37.7814 31.4906 37.7448 31.5292C37.6462 31.6332 37.5453 31.7349 37.4424 31.8346C37.3814 31.8938 37.3206 31.953 37.258 32.0105C37.2148 32.0503 37.1704 32.089 37.1264 32.1281C37.0546 32.1918 36.9824 32.2549 36.9089 32.3164C36.8716 32.3477 36.8339 32.3787 36.7961 32.4095C36.7071 32.4818 36.6171 32.5527 36.5255 32.6222C36.5006 32.641 36.4761 32.6602 36.451 32.6788C34.7871 33.9158 32.7276 34.649 30.4998 34.649C28.2717 34.649 26.2119 33.9156 24.548 32.6784C24.5234 32.66 24.4994 32.6412 24.475 32.6227C24.3831 32.5531 24.2925 32.4817 24.2033 32.409C24.1658 32.3783 24.1283 32.3477 24.0913 32.3166C24.0174 32.2547 23.945 32.1913 23.873 32.1274C23.8292 32.0885 23.785 32.0502 23.742 32.0105C23.6792 31.9529 23.6183 31.8934 23.5571 31.8343C23.4537 31.7342 23.3527 31.6322 23.2538 31.5279C23.2176 31.4897 23.1806 31.4526 23.145 31.4139C23.0843 31.3478 23.0255 31.2798 22.9665 31.2122C22.9307 31.1711 22.8946 31.1303 22.8594 31.0885C22.8026 31.0212 22.7472 30.9528 22.6922 30.8841C22.6562 30.8389 22.6203 30.7936 22.585 30.7477C22.533 30.6806 22.4818 30.6129 22.4315 30.5445C22.3927 30.4914 22.3549 30.4374 22.317 30.3835C22.2725 30.3203 22.2276 30.2574 22.1847 30.1932C22.1151 30.0892 22.0475 29.9838 21.9818 29.8771C21.9577 29.838 21.9345 29.7985 21.9109 29.7591C21.8498 29.6567 21.79 29.5539 21.7325 29.4492C21.7114 29.4107 21.6914 29.3716 21.6706 29.3329C21.6189 29.2357 21.5683 29.1376 21.5197 29.0385C21.5023 29.0033 21.4854 28.9678 21.4686 28.9324C21.4659 28.927 21.4635 28.9216 21.461 28.9162C21.4157 28.8205 21.3723 28.7239 21.3298 28.6265C21.3097 28.5801 21.2892 28.5339 21.2699 28.4874C21.2224 28.3734 21.1771 28.2585 21.1337 28.1425C21.1102 28.08 21.0886 28.0168 21.0665 27.9537C21.0437 27.889 21.0218 27.8238 21.0004 27.7585C20.9773 27.6878 20.954 27.617 20.9324 27.5459C20.9001 27.4397 20.8697 27.3327 20.841 27.2251C20.8209 27.1496 20.8027 27.0735 20.7842 26.9975C20.7698 26.9377 20.7558 26.8779 20.7426 26.8178C20.7262 26.7441 20.7097 26.6706 20.6949 26.5966C20.6722 26.4813 20.6514 26.3653 20.6327 26.2487C20.6225 26.1859 20.6137 26.1228 20.6047 26.0599C20.5914 25.9667 20.5795 25.8731 20.5688 25.7791C20.5636 25.7327 20.5575 25.6864 20.5528 25.64C20.5392 25.502 20.5289 25.3629 20.521 25.2234C20.5187 25.1833 20.5169 25.1432 20.5151 25.103C20.5084 24.9538 20.5036 24.8042 20.5036 24.6535C20.5036 24.492 20.5082 24.3317 20.5159 24.172C20.5181 24.1286 20.5217 24.0856 20.5241 24.0423C20.5313 23.9225 20.54 23.8029 20.5515 23.684C20.5554 23.6426 20.5601 23.6013 20.5646 23.56C20.5787 23.4313 20.5945 23.3033 20.6135 23.176C20.6171 23.1513 20.6207 23.1264 20.6247 23.1017C21.1902 19.489 23.6971 16.5119 27.0413 15.2748ZM7.71059 19.1259C7.71059 13.6142 12.1947 9.12997 17.7065 9.12997C20.5827 9.12997 23.2998 10.382 25.1783 12.4919C20.8174 14.3864 17.7948 18.4826 17.3014 23.268C17.2979 23.3005 17.2955 23.3331 17.2924 23.3656C17.276 23.5361 17.2631 23.7073 17.2532 23.8794C17.2503 23.9318 17.247 23.984 17.2445 24.0366C17.2352 24.2415 17.2288 24.447 17.2288 24.654C17.2288 24.863 17.2349 25.0714 17.2447 25.2797C17.2486 25.3636 17.2555 25.4466 17.2609 25.53C17.2689 25.6499 17.2771 25.7697 17.2883 25.8893C17.2981 25.9956 17.3102 26.1012 17.3227 26.2068C17.3335 26.2989 17.3449 26.3906 17.3577 26.4823C17.3744 26.6026 17.3924 26.7225 17.4122 26.8419C17.4242 26.9128 17.4373 26.9836 17.4502 27.0543C17.4748 27.1879 17.4999 27.3212 17.5284 27.4534C17.5378 27.497 17.5487 27.5402 17.5585 27.5836C17.6697 28.0754 17.8077 28.5569 17.9722 29.0264C17.9826 29.0567 17.9918 29.0873 18.0025 29.1174C17.9037 29.1204 17.8048 29.1219 17.7062 29.1219C12.1947 29.1217 7.71059 24.6376 7.71059 19.1259ZM15.5394 40.0062C15.5034 40.063 15.469 40.1209 15.4336 40.178C15.3588 40.2989 15.2846 40.4201 15.2129 40.5424C15.1727 40.6107 15.1341 40.6795 15.0951 40.7482C15.0306 40.8617 14.9669 40.9756 14.905 41.0904C14.866 41.1626 14.8277 41.2351 14.7897 41.3077C14.7301 41.4218 14.6719 41.5366 14.615 41.6517C14.5791 41.7241 14.5434 41.7963 14.5087 41.8691C14.4507 41.9904 14.3949 42.1127 14.3397 42.2352C14.3097 42.3019 14.2789 42.3681 14.2499 42.435C14.1861 42.5818 14.1251 42.7296 14.0654 42.878C14.0478 42.9214 14.0292 42.9643 14.0121 43.0077C13.9363 43.2005 13.8638 43.3945 13.795 43.5896C13.7793 43.6343 13.7652 43.6795 13.7496 43.7242C13.6979 43.8745 13.6474 44.0254 13.5998 44.1768C13.578 44.2464 13.5578 44.3164 13.5369 44.3861C13.4984 44.5145 13.4606 44.6431 13.425 44.7725C13.4039 44.8494 13.3838 44.9266 13.3636 45.0039C13.3312 45.128 13.3001 45.2525 13.2706 45.3774C13.2518 45.4565 13.2334 45.5356 13.2159 45.6149C13.1877 45.7415 13.1614 45.8685 13.136 45.9958C13.1208 46.0723 13.105 46.1488 13.0908 46.2256C13.0651 46.3641 13.042 46.5033 13.0195 46.6427C13.0091 46.7082 12.9974 46.7734 12.9876 46.8389C12.9572 47.0436 12.9295 47.2488 12.9062 47.4549C12.9059 47.4574 12.9057 47.4599 12.9056 47.4623C12.8844 47.6498 12.8663 47.8377 12.851 48.0262H3.27532V43.9197C3.27532 38.3094 6.50052 33.2728 11.5534 30.8789C13.3941 31.8464 15.4865 32.3972 17.7064 32.3972C18.3483 32.3972 18.9923 32.3497 19.6313 32.2557C19.7308 32.3977 19.832 32.5382 19.9369 32.6761C19.9722 32.7224 20.0089 32.7676 20.0449 32.8135C20.1484 32.9458 20.2534 33.0766 20.3618 33.2049C20.4062 33.2574 20.4517 33.3089 20.4969 33.3608C20.5985 33.4774 20.7016 33.5925 20.8071 33.7053C20.8625 33.7648 20.9188 33.8232 20.9751 33.8817C21.0716 33.9811 21.1694 34.079 21.2688 34.1755C21.3061 34.2117 21.3413 34.25 21.379 34.2859C21.2367 34.3719 21.0957 34.46 20.956 34.5499C20.9332 34.5644 20.9109 34.5798 20.8883 34.5946C20.7486 34.6853 20.6104 34.778 20.4735 34.8725C20.4262 34.9052 20.379 34.9383 20.3319 34.9714C20.2099 35.0574 20.0892 35.1448 19.9694 35.2338C19.9316 35.2619 19.8933 35.2894 19.8558 35.3179C19.7035 35.4331 19.553 35.5503 19.4045 35.6702C19.372 35.6964 19.3403 35.7234 19.3078 35.75C19.1896 35.8467 19.0725 35.9452 18.9569 36.0451C18.912 36.0837 18.8675 36.1227 18.8229 36.1618C18.7071 36.2638 18.5928 36.3673 18.4797 36.4723C18.4502 36.4997 18.4201 36.5265 18.3907 36.5542C18.2519 36.6849 18.1151 36.818 17.9803 36.9535C17.9453 36.9887 17.9111 37.0245 17.8764 37.0599C17.7732 37.1652 17.6712 37.2717 17.5704 37.3796C17.5305 37.4225 17.4905 37.4654 17.4509 37.5088C17.3376 37.6326 17.2259 37.758 17.116 37.8853C17.0988 37.9053 17.0809 37.9246 17.0637 37.9447C16.9385 38.091 16.816 38.24 16.6951 38.3905C16.6614 38.4324 16.6285 38.475 16.5952 38.5174C16.5043 38.6329 16.4147 38.7495 16.3266 38.8672C16.2926 38.9128 16.2583 38.958 16.2248 39.0038C16.1095 39.161 15.9957 39.3196 15.8851 39.4809C15.7664 39.6541 15.6514 39.8295 15.5394 40.0062ZM16.0689 53.5542V51.3016V49.4478C16.0689 49.266 16.0723 49.0849 16.079 48.9043C16.0812 48.8448 16.0859 48.7859 16.0888 48.7266C16.0947 48.6061 16.1003 48.4854 16.1092 48.3653C16.1146 48.2924 16.1227 48.2202 16.1293 48.1475C16.1388 48.0417 16.1473 47.9358 16.1591 47.8306C16.1678 47.7537 16.1791 47.6772 16.1889 47.6004C16.2017 47.5003 16.2136 47.4001 16.2284 47.3005C16.2403 47.2213 16.2547 47.1427 16.2678 47.0637C16.2839 46.9678 16.2988 46.8715 16.3168 46.776C16.332 46.6952 16.3497 46.6153 16.3663 46.5349C16.3853 46.4422 16.4034 46.3492 16.4242 46.2572C16.4426 46.1759 16.4635 46.0955 16.4832 46.0146C16.5053 45.9246 16.5264 45.834 16.5502 45.7444C16.5718 45.663 16.5957 45.5825 16.6186 45.5017C16.6435 45.4138 16.6678 45.3257 16.6943 45.2384C16.719 45.1572 16.7462 45.0766 16.7722 44.9958C16.8001 44.9102 16.8271 44.8244 16.8564 44.7394C16.8843 44.659 16.9142 44.5792 16.9434 44.4995C16.9742 44.4153 17.0043 44.3308 17.0366 44.2473C17.0674 44.1678 17.1001 44.0894 17.132 44.0105C17.1656 43.9281 17.1987 43.8452 17.2337 43.7635C17.2676 43.6847 17.3033 43.6068 17.3385 43.5288C17.3747 43.4484 17.4106 43.3677 17.4483 43.2881C17.4851 43.2103 17.5238 43.1335 17.5619 43.0564C17.6009 42.9778 17.6394 42.899 17.6797 42.8212C17.7195 42.7446 17.7609 42.6689 17.802 42.5931C17.8436 42.5163 17.8847 42.4395 17.9276 42.3635C17.9702 42.2881 18.0144 42.214 18.0581 42.1394C18.1024 42.0644 18.1462 41.9893 18.1919 41.9149C18.2373 41.8411 18.2841 41.7683 18.3308 41.6953C18.3776 41.6221 18.4242 41.5489 18.4723 41.4765C18.5204 41.4041 18.5699 41.3327 18.6194 41.2613C18.6687 41.1901 18.7178 41.1189 18.7682 41.0484C18.819 40.9777 18.8712 40.9079 18.9235 40.838C18.9752 40.7687 19.0268 40.6994 19.0797 40.6312C19.1331 40.5622 19.1878 40.4942 19.2425 40.4261C19.2967 40.3587 19.3511 40.2913 19.4064 40.2249C19.4623 40.158 19.5193 40.092 19.5762 40.0262C19.6331 39.9605 19.6901 39.8949 19.7482 39.83C19.8063 39.7652 19.8658 39.7013 19.9251 39.6374C19.9843 39.5737 20.0436 39.5103 20.1041 39.4478C20.1647 39.3849 20.2264 39.323 20.2883 39.2613C20.35 39.1995 20.4121 39.1381 20.475 39.0773C20.5377 39.0169 20.6014 38.9573 20.6655 38.8979C20.7296 38.8382 20.7942 38.7788 20.8595 38.7202C20.9247 38.6619 20.9905 38.6044 21.0569 38.5472C21.1233 38.4898 21.1903 38.4326 21.258 38.3763C21.3253 38.3203 21.3932 38.2651 21.4617 38.2102C21.5306 38.1549 21.6001 38.1 21.6702 38.0458C21.7394 37.9924 21.8094 37.9397 21.8796 37.8873C21.951 37.834 22.0229 37.7815 22.0956 37.7296C22.1667 37.6786 22.2384 37.6285 22.3106 37.5787C22.3847 37.5278 22.459 37.4775 22.534 37.4279C22.6069 37.3797 22.6804 37.3321 22.7543 37.2851C22.8308 37.2365 22.9077 37.1885 22.9852 37.1413C23.0599 37.0958 23.135 37.0507 23.2107 37.0065C23.2893 36.9605 23.3686 36.9151 23.4483 36.8704C23.5248 36.8275 23.6018 36.7851 23.6792 36.7435C23.7603 36.7 23.842 36.6572 23.9242 36.615C24.0022 36.5748 24.0805 36.5354 24.1594 36.4966C24.2215 36.4661 24.2842 36.4366 24.3469 36.407C26.1875 37.3745 28.2802 37.9251 30.4999 37.9251C32.7198 37.9251 34.8124 37.3745 36.6529 36.407C36.7152 36.4365 36.7774 36.4658 36.839 36.4959C36.9189 36.5352 36.998 36.5752 37.0769 36.6156C37.1581 36.6574 37.239 36.6996 37.3193 36.7427C37.3976 36.7848 37.4754 36.8277 37.5527 36.8711C37.6314 36.9153 37.7097 36.96 37.7873 37.0055C37.8641 37.0504 37.9403 37.0961 38.016 37.1423C38.0924 37.189 38.1683 37.2361 38.2436 37.2841C38.3186 37.3318 38.3929 37.3799 38.4668 37.4289C38.541 37.4778 38.6145 37.5276 38.6876 37.5779C38.7604 37.6282 38.833 37.6788 38.9049 37.7302C38.9768 37.7816 39.0478 37.8337 39.1186 37.8864C39.1897 37.9392 39.2602 37.9924 39.3302 38.0464C39.3996 38.1002 39.4684 38.1545 39.5368 38.2094C39.6056 38.2646 39.6741 38.3201 39.7419 38.3764C39.8092 38.4324 39.8757 38.4893 39.9418 38.5464C40.0085 38.6039 40.0748 38.6617 40.1403 38.7205C40.2052 38.7786 40.2692 38.8376 40.3329 38.8967C40.3974 38.9566 40.4618 39.0169 40.5252 39.078C40.5876 39.1381 40.649 39.199 40.7101 39.2601C40.7723 39.3223 40.8345 39.3847 40.8956 39.4479C40.9556 39.5102 41.0147 39.5731 41.0735 39.6363C41.1334 39.7006 41.1932 39.7652 41.2518 39.8305C41.3094 39.8947 41.3659 39.9597 41.4223 40.0249C41.4798 40.0912 41.5372 40.1577 41.5934 40.2252C41.6486 40.2912 41.7025 40.3582 41.7564 40.4251C41.8114 40.4936 41.8664 40.5619 41.9201 40.6313C41.9729 40.6993 42.0241 40.7682 42.0755 40.8372C42.1279 40.9073 42.1804 40.9775 42.2315 41.0486C42.2817 41.1185 42.3307 41.1896 42.3797 41.2605C42.4293 41.3322 42.4791 41.404 42.5274 41.4767C42.5752 41.5486 42.6214 41.6213 42.6679 41.694C42.7149 41.7675 42.7621 41.8409 42.8077 41.9152C42.8529 41.9888 42.8965 42.0635 42.9404 42.1378C42.9846 42.2128 43.0292 42.2876 43.0719 42.3635C43.1146 42.4391 43.1556 42.5158 43.197 42.5921C43.2383 42.6682 43.2799 42.7442 43.3197 42.821C43.36 42.8987 43.3983 42.9774 43.4373 43.0559C43.4754 43.133 43.5142 43.21 43.5511 43.2879C43.5887 43.3675 43.6244 43.4479 43.6605 43.5282C43.6958 43.6066 43.7317 43.6846 43.7656 43.7637C43.8005 43.8447 43.8331 43.9268 43.8665 44.0087C43.8989 44.0883 43.932 44.1675 43.9629 44.2478C43.995 44.3308 44.025 44.4148 44.0556 44.4986C44.0849 44.5787 44.1149 44.6585 44.1428 44.7392C44.1722 44.8245 44.1994 44.9109 44.2273 44.9968C44.2533 45.0772 44.2803 45.1573 44.3049 45.2384C44.3316 45.3257 44.3557 45.4139 44.3807 45.5019C44.4036 45.5826 44.4276 45.663 44.4492 45.7444C44.4729 45.834 44.494 45.9244 44.5161 46.0146C44.536 46.0954 44.5568 46.1759 44.5751 46.2572C44.5959 46.3492 44.6139 46.4421 44.6331 46.5346C44.6496 46.615 44.6673 46.6951 44.6825 46.776C44.7004 46.8706 44.7151 46.9661 44.7312 47.0614C44.7444 47.1412 44.7592 47.2204 44.7711 47.3007C44.7859 47.3994 44.7977 47.499 44.8104 47.5982C44.8204 47.6757 44.8319 47.7527 44.8406 47.8305C44.8524 47.9356 44.8609 48.0416 44.8704 48.1474C44.8769 48.2201 44.8851 48.2923 44.8905 48.3652C44.8995 48.4852 44.9049 48.6061 44.9108 48.7268C44.9138 48.7859 44.9185 48.8448 44.9207 48.9041C44.9274 49.0847 44.9308 49.2659 44.9308 49.4477V51.3013V53.5542H16.0689ZM48.1496 48.0262C48.1175 47.6272 48.0713 47.2308 48.0127 46.8367C48.0034 46.7743 47.9922 46.7124 47.9823 46.6502C47.9595 46.5076 47.9357 46.3653 47.9094 46.2234C47.8955 46.1488 47.8802 46.0744 47.8653 45.9999C47.8396 45.8704 47.8128 45.7411 47.7841 45.6124C47.7667 45.5348 47.7487 45.4572 47.7304 45.3799C47.7004 45.2534 47.669 45.1275 47.6362 45.0019C47.6164 44.9258 47.5966 44.8498 47.5756 44.7738C47.5398 44.6431 47.5014 44.5131 47.4625 44.3832C47.4418 44.3147 47.4222 44.2461 47.4007 44.1778C47.3524 44.0241 47.3013 43.8711 47.2487 43.7185C47.234 43.6759 47.2206 43.6328 47.2055 43.5902C47.1364 43.3945 47.0639 43.2 46.9877 43.0066C46.9713 42.9651 46.9535 42.9242 46.9368 42.8828C46.8763 42.7326 46.8144 42.5828 46.7498 42.4341C46.7211 42.3681 46.6908 42.3029 46.6613 42.2372C46.6056 42.1134 46.5493 41.9901 46.4907 41.8676C46.4564 41.7959 46.4211 41.7246 46.3859 41.6534C46.3284 41.5371 46.2696 41.4213 46.2095 41.3062C46.1718 41.2341 46.134 41.1624 46.0953 41.0908C46.0331 40.9757 45.9692 40.8614 45.9044 40.7474C45.8654 40.679 45.8269 40.6105 45.7871 40.5426C45.7151 40.4196 45.6406 40.2979 45.5652 40.1764C45.5302 40.1197 45.4961 40.0626 45.4604 40.0064C45.3482 39.8297 45.2333 39.6543 45.1144 39.4809C45.0037 39.3194 44.8899 39.1609 44.7746 39.0037C44.7412 38.9581 44.7071 38.9131 44.6734 38.8679C44.5848 38.7495 44.4949 38.6326 44.4036 38.5166C44.3707 38.4748 44.3381 38.4326 44.3047 38.3912C44.1837 38.2402 44.0607 38.0908 43.9351 37.9442C43.9187 37.9253 43.9019 37.9067 43.8855 37.8877C43.7748 37.7595 43.6621 37.6331 43.548 37.5083C43.5087 37.4654 43.4692 37.423 43.4296 37.3804C43.3284 37.2718 43.2257 37.1646 43.1218 37.0588C43.0876 37.0239 43.054 36.9887 43.0195 36.9541C42.8844 36.8185 42.7471 36.6849 42.6079 36.5539C42.5793 36.5269 42.5498 36.5007 42.521 36.4738C42.4072 36.3682 42.2922 36.2642 42.1759 36.1617C42.1317 36.1227 42.0872 36.084 42.0426 36.0454C41.9267 35.9453 41.8096 35.8469 41.6912 35.75C41.6589 35.7236 41.6273 35.6966 41.5949 35.6704C41.4465 35.5505 41.296 35.4332 41.1439 35.3183C41.1059 35.2896 41.0672 35.2618 41.0291 35.2334C40.9099 35.145 40.7898 35.0579 40.6683 34.9724C40.6206 34.9388 40.573 34.9054 40.5252 34.8723C40.3896 34.7788 40.2528 34.6871 40.1146 34.5974C40.0904 34.5816 40.0666 34.5653 40.0424 34.5497C39.9029 34.4601 39.7624 34.3722 39.6202 34.2864C39.6569 34.2515 39.6913 34.2143 39.7275 34.1789C39.829 34.0807 39.9287 33.9808 40.027 33.8793C40.0819 33.8226 40.1364 33.7658 40.1901 33.7081C40.2974 33.5935 40.4019 33.4766 40.505 33.3581C40.5489 33.3079 40.593 33.2579 40.636 33.2068C40.7459 33.0768 40.8527 32.944 40.9577 32.8095C40.9921 32.7656 41.0273 32.7224 41.061 32.678C41.1663 32.5396 41.268 32.3985 41.3681 32.256C42.0071 32.3498 42.651 32.3973 43.293 32.3973C45.5128 32.3973 47.6054 31.8468 49.446 30.8791C54.499 33.273 57.724 38.3096 57.724 43.9199V48.0262H48.1496Z" fill="#FE4819"/>
</svg>
