<svg width="25" height="25" viewBox="0 0 25 25" fill="none" xmlns="http://www.w3.org/2000/svg">
<path fill-rule="evenodd" clip-rule="evenodd" d="M6.25 1.56714C4.96508 1.56714 3.90625 2.62597 3.90625 3.91089V21.0984C3.90625 22.3833 4.96508 23.4421 6.25 23.4421H18.75C20.0349 23.4421 21.0938 22.3833 21.0938 21.0984V3.91089C21.0938 2.62597 20.0349 1.56714 18.75 1.56714H6.25ZM6.25 3.12964H18.75C19.1963 3.12964 19.5312 3.46456 19.5312 3.91089V21.0984C19.5312 21.5447 19.1963 21.8796 18.75 21.8796H6.25C5.80367 21.8796 5.46875 21.5447 5.46875 21.0984V3.91089C5.46875 3.46456 5.80367 3.12964 6.25 3.12964Z" fill="#E4EEF0"/>
<path fill-rule="evenodd" clip-rule="evenodd" d="M8.59375 4.69214C7.74164 4.69214 7.03125 5.40253 7.03125 6.25464V7.81714C7.03125 8.66925 7.74164 9.37964 8.59375 9.37964H16.4062C17.2584 9.37964 17.9688 8.66925 17.9688 7.81714V6.25464C17.9688 5.40253 17.2584 4.69214 16.4062 4.69214H8.59375ZM8.59375 6.25464H16.4062V7.81714H8.59375V6.25464Z" fill="#E4EEF0"/>
<path fill-rule="evenodd" clip-rule="evenodd" d="M14.8438 10.9421C13.9916 10.9421 13.2812 11.6525 13.2812 12.5046V14.0671C13.2812 14.9192 13.9916 15.6296 14.8438 15.6296H16.4062C17.2584 15.6296 17.9688 14.9192 17.9688 14.0671V12.5046C17.9688 11.6525 17.2584 10.9421 16.4062 10.9421H14.8438ZM14.8438 12.5046H16.4062V14.0671H14.8438V12.5046Z" fill="#E4EEF0"/>
<path fill-rule="evenodd" clip-rule="evenodd" d="M8.59375 10.9421C7.74164 10.9421 7.03125 11.6525 7.03125 12.5046V14.0671C7.03125 14.9192 7.74164 15.6296 8.59375 15.6296H10.1562C11.0084 15.6296 11.7188 14.9192 11.7188 14.0671V12.5046C11.7188 11.6525 11.0084 10.9421 10.1562 10.9421H8.59375ZM8.59375 12.5046H10.1562V14.0671H8.59375V12.5046Z" fill="#E4EEF0"/>
<path fill-rule="evenodd" clip-rule="evenodd" d="M14.8438 16.4109C13.9916 16.4109 13.2812 17.1213 13.2812 17.9734V19.5359C13.2812 20.388 13.9916 21.0984 14.8438 21.0984H16.4062C17.2584 21.0984 17.9688 20.388 17.9688 19.5359V17.9734C17.9688 17.1213 17.2584 16.4109 16.4062 16.4109H14.8438ZM14.8438 17.9734H16.4062V19.5359H14.8438V17.9734Z" fill="#E4EEF0"/>
<path fill-rule="evenodd" clip-rule="evenodd" d="M8.59375 16.4109C7.74164 16.4109 7.03125 17.1213 7.03125 17.9734V19.5359C7.03125 20.388 7.74164 21.0984 8.59375 21.0984H10.1562C11.0084 21.0984 11.7188 20.388 11.7188 19.5359V17.9734C11.7188 17.1213 11.0084 16.4109 10.1562 16.4109H8.59375ZM8.59375 17.9734H10.1562V19.5359H8.59375V17.9734Z" fill="#E4EEF0"/>
</svg>
