<svg width="27" height="27" viewBox="0 0 27 27" fill="none" xmlns="http://www.w3.org/2000/svg">
<rect width="27" height="27" rx="5" fill="#1F5B65"/>
<path fill-rule="evenodd" clip-rule="evenodd" d="M17 11C15.3432 11 14 12.3431 14 14C14 15.6568 15.3432 17 17 17C18.6568 17 20 15.6568 20 14C20 12.3431 18.6568 11 17 11ZM13.6458 17C12.9333 16.2039 12.5 15.1525 12.5 14C12.5 12.8475 12.9333 11.7961 13.6458 11H11C9.34314 11 8 12.3431 8 14C8 15.6568 9.34314 17 11 17H13.6458ZM6.5 14C6.5 11.5147 8.51472 9.5 11 9.5H17C19.4853 9.5 21.5 11.5147 21.5 14C21.5 16.4853 19.4853 18.5 17 18.5H11C8.51472 18.5 6.5 16.4853 6.5 14Z" fill="white"/>
</svg>
