<svg width="81" height="81" viewBox="0 0 81 81" fill="none" xmlns="http://www.w3.org/2000/svg">
<rect width="81" height="81" rx="40.5" fill="white" fill-opacity="0.4"/>
<rect x="0.5" y="0.5" width="80" height="80" rx="40" stroke="white" stroke-opacity="0.4"/>
<path d="M40.1985 43.3893C40.2013 43.3861 40.204 43.3826 40.2068 43.3801C40.2037 43.3826 40.2006 43.3854 40.1978 43.3883L40.1985 43.3893Z" fill="white"/>
<path d="M41.993 49.2858C41.8992 49.2607 41.8064 49.232 41.7139 49.2037L41.7115 49.2047C41.8002 49.232 41.8944 49.2596 41.993 49.2858Z" fill="white"/>
<path d="M36.2688 44.2255H36.2674C36.3373 44.4102 36.4373 44.6197 36.5355 44.8098H36.54C36.4427 44.6187 36.3523 44.424 36.2688 44.2255Z" fill="white"/>
<path d="M36.5355 44.8098C36.6352 45.0023 36.7327 45.1739 36.7947 45.2812C36.7047 45.1269 36.6215 44.969 36.54 44.8098H36.5355Z" fill="white"/>
<path d="M36.8621 45.3948H36.8641C36.8476 45.3667 36.8297 45.3408 36.8135 45.3127C36.8435 45.3639 36.8621 45.3948 36.8621 45.3948Z" fill="white"/>
<path d="M41.5698 49.1601C41.3537 49.0904 41.1421 49.0101 40.9343 48.9234L40.9312 48.9248C40.9518 48.9337 41.1986 49.0395 41.5698 49.1601Z" fill="white"/>
<path d="M41.7115 49.2047L41.7139 49.2037C41.6775 49.193 41.6412 49.1832 41.6051 49.1711C41.6398 49.1829 41.6751 49.1944 41.7115 49.2047Z" fill="white"/>
<path d="M49.3237 32H44.1409C43.6933 32 43.2537 32.0354 42.8243 32.1037C42.7309 32.1186 42.6391 32.1394 42.5467 32.1571C44.1374 33.1006 45.4464 34.4946 46.3086 36.1713H49.5901C52.0972 36.1713 54.1293 38.2724 54.1293 40.8635C54.1293 43.4544 52.0968 45.5554 49.5901 45.5554H43.9214C42.7898 45.5554 41.7561 45.1265 40.961 44.4187L40.96 44.4198L40.9593 44.4187C40.7902 44.2722 40.6559 44.1349 40.5464 44.0125C40.3067 43.7421 40.2002 43.5513 40.2002 43.5513L40.2009 43.5503L40.2002 43.5492C39.6849 42.7884 39.3822 41.8626 39.3822 40.8635C39.3822 39.8918 39.6678 38.9893 40.1571 38.2402C40.1711 38.2189 40.1865 38.1987 40.2005 38.1779C39.6061 37.6566 38.8385 37.3402 37.9993 37.3402H36.2732C35.8196 38.4203 35.5655 39.6108 35.5655 40.8635C35.5655 42.1156 35.8179 43.3064 36.2712 44.3865C36.3547 44.5851 36.4455 44.7797 36.5424 44.9708C36.6235 45.13 36.7074 45.2879 36.7978 45.4422C36.8046 45.4539 36.8101 45.4631 36.8163 45.4733C36.8324 45.5013 36.8502 45.5271 36.8666 45.5551C37.8226 47.1345 39.2456 48.3791 40.937 49.0844C41.1452 49.1711 41.3568 49.2515 41.5725 49.3212C41.5842 49.3251 41.5958 49.329 41.6078 49.3321C41.6438 49.3442 41.6804 49.3537 41.7167 49.3643C41.8091 49.3927 41.9019 49.4213 41.9957 49.4464L41.9992 49.4475C42.684 49.6291 43.4016 49.726 44.1405 49.726H49.3234C54.0594 49.726 57.8984 45.7578 57.8984 40.8632C57.8987 35.9685 54.0598 32 49.3237 32Z" fill="white"/>
<path d="M32.575 49.7264H37.7579C38.2057 49.7264 38.6454 49.6906 39.0747 49.6223C39.1682 49.6075 39.2603 49.5869 39.3524 49.5689C37.7616 48.6258 36.4523 47.2318 35.5905 45.5551H32.3086C29.8016 45.5551 27.7695 43.4544 27.7695 40.8628C27.7695 38.2716 29.8016 36.1713 32.3086 36.1713H37.977C39.1083 36.1713 40.142 36.6002 40.937 37.308L40.9377 37.3069L40.9384 37.308C41.1079 37.4542 41.2421 37.5915 41.3513 37.7143C41.5914 37.9839 41.6975 38.175 41.6975 38.175L41.6968 38.1761L41.6979 38.1772C42.2132 38.938 42.5162 39.8638 42.5162 40.8625C42.5162 41.8343 42.2303 42.737 41.741 43.4855C41.727 43.5075 41.7119 43.5273 41.6975 43.5478C42.2919 44.0694 43.0599 44.3862 43.8988 44.3862H45.6252C46.0785 43.3057 46.3322 42.1153 46.3322 40.8625C46.3322 39.6101 46.0799 38.4196 45.6265 37.3395C45.543 37.141 45.4522 36.9463 45.3553 36.7552C45.2742 36.5956 45.1903 36.4374 45.0999 36.2838C45.0931 36.2722 45.0876 36.2626 45.0818 36.2523C45.0653 36.2247 45.0479 36.1982 45.0314 36.171C44.0755 34.5915 42.6521 33.3466 40.961 32.6416C40.7528 32.5549 40.5412 32.4749 40.3255 32.4045C40.3139 32.4006 40.3022 32.3971 40.2903 32.3932C40.2543 32.3818 40.2177 32.3723 40.1814 32.3617C40.0889 32.333 39.9961 32.3043 39.902 32.2796L39.8989 32.2789C39.2141 32.0966 38.4968 32 37.7572 32H32.575C27.839 32 24 35.9678 24 40.8628C24 45.7582 27.839 49.7264 32.575 49.7264Z" fill="white"/>
<path d="M40.1978 43.3903C40.1978 43.3903 40.3043 43.5811 40.544 43.8514C40.5457 43.8493 40.5474 43.8472 40.5495 43.8461C40.4231 43.7021 40.3067 43.549 40.1985 43.3893L40.1978 43.3903Z" fill="white"/>
<path d="M36.8135 45.3127C36.8073 45.3022 36.8017 45.293 36.7947 45.2812C36.8013 45.2919 36.8073 45.3019 36.8135 45.3127Z" fill="white"/>
<path d="M40.5495 43.8461C40.5474 43.8472 40.5457 43.8493 40.544 43.8514C40.6532 43.9742 40.7874 44.1112 40.9569 44.2577L40.9576 44.2566C40.8138 44.1285 40.6768 43.9916 40.5495 43.8461Z" fill="white"/>
<path d="M40.9587 44.2583C40.9587 44.2583 40.9603 44.256 40.9633 44.2524C40.9618 44.254 40.9595 44.2551 40.9576 44.2566L40.9587 44.2583Z" fill="white"/>
<path d="M40.959 44.257L40.9569 44.2577L40.9569 44.2592L40.9587 44.2583L40.959 44.257Z" fill="white"/>
</svg>
