<svg width="111" height="21" viewBox="0 0 111 21" fill="none" xmlns="http://www.w3.org/2000/svg">
<path d="M47.5411 9.48807H44.4028C44.4028 8.86797 44.1875 8.39097 43.7567 8.05707C43.3414 7.70727 42.7645 7.53237 42.0261 7.53237C41.3492 7.53237 40.8338 7.66752 40.48 7.93782C40.1262 8.20812 39.9493 8.57382 39.9493 9.03492C39.9493 9.32112 40.0108 9.56757 40.1339 9.77427C40.2723 9.96507 40.4954 10.1161 40.8031 10.2274C41.1107 10.3387 41.3953 10.4262 41.6569 10.4898C41.9184 10.5534 42.2953 10.6249 42.7876 10.7044C43.2952 10.768 43.6875 10.8316 43.9644 10.8952C44.6259 11.0383 45.2643 11.2212 45.8797 11.4438C46.5104 11.6823 47.0181 12.1195 47.4027 12.7555C47.7873 13.3756 47.9795 14.1547 47.9795 15.0928C47.9795 16.5397 47.4257 17.6289 46.3181 18.3603C45.2413 19.0758 43.8106 19.4335 42.0261 19.4335C40.2877 19.4335 38.8955 19.0122 37.8494 18.1695C36.8187 17.3109 36.3033 16.174 36.3033 14.7589H39.4647C39.4647 15.3313 39.7031 15.8004 40.18 16.1661C40.6569 16.5159 41.2723 16.6908 42.0261 16.6908C42.826 16.6908 43.4568 16.5556 43.9183 16.2853C44.3798 15.9991 44.6105 15.6016 44.6105 15.0928C44.6105 14.7748 44.5413 14.5204 44.4028 14.3296C44.2798 14.1229 44.0644 13.9639 43.7567 13.8526C43.4491 13.7254 43.1722 13.638 42.926 13.5903C42.6799 13.5267 42.2953 13.4631 41.7722 13.3995C41.2646 13.3359 40.88 13.2802 40.6185 13.2325C39.8801 13.0735 39.2339 12.8986 38.6801 12.7078C38.0648 12.4693 37.5648 12.04 37.1802 11.4199C36.811 10.7839 36.6264 9.98892 36.6264 9.03492C36.6264 7.66752 37.0956 6.62607 38.034 5.91056C38.9878 5.17916 40.3185 4.81346 42.0261 4.81346C43.749 4.81346 45.0951 5.22686 46.0643 6.05366C47.0488 6.86456 47.5411 8.00937 47.5411 9.48807Z" fill="white"/>
<path d="M57.7852 13.2802V5.21891H61.0619V19.0281H58.039V17.0485H57.9929C57.6083 17.7799 57.0545 18.3603 56.3314 18.7896C55.6238 19.2189 54.8008 19.4335 53.8624 19.4335C52.324 19.4335 51.0702 18.8929 50.1011 17.8117C49.1473 16.6987 48.6704 15.2836 48.6704 13.5664V5.21891H51.9471V13.2802C51.9471 14.1388 52.2317 14.8623 52.8009 15.4506C53.3701 16.0389 54.0547 16.333 54.8546 16.333C55.6699 16.333 56.3622 16.0389 56.9314 15.4506C57.5006 14.8623 57.7852 14.1388 57.7852 13.2802Z" fill="white"/>
<path d="M65.4976 10.9668V19.0281H62.2209V5.21891H65.2438V7.19847H65.29C65.6745 6.46706 66.2207 5.88671 66.9283 5.45741C67.6513 5.02811 68.4821 4.81346 69.4205 4.81346C70.9588 4.81346 72.2049 5.36201 73.1587 6.45912C74.1279 7.52442 74.6124 8.93157 74.6124 10.6806V19.0281H71.3357V10.9668C71.3357 10.1241 71.0511 9.40857 70.4819 8.82027C69.8974 8.21607 69.2128 7.91397 68.4282 7.91397C67.6283 7.91397 66.936 8.21607 66.3514 8.82027C65.7822 9.40857 65.4976 10.1241 65.4976 10.9668Z" fill="white"/>
<path d="M79.0482 19.0281H75.7715V1.14056H79.0482V19.0281Z" fill="white"/>
<path d="M80.1955 19.0281V5.21891H83.4722V19.0281H80.1955ZM80.0109 2.59541C80.0109 2.08661 80.1878 1.64936 80.5416 1.28366C80.9108 0.917958 81.3415 0.735107 81.8338 0.735107C82.3261 0.735107 82.7492 0.917958 83.103 1.28366C83.4722 1.64936 83.6568 2.08661 83.6568 2.59541C83.6568 3.12011 83.4799 3.56531 83.1261 3.93101C82.7722 4.28081 82.3415 4.45571 81.8338 4.45571C81.3262 4.45571 80.8954 4.28081 80.5416 3.93101C80.1878 3.56531 80.0109 3.12011 80.0109 2.59541Z" fill="white"/>
<path d="M87.8962 10.9668V19.0281H84.6195V5.21891H87.6424V7.19847H87.6885C88.0731 6.46706 88.6192 5.88671 89.3269 5.45741C90.0499 5.02811 90.8806 4.81346 91.819 4.81346C93.3574 4.81346 94.6035 5.36201 95.5573 6.45912C96.5264 7.52442 97.011 8.93157 97.011 10.6806V19.0281H93.7343V10.9668C93.7343 10.1241 93.4497 9.40857 92.8805 8.82027C92.2959 8.21607 91.6113 7.91397 90.8268 7.91397C90.0268 7.91397 89.3346 8.21607 88.75 8.82027C88.1808 9.40857 87.8962 10.1241 87.8962 10.9668Z" fill="white"/>
<path d="M101.447 10.9191L106.639 5.21891H111L105.07 11.6346L111 19.0281H106.893L102.877 13.9719L101.447 15.5937V19.0281H98.17V1.14056H101.447V10.9191Z" fill="white"/>
<path d="M16.1985 14.3981C16.2013 14.3949 16.204 14.3913 16.2068 14.3888C16.2037 14.3913 16.2006 14.3941 16.1978 14.397L16.1985 14.3981Z" fill="white"/>
<path d="M17.993 20.2945C17.8992 20.2694 17.8064 20.2407 17.7139 20.2124L17.7115 20.2135C17.8002 20.2407 17.8944 20.2683 17.993 20.2945Z" fill="white"/>
<path d="M12.2688 15.2342H12.2674C12.3373 15.419 12.4373 15.6285 12.5355 15.8185H12.54C12.4427 15.6274 12.3523 15.4328 12.2688 15.2342Z" fill="white"/>
<path d="M12.5355 15.8185C12.6352 16.011 12.7327 16.1827 12.7947 16.2899C12.7047 16.1356 12.6215 15.9778 12.54 15.8185H12.5355Z" fill="white"/>
<path d="M12.8621 16.4035H12.8641C12.8476 16.3754 12.8297 16.3495 12.8135 16.3214C12.8435 16.3726 12.8621 16.4035 12.8621 16.4035Z" fill="white"/>
<path d="M17.5698 20.1689C17.3537 20.0992 17.1421 20.0188 16.9343 19.9321L16.9312 19.9335C16.9518 19.9424 17.1986 20.0482 17.5698 20.1689Z" fill="white"/>
<path d="M17.7115 20.2135L17.7139 20.2124C17.6775 20.2017 17.6412 20.1919 17.6051 20.1798C17.6398 20.1916 17.6751 20.2032 17.7115 20.2135Z" fill="white"/>
<path d="M25.3237 3.00873H20.1409C19.6933 3.00873 19.2537 3.04412 18.8243 3.11242C18.7309 3.12729 18.6391 3.14817 18.5467 3.16586C20.1374 4.10933 21.4464 5.50331 22.3086 7.18004H25.5901C28.0972 7.18004 30.1293 9.28109 30.1293 11.8723C30.1293 14.4631 28.0968 16.5642 25.5901 16.5642H19.9214C18.7898 16.5642 17.7561 16.1352 16.961 15.4275L16.96 15.4285L16.9593 15.4275C16.7902 15.2809 16.6559 15.1436 16.5464 15.0212C16.3067 14.7508 16.2002 14.5601 16.2002 14.5601L16.2009 14.559L16.2002 14.5579C15.6849 13.7971 15.3822 12.8713 15.3822 11.8723C15.3822 10.9005 15.6678 9.99807 16.1571 9.24888C16.1711 9.22765 16.1865 9.20748 16.2005 9.1866C15.6061 8.66532 14.8385 8.34894 13.9993 8.34894H12.2732C11.8196 9.42901 11.5655 10.6195 11.5655 11.8723C11.5655 13.1243 11.8179 14.3152 12.2712 15.3953C12.3547 15.5938 12.4455 15.7884 12.5424 15.9795C12.6235 16.1388 12.7074 16.2966 12.7978 16.4509C12.8046 16.4626 12.8101 16.4718 12.8163 16.482C12.8324 16.51 12.8502 16.5358 12.8666 16.5638C13.8226 18.1432 15.2456 19.3878 16.937 20.0931C17.1452 20.1798 17.3568 20.2602 17.5725 20.3299C17.5842 20.3338 17.5958 20.3377 17.6078 20.3409C17.6438 20.3529 17.6804 20.3625 17.7167 20.3731C17.8091 20.4014 17.9019 20.4301 17.9957 20.4552L17.9992 20.4562C18.684 20.6378 19.4016 20.7348 20.1405 20.7348H25.3234C30.0594 20.7348 33.8984 16.7666 33.8984 11.8719C33.8987 6.97726 30.0598 3.00873 25.3237 3.00873Z" fill="white"/>
<path d="M8.57501 20.7351H13.7579C14.2057 20.7351 14.6454 20.6994 15.0747 20.6311C15.1682 20.6162 15.2603 20.5957 15.3524 20.5776C13.7616 19.6345 12.4523 18.2405 11.5905 16.5638H8.30862C5.80159 16.5638 3.76946 14.4631 3.76946 11.8716C3.76946 9.28038 5.80159 7.18004 8.30862 7.18004H13.977C15.1083 7.18004 16.142 7.60896 16.937 8.31674L16.9377 8.31568L16.9384 8.31674C17.1079 8.4629 17.2421 8.6002 17.3513 8.723C17.5914 8.99267 17.6975 9.18377 17.6975 9.18377L17.6968 9.18483L17.6979 9.18589C18.2132 9.94676 18.5162 10.8725 18.5162 11.8712C18.5162 12.843 18.2303 13.7458 17.741 14.4942C17.727 14.5162 17.7119 14.536 17.6975 14.5565C18.2919 15.0782 19.0599 15.3949 19.8988 15.3949H21.6252C22.0785 14.3145 22.3322 13.124 22.3322 11.8712C22.3322 10.6188 22.0799 9.42831 21.6265 8.34823C21.543 8.1497 21.4522 7.95506 21.3553 7.76396C21.2742 7.60436 21.1903 7.44617 21.0999 7.29258C21.0931 7.2809 21.0876 7.27135 21.0818 7.26108C21.0653 7.23348 21.0479 7.20694 21.0314 7.17969C20.0755 5.60027 18.6521 4.35529 16.961 3.65034C16.7528 3.56363 16.5412 3.48366 16.3255 3.41323C16.3139 3.40934 16.3022 3.4058 16.2903 3.40191C16.2543 3.39058 16.2177 3.38103 16.1814 3.37041C16.0889 3.34175 15.9961 3.31308 15.902 3.28831L15.8989 3.2876C15.2141 3.10535 14.4968 3.00873 13.7572 3.00873H8.57501C3.83896 3.00873 0 6.97655 0 11.8716C0 16.7669 3.83896 20.7351 8.57501 20.7351Z" fill="white"/>
<path d="M16.1978 14.399C16.1978 14.399 16.3043 14.5898 16.544 14.8602C16.5457 14.858 16.5474 14.8559 16.5495 14.8549C16.4231 14.7108 16.3067 14.5577 16.1985 14.3981L16.1978 14.399Z" fill="white"/>
<path d="M12.8135 16.3214C12.8073 16.311 12.8017 16.3017 12.7947 16.2899C12.8013 16.3007 12.8073 16.3106 12.8135 16.3214Z" fill="white"/>
<path d="M16.5495 14.8549C16.5474 14.8559 16.5457 14.858 16.544 14.8602C16.6532 14.983 16.7874 15.1199 16.9569 15.2664L16.9576 15.2654C16.8138 15.1373 16.6768 15.0003 16.5495 14.8549Z" fill="white"/>
<path d="M16.9587 15.2671C16.9587 15.2671 16.9603 15.2647 16.9633 15.2611C16.9618 15.2627 16.9595 15.2638 16.9576 15.2654L16.9587 15.2671Z" fill="white"/>
<path d="M16.959 15.2657L16.9569 15.2664L16.9569 15.2679L16.9587 15.2671L16.959 15.2657Z" fill="white"/>
</svg>
