<svg width="81" height="81" viewBox="0 0 81 81" fill="none" xmlns="http://www.w3.org/2000/svg">
<rect width="81" height="81" rx="40.5" fill="white" fill-opacity="0.4"/>
<rect x="0.5" y="0.5" width="80" height="80" rx="40" stroke="white" stroke-opacity="0.6"/>
<path d="M53 27.5C53.3978 27.5 53.7794 27.342 54.0607 27.0607C54.342 26.7794 54.5 26.3978 54.5 26C54.5 25.6022 54.342 25.2206 54.0607 24.9393C53.7794 24.658 53.3978 24.5 53 24.5H29C28.6022 24.5 28.2206 24.658 27.9393 24.9393C27.658 25.2206 27.5 25.6022 27.5 26C27.5 26.3978 27.658 26.7794 27.9393 27.0607C28.2206 27.342 28.6022 27.5 29 27.5H30.5735C30.7925 30.254 31.688 36.125 35.3645 39.5C31.487 43.2665 30.698 51.101 30.5405 54.5H29C28.6022 54.5 28.2206 54.658 27.9393 54.9393C27.658 55.2206 27.5 55.6022 27.5 56C27.5 56.3978 27.658 56.7794 27.9393 57.0607C28.2206 57.342 28.6022 57.5 29 57.5H53C53.3978 57.5 53.7794 57.342 54.0607 57.0607C54.342 56.7794 54.5 56.3978 54.5 56C54.5 55.6022 54.342 55.2206 54.0607 54.9393C53.7794 54.658 53.3978 54.5 53 54.5H51.4595C51.302 51.104 50.513 43.2695 46.6355 39.5C50.312 36.122 51.2075 30.251 51.4265 27.5H53ZM43.37 38.189C43.1317 38.3213 42.934 38.5161 42.798 38.7524C42.6621 38.9887 42.5932 39.2575 42.5986 39.5301C42.604 39.8026 42.6835 40.0685 42.8287 40.2992C42.9739 40.5299 43.1791 40.7167 43.4225 40.8395C47.078 42.6815 48.2225 50.306 48.455 54.5H33.545C33.7715 50.3 34.922 42.6815 38.5775 40.8395C38.8209 40.7167 39.0261 40.5299 39.1713 40.2992C39.3165 40.0685 39.396 39.8026 39.4014 39.5301C39.4068 39.2575 39.3379 38.9887 39.202 38.7524C39.066 38.5161 38.8683 38.3213 38.63 38.189C34.8215 36.0755 33.8405 30.266 33.587 27.5H48.413C48.1595 30.266 47.1785 36.0755 43.37 38.189ZM41 42.5C41 42.5 45.5 46.1 45.5 47.9V53H36.5V47.9C36.5 46.1 41 42.5 41 42.5Z" fill="white"/>
</svg>
