<svg width="18" height="18" viewBox="0 0 18 18" fill="none" xmlns="http://www.w3.org/2000/svg">
<path fill-rule="evenodd" clip-rule="evenodd" d="M2.65255 3.97381C2.89615 3.92782 3.14673 4.00517 3.32203 4.18046L5.17545 6.03388C5.41328 6.27171 5.79888 6.27171 6.03671 6.03388C6.27455 5.79606 6.27455 5.41045 6.03671 5.17262L4.18421 3.32011C4.00883 3.14473 3.93149 2.89399 3.97763 2.65028C4.02377 2.40658 4.18739 2.20145 4.41475 2.10231C6.05062 1.38895 8.02795 1.70014 9.36812 3.04029C10.4285 4.10065 10.8445 5.56049 10.619 6.93305L15.7778 12.0919C16.7956 13.1096 16.7956 14.7597 15.7778 15.7774C14.7601 16.7951 13.1101 16.7951 12.0923 15.7774L6.93344 10.6185C5.56091 10.844 4.10111 10.4279 3.04078 9.36763C1.69957 8.02641 1.38894 6.04698 2.10451 4.41034C2.20382 4.1832 2.40895 4.0198 2.65255 3.97381ZM3.23023 6.20998C3.23183 6.96953 3.52264 7.72813 4.10144 8.30691C4.88056 9.08608 5.98485 9.34348 6.98061 9.07558C7.23962 9.00591 7.51615 9.07986 7.70582 9.26953L13.153 14.7168C13.5849 15.1487 14.2853 15.1487 14.7172 14.7168C15.1491 14.2849 15.1491 13.5845 14.7172 13.1526L9.27002 7.70541C9.08035 7.51573 9.0064 7.23921 9.07607 6.9802C9.34405 5.98441 9.08657 4.88009 8.3074 4.10095C7.72982 3.52334 6.97314 3.23254 6.21516 3.22975L7.09738 4.11196C7.921 4.93558 7.921 6.27093 7.09738 7.09455C6.27376 7.91818 4.93841 7.91818 4.11479 7.09455L3.23023 6.20998Z" fill="#E4EEF0"/>
</svg>
