<svg width="11" height="11" viewBox="0 0 11 11" fill="none" xmlns="http://www.w3.org/2000/svg">
<g clip-path="url(#clip0_1069_802)">
<path d="M9.89981 11H1.0998C0.769805 11 0.549805 10.78 0.549805 10.45C0.549805 10.12 0.769805 9.90002 1.0998 9.90002H9.89981C10.2298 9.90002 10.4498 10.12 10.4498 10.45C10.4498 10.78 10.2298 11 9.89981 11Z" fill="#E4EEF0"/>
<path d="M3.8501 8.8H1.6501C1.3201 8.8 1.1001 8.58 1.1001 8.25V6.05C1.1001 5.885 1.1551 5.775 1.2651 5.665L6.7651 0.165C6.9851 -0.055 7.3151 -0.055 7.5351 0.165L9.7351 2.365C9.9551 2.585 9.9551 2.915 9.7351 3.135L4.2351 8.635C4.1251 8.745 4.0151 8.8 3.8501 8.8ZM2.2001 7.7H3.6301L8.5801 2.75L7.1501 1.32L2.2001 6.27V7.7Z" fill="#E4EEF0"/>
</g>
<defs>
<clipPath id="clip0_1069_802">
<rect width="11" height="11" fill="white"/>
</clipPath>
</defs>
</svg>
