<svg width="63" height="64" viewBox="0 0 63 64" fill="none" xmlns="http://www.w3.org/2000/svg">
<path fill-rule="evenodd" clip-rule="evenodd" d="M29.3127 0.491099C24.8765 0.893173 21.4785 1.82843 17.8321 3.65102C14.5633 5.28495 12.1791 7.02547 9.54735 9.69895C6.91564 12.3724 5.20231 14.7945 3.59392 18.1152C1.98603 21.4349 1.08325 24.5576 0.607398 28.4455C0.41993 29.9768 0.41993 34.0238 0.607398 35.5551C1.08325 39.443 1.98603 42.5656 3.59392 45.8853C5.20231 49.2061 6.91564 51.6281 9.54735 54.3016C12.1791 56.9751 14.5633 58.7156 17.8321 60.3495C21.1 61.983 24.1738 62.9001 28.001 63.3835C29.5084 63.5739 33.4921 63.5739 34.9995 63.3835C38.8266 62.9001 41.9005 61.983 45.1683 60.3495C48.4372 58.7156 50.8214 56.9751 53.4531 54.3016C56.0848 51.6281 57.7981 49.2061 59.4065 45.8853C61.0144 42.5656 61.9172 39.443 62.393 35.5551C62.5805 34.0238 62.5805 29.9768 62.393 28.4455C61.9172 24.5576 61.0144 21.4349 59.4065 18.1152C57.7981 14.7945 56.0848 12.3724 53.4531 9.69895C50.8214 7.02547 48.4372 5.28495 45.1683 3.65102C41.9248 2.02977 38.8499 1.10814 35.0731 0.625321C34.2016 0.513914 30.1125 0.418654 29.3127 0.491099ZM29.2398 2.89873C23.4791 3.37258 18.099 5.55717 13.4533 9.30888C12.4206 10.143 9.98441 12.6178 9.16337 13.667C4.97511 19.0192 2.77105 25.3405 2.77105 32.0003C2.77105 38.6601 4.97511 44.9814 9.16337 50.3336C9.98441 51.3828 12.4206 53.8576 13.4533 54.6917C18.7219 58.9464 24.9445 61.1855 31.5002 61.1855C38.0559 61.1855 44.2785 58.9464 49.5471 54.6917C50.5799 53.8576 53.016 51.3828 53.8371 50.3336C58.0253 44.9814 60.2294 38.6601 60.2294 32.0003C60.2294 25.3405 58.0253 19.0192 53.8371 13.667C53.016 12.6178 50.5799 10.143 49.5471 9.30888C44.8376 5.50569 39.5094 3.36295 33.586 2.89014C32.4979 2.80332 30.348 2.80754 29.2398 2.89873ZM8.52943 21.7235C8.31046 21.8333 7.7789 22.3272 6.95166 23.1894C5.75152 24.4401 5.70085 24.5051 5.62071 24.8975C5.50105 25.4827 5.5424 38.3261 5.66475 38.6035C5.71229 38.7112 6.34412 39.4157 7.06891 40.1689C8.22755 41.3731 8.42581 41.5485 8.71012 41.6212C8.93397 41.6785 10.7165 41.704 14.5012 41.704H19.9688L20.1199 41.5088C20.2642 41.3224 20.2711 41.2245 20.2711 39.3401C20.2711 37.6738 20.2534 37.341 20.1575 37.202L20.0441 37.0373L15.3997 37.0363C12.8454 37.0358 10.6816 37.0152 10.5914 36.9907C10.4275 36.946 10.4273 36.9447 10.4273 35.2879V33.6299H14.5106C18.4968 33.6299 18.5975 33.6264 18.7398 33.4818C18.8772 33.3422 18.8856 33.2349 18.8856 31.6299C18.8856 30.025 18.8772 29.9176 18.7398 29.7781C18.5975 29.6335 18.4968 29.6299 14.626 29.6299C12.4436 29.6299 10.6061 29.6097 10.5427 29.585C10.4423 29.5458 10.4273 29.3295 10.4273 27.927C10.4273 26.3167 10.4276 26.3138 10.5914 26.2692C10.6816 26.2447 12.8308 26.2241 15.3674 26.2235C19.8815 26.2225 19.9825 26.2194 20.1252 26.0744C20.2638 25.9335 20.2711 25.8275 20.2711 23.9362C20.2711 22.0351 20.2643 21.9375 20.1199 21.751L19.9688 21.5558L14.4142 21.5568L8.8596 21.5578L8.52943 21.7235ZM26.5054 21.665C26.2833 21.7432 25.9127 22.0821 24.9503 23.0876C24.2554 23.8137 23.6402 24.5149 23.5831 24.6461C23.4959 24.8464 23.4794 25.9508 23.4794 31.5724C23.4794 35.4948 23.5075 38.3603 23.5475 38.5018C23.6327 38.8033 26.0937 41.4278 26.4243 41.5696C26.6042 41.6468 27.6714 41.667 31.5731 41.667H36.495L36.7502 41.5044C37.0377 41.3213 39.2946 38.953 39.4542 38.667C39.5387 38.5155 39.5615 37.8086 39.5789 34.7886C39.5978 31.5359 39.5868 31.0742 39.4861 30.9182L39.3719 30.741H37.1585C35.1897 30.741 34.9341 30.7545 34.8451 30.8634C34.7656 30.9605 34.7375 31.5634 34.7086 33.7858C34.6805 35.9435 34.6504 36.6078 34.5774 36.6819C34.5036 36.7568 33.8405 36.7827 31.5806 36.799C28.7985 36.819 28.6713 36.814 28.5034 36.6759L28.3283 36.5319L28.3086 31.6717L28.2888 26.8115L28.4693 26.6281L28.6498 26.4447H33.4211C38.0102 26.4447 38.199 26.4393 38.3645 26.3031L38.5367 26.1615V24.0146C38.5367 22.0073 38.5276 21.8575 38.3978 21.7118L38.2589 21.5558L32.528 21.5591C27.8394 21.5618 26.744 21.581 26.5054 21.665ZM42.9481 30.8151C42.8057 30.9598 42.8025 31.0579 42.8081 35.0929C42.8123 38.0022 42.8393 39.3141 42.8993 39.5324C42.9661 39.7748 43.2039 40.0767 43.993 40.9201C44.896 41.8855 45.0401 42.0097 45.3733 42.1103C45.6727 42.2006 46.2124 42.2225 48.1343 42.2225C50.5202 42.2225 50.5234 42.2227 50.6367 42.3872C50.7327 42.5264 50.7502 42.863 50.7502 44.567C50.7502 46.3004 50.7663 46.5986 50.8648 46.6987C50.9624 46.7978 51.2309 46.8151 52.6764 46.8151C54.2279 46.8151 54.3838 46.8035 54.4941 46.6796C54.6005 46.5603 54.6148 46.2935 54.6148 44.4318C54.6148 42.4795 54.6249 42.3103 54.7482 42.197C54.8566 42.0973 55.0445 42.0744 55.7544 42.0744C56.3361 42.0744 56.6565 42.0447 56.7148 41.9855C56.7782 41.921 56.8023 41.3847 56.8023 40.0373C56.8023 38.69 56.7782 38.1536 56.7148 38.0892C56.6559 38.0293 56.3232 38.0003 55.6965 38.0003C54.8509 38.0003 54.7589 37.9872 54.6903 37.857C54.6414 37.7642 54.6148 36.5155 54.6148 34.313C54.6148 31.1124 54.6069 30.905 54.4814 30.7895C54.3654 30.6829 54.1306 30.6671 52.6768 30.6681C51.7521 30.6687 50.9566 30.7006 50.8961 30.7394C50.8022 30.7996 50.7815 31.3087 50.7502 34.3283C50.7165 37.5769 50.7038 37.8572 50.5837 37.9792C50.4684 38.0964 50.2746 38.114 48.8734 38.1341C48.0042 38.1466 47.2202 38.1382 47.1309 38.1155C46.7276 38.0127 46.7398 38.1281 46.7398 34.4024C46.7398 31.062 46.7356 30.959 46.594 30.8151C46.4566 30.6755 46.3509 30.667 44.7711 30.667C43.1912 30.667 43.0855 30.6755 42.9481 30.8151Z" fill="#16232A" fill-opacity="0.6"/>
</svg>
