<svg width="244" height="18" viewBox="0 0 244 18" fill="none" xmlns="http://www.w3.org/2000/svg">
<path fill-rule="evenodd" clip-rule="evenodd" d="M3.49557 0.729105C2.54543 1.14043 1.03809 2.53442 0.563371 3.44093C0.30096 3.94172 0.23291 5.42026 0.23291 10.6152C0.23291 16.8457 0.254584 17.1703 0.683623 17.4006C1.24643 17.7024 4.18888 17.7125 4.6608 17.4144C4.92834 17.2451 5.03764 16.5324 5.12689 14.3728C5.21615 12.2136 5.32545 11.5003 5.59299 11.3307C5.79061 11.2057 8.68132 11.1079 12.2411 11.1058C19.7128 11.1015 19.5758 11.1405 19.5758 9.02294C19.5758 6.82989 19.8084 6.89786 12.3108 6.89786C6.39443 6.89786 5.86845 6.86493 5.51259 6.47065C5.0113 5.91544 5.02435 5.42843 5.55314 4.94867C5.92788 4.60881 6.75076 4.5621 12.376 4.5621C19.968 4.5621 19.8088 4.60695 19.8088 2.46341C19.8088 0.249339 20.2225 0.356318 11.6939 0.366829C5.63587 0.374303 4.16488 0.43947 3.49557 0.729105ZM23.2463 0.609982C22.9265 0.79661 22.8391 1.16099 22.8419 2.29641C22.844 3.0929 22.945 3.90224 23.0664 4.09495C23.2533 4.39159 24.528 4.4633 31.3854 4.5621L39.4838 4.67889L39.8406 5.31632C40.175 5.91404 40.1643 5.98668 39.6684 6.4842C39.1422 7.01185 39.0984 7.01512 31.2932 7.08216C26.0981 7.12677 23.3442 7.23515 23.1426 7.40263C22.9107 7.59579 22.8384 8.7833 22.8384 12.4072C22.8384 17.9493 22.683 17.6424 25.4901 17.6424C27.8392 17.6424 27.9655 17.4616 27.9655 14.0951C27.9655 11.8534 28.0135 11.5601 28.4162 11.344C28.6893 11.1975 30.9701 11.1022 34.2018 11.1022C40.6304 11.1022 40.2482 10.9084 41.1531 14.6271C41.4887 16.006 41.9091 17.1848 42.1242 17.3504C42.3515 17.5254 43.2179 17.6424 44.2871 17.6424C45.7761 17.6424 46.1408 17.5651 46.4934 17.1743C46.877 16.7497 46.8886 16.5824 46.6185 15.3641C46.1611 13.2993 45.4643 11.6086 44.7208 10.7603C43.8968 9.81944 43.8872 9.60665 44.6283 8.72396C45.1776 8.06972 45.2109 7.87258 45.2109 5.27942C45.2109 2.80327 45.158 2.4501 44.6796 1.73862C44.3874 1.30417 43.8891 0.817166 43.5726 0.656465C42.835 0.282509 23.8816 0.239062 23.2463 0.609982ZM50.3394 0.823471C49.929 1.2348 49.8614 1.54616 49.9192 2.75678C49.9802 4.02767 50.0578 4.23509 50.571 4.49436C51.0054 4.71392 53.1835 4.7896 59.1311 4.79217L67.1085 4.79568L67.2637 5.41582C67.606 6.78318 67.6771 6.77033 59.1287 6.89786L51.307 7.01465L50.7057 7.58131C49.8716 8.36706 49.6414 9.40648 49.6414 12.3869C49.6414 15.6007 49.8952 16.5869 50.8765 17.1865C51.5748 17.6132 52.108 17.6408 59.6897 17.6415C66.6321 17.6422 67.8006 17.5926 68.054 17.2867C68.3173 16.9685 68.407 16.9697 68.9041 17.296C69.3199 17.569 69.9414 17.644 71.3704 17.5933C73.9978 17.5001 73.9046 17.7603 73.8237 10.7519C73.7624 5.44735 73.7307 5.09302 73.2334 4.15988C72.4856 2.75725 71.3919 1.57956 70.2856 0.986272C69.3567 0.488053 69.0857 0.47264 60.08 0.403735C50.9469 0.334129 50.8222 0.339501 50.3394 0.823471ZM79.5853 0.6275C78.4886 1.03065 77.4716 1.89325 77.0547 2.77407C76.4928 3.96064 76.4786 16.7142 77.0384 17.2754C77.3094 17.5469 77.8822 17.6424 79.2393 17.6424C81.8916 17.6424 81.7993 17.8806 81.7993 11.0429C81.7993 3.85319 81.6541 3.95853 85.5558 8.31404C86.8862 9.79958 89.1065 12.2961 90.4891 13.862C91.872 15.4279 93.2829 16.8926 93.6248 17.1173C94.0778 17.4149 94.7234 17.5256 96.0047 17.5256C98.2377 17.5256 99.32 17.026 100.241 15.5696L100.909 14.5143V7.67777C100.909 -0.250284 101.129 0.357719 98.2575 0.357719C95.7127 0.357719 95.7821 0.179498 95.7821 6.71637V12.0366H95.251C94.6469 12.0366 93.615 11.0158 88.4845 5.34318C86.6075 3.26785 84.6772 1.32519 84.1948 1.02645C83.191 0.404669 80.7629 0.194449 79.5853 0.6275ZM104.314 0.715793C103.984 1.04654 103.939 2.03993 103.939 8.98043C103.939 18.2347 103.766 17.6424 106.462 17.6424C109.212 17.6424 109.066 18.117 109.062 9.17524C109.06 3.58201 108.983 1.49197 108.765 1.05845C108.492 0.517485 108.331 0.469602 106.58 0.407003C105.088 0.353981 104.61 0.418917 104.314 0.715793ZM113.901 3.5694L109.998 6.75375V8.79451C109.998 10.2076 110.095 10.9303 110.315 11.1441C110.489 11.3136 111.867 12.4511 113.376 13.6716C114.886 14.892 116.585 16.2848 117.152 16.7665L118.183 17.6424H120.494C122.689 17.6424 122.823 17.6139 123.179 17.0699C123.385 16.755 123.49 16.297 123.412 16.0522C123.335 15.8076 121.547 14.252 119.438 12.5957C117.144 10.7925 115.545 9.36934 115.454 9.0491C115.259 8.36099 115.457 8.1489 119.271 4.9475C122.507 2.23147 122.947 1.61576 122.225 0.815531C121.873 0.426158 121.512 0.359821 119.808 0.371266L117.805 0.385048L113.901 3.5694ZM126.674 0.876961C126.368 1.31422 126.311 2.34639 126.311 7.42621C126.311 12.9073 126.352 13.5366 126.758 14.3338C127.272 15.3447 129.067 17.0825 129.94 17.4154C130.762 17.7283 144.85 17.715 145.436 17.4006C145.81 17.2002 145.887 16.9029 145.887 15.6621C145.887 13.3913 146.031 13.438 139.041 13.438H133.23L132.46 12.8496C131.994 12.4927 131.596 11.9184 131.449 11.3898C131.316 10.9105 131.207 8.3409 131.207 5.67976C131.205 0.0580409 131.348 0.357719 128.67 0.357719C127.246 0.357719 126.99 0.42429 126.674 0.876961ZM149.283 0.724668C148.965 1.04397 148.917 2.12216 148.917 9.00005C148.917 15.9585 148.962 16.9536 149.292 17.2843C149.588 17.5812 150.066 17.6461 151.558 17.5931C153.309 17.5305 153.471 17.4826 153.743 16.9417C153.961 16.5084 154.038 14.4281 154.04 8.87696C154.044 -0.138867 154.194 0.357719 151.484 0.357719C150.127 0.357719 149.554 0.453252 149.283 0.724668ZM159.287 0.913632C158.474 1.29857 157.929 1.77016 157.481 2.47626L156.84 3.48764V10.1785C156.84 18.0934 156.683 17.6424 159.452 17.6424C160.803 17.6424 161.285 17.5529 161.531 17.2568C161.775 16.962 161.878 15.5154 161.967 11.1254C162.081 5.50715 162.095 5.37798 162.574 5.30955C162.934 5.25793 163.46 5.69121 164.555 6.94177C172.153 15.6175 173.635 17.1612 174.618 17.4266C177.197 18.1226 179.74 17.1516 180.791 15.07C181.304 14.054 181.319 13.8279 181.302 7.69063C181.281 0.0330503 181.39 0.357719 178.835 0.357719C176.009 0.357719 176.183 -0.0176378 176.183 6.06937C176.183 8.94493 176.12 11.4638 176.042 11.667C175.964 11.8702 175.654 12.0366 175.354 12.0366C174.939 12.0366 173.698 10.8142 170.194 6.95626C167.656 4.16198 165.423 1.73886 165.23 1.57115C163.753 0.284378 161.212 0.00315073 159.287 0.913632ZM184.493 0.784929C184.28 1.01991 184.107 1.30814 184.107 1.4254C184.107 1.54289 185.339 4.63544 186.845 8.29769C189.27 14.1971 189.696 15.0674 190.577 15.9312C192.432 17.7512 195.11 18.1084 197.292 16.8267C198.5 16.1171 199.184 15.0097 200.084 12.308C200.851 10.0019 201.451 9.40601 202.386 10.0201C202.807 10.2959 203.154 11.0175 203.722 12.7915C204.658 15.713 205.482 16.7655 207.247 17.2906C209.332 17.9115 211.678 17.6522 213.092 16.6452C213.788 16.1489 214.551 14.6589 216.228 10.5183C216.749 9.23363 217.698 6.91118 218.339 5.35743C219.849 1.69378 219.921 1.38663 219.405 0.815531C219.051 0.424056 218.681 0.357719 216.85 0.357719C215.105 0.357719 214.641 0.433398 214.343 0.766478C214.142 0.991412 213.069 3.45541 211.958 6.24245C210.847 9.02925 209.78 11.4407 209.587 11.6012C209.348 11.8004 209.122 11.8203 208.875 11.6638C208.577 11.4755 207.112 6.88946 205.77 1.94487C205.362 0.443441 205.154 0.357719 201.924 0.357719C199.18 0.357719 199.015 0.38458 198.697 0.883266C198.423 1.31188 196.392 7.45144 195.491 10.5739C195.238 11.4512 194.536 11.9504 194.18 11.5061C194.053 11.3482 193.029 8.95918 191.905 6.19713C190.78 3.43509 189.703 0.991412 189.511 0.766478C188.987 0.153573 185.05 0.168053 184.493 0.784929ZM223.311 0.721399C222.793 1.08484 222.793 1.08577 222.793 8.99655C222.793 15.8777 222.84 16.9561 223.159 17.2754C223.429 17.5462 224 17.6424 225.337 17.6424C228.097 17.6424 227.92 18.2417 227.92 8.93652C227.92 -0.213611 228.09 0.357719 225.356 0.357719C224.351 0.357719 223.651 0.481983 223.311 0.721399ZM239.025 0.784929C238.718 1.12572 238.64 1.71176 238.64 3.68782C238.64 5.62721 238.56 6.24338 238.274 6.53091C237.969 6.8362 237.231 6.89786 233.89 6.89786C229.013 6.89786 228.964 6.91888 228.991 8.96945C229.021 11.1361 228.945 11.1022 233.758 11.1022C237.219 11.1022 237.968 11.1632 238.274 11.4692C238.561 11.7579 238.64 12.3787 238.64 14.3758C238.64 17.5111 238.753 17.6424 241.452 17.6424C244.171 17.6424 244 18.2268 244 8.95941C244 -0.28719 244.204 0.357719 241.279 0.357719C239.765 0.357719 239.338 0.438769 239.025 0.784929ZM55.365 11.4692C54.8588 11.9768 54.9043 12.9036 55.4496 13.1963C55.7218 13.3422 57.9637 13.438 61.1075 13.438C65.4988 13.438 66.3977 13.3796 66.8456 13.065C67.1763 12.8331 67.3499 12.5044 67.3054 12.1949C67.1681 11.2415 66.3912 11.1093 60.8999 11.1058C56.5088 11.1027 55.6761 11.1574 55.365 11.4692Z" fill="#16232A" fill-opacity="0.6"/>
</svg>
