<svg width="131" height="45" viewBox="0 0 131 45" fill="none" xmlns="http://www.w3.org/2000/svg">
<g clip-path="url(#clip0_555_990)">
<path fill-rule="evenodd" clip-rule="evenodd" d="M94.3072 0.765446C92.9324 0.900007 91.69 1.17747 90.3679 1.64503C87.9246 2.50914 87.0194 3.37512 86.4679 5.37608C86.181 6.4169 86.1714 7.40097 86.4437 7.84987C86.8327 8.49118 88.9135 9.3498 91.2535 9.83448C92.7763 10.1499 93.478 10.3971 94.2412 10.887C94.8165 11.2564 95.4368 11.9434 95.3389 12.1028C95.179 12.3628 93.8971 13.0743 93.1401 13.3232C91.7573 13.7778 91.2252 13.8416 88.2925 13.9046C85.5125 13.9643 84.7133 13.9209 84.7133 13.7105C84.7133 13.6508 84.9466 13.5013 85.2318 13.3784C85.6741 13.1877 85.7217 13.139 85.5562 13.0459C85.2838 12.8927 84.2589 13.1224 83.8739 13.4231C83.4198 13.7776 83.2179 14.0404 82.9133 14.673C82.5407 15.447 82.5588 15.7576 83.0012 16.177C83.7229 16.8614 85.5759 17.1886 88.1521 17.0865C91.8336 16.9407 94.4948 16.1464 95.8429 14.7911C96.9807 13.6471 97.3221 12.1394 96.6886 11.0557C95.9099 9.72396 93.991 8.76623 89.3804 7.40843C88.2497 7.07532 87.9788 6.80905 88.2071 6.25479C88.5839 5.34041 90.1553 4.55982 92.6346 4.05571C93.9344 3.79131 97.2675 3.62481 97.2675 3.82413C97.2675 3.89295 96.9875 4.10807 96.6452 4.30234C95.8592 4.74827 95.0006 5.5574 95.152 5.70952C95.2248 5.78273 95.5443 5.65706 96.1112 5.33229C96.5788 5.06437 97.3618 4.68604 97.8513 4.49156C98.3407 4.29707 98.8951 4.04616 99.0829 3.93388C99.5179 3.67431 99.8875 2.83698 99.8875 2.11149C99.8875 1.43002 99.6353 1.17176 98.7399 0.936556C97.951 0.729336 95.6023 0.638678 94.3072 0.765446ZM113.097 0.846007C112.887 0.946434 112.294 1.45153 111.781 1.96848C109.737 4.02575 107.52 8.16004 106.941 10.993C106.804 11.6635 106.717 11.8491 106.422 12.0992C105.974 12.4781 105.372 12.6918 105.21 12.529C105.128 12.4467 105.196 12.1825 105.441 11.6311C105.843 10.7287 106.106 9.69839 106.108 9.0224C106.11 8.54979 105.837 8.12229 105.449 7.99124C105.317 7.94679 105.315 7.90914 105.436 7.76163C105.676 7.46902 105.546 7.09837 105.128 6.88018C104.538 6.57308 103.646 6.68876 102.624 7.20484C101.413 7.81673 99.9819 9.27308 99.3512 10.5365C98.8872 11.4657 98.8856 11.4734 98.9335 12.4572C98.988 13.5752 99.2134 14.2083 99.7939 14.8729C100.203 15.3415 100.869 15.6895 101.361 15.6915C101.907 15.6938 102.764 15.21 103.571 14.4446C104.255 13.7959 104.382 13.7194 104.779 13.7194C105.362 13.7194 105.73 13.5699 106.298 13.102L106.765 12.7169V13.0045C106.765 13.1625 106.842 13.6323 106.936 14.0481C107.14 14.951 107.602 15.6449 108.151 15.8756C109.131 16.2873 110.582 15.363 112.307 13.2279C112.587 12.8816 112.661 12.8362 112.663 13.0084C112.666 13.326 113.142 14.4386 113.49 14.9437C113.886 15.5182 114.238 15.6926 114.734 15.5612C115.022 15.4849 115.527 15.0378 116.781 13.7463L118.446 12.0326L118.159 12.8486C117.938 13.4751 117.868 13.8895 117.858 14.6341C117.846 15.5284 117.865 15.6201 118.103 15.814C118.798 16.3808 119.816 15.8374 121.923 13.7746C123.512 12.2198 124.552 11.0191 124.931 10.3017C125.134 9.9157 125.16 9.90429 126.295 9.69103C126.931 9.57151 127.466 9.48447 127.484 9.49764C127.502 9.51081 127.242 9.88574 126.906 10.3309C125.302 12.4591 124.914 14.277 125.848 15.2834C126.51 15.9965 127.492 15.5486 129.39 13.6683C130.377 12.69 130.454 12.5823 130.454 12.183V11.7526L129.771 12.2723C129.045 12.8251 128.182 13.2804 127.86 13.2804C127.515 13.2804 127.179 12.9599 127.179 12.6304C127.179 12.1041 127.901 10.8398 128.815 9.76358C129.577 8.8661 129.69 8.6793 129.69 8.31436C129.69 7.78929 129.433 7.15435 129.181 7.0571C129.076 7.01649 128.284 7.07159 127.422 7.17959C126.56 7.28759 125.833 7.35377 125.806 7.32666C125.779 7.29966 125.833 7.09596 125.925 6.87403C126.075 6.51271 126.075 6.46387 125.926 6.40636C125.201 6.1267 123.445 8.0932 123.191 9.46889C123.121 9.84688 123.149 9.91548 123.508 10.2556L123.901 10.6282L123.305 11.3943C122.695 12.178 122.022 12.7428 121.207 13.1568C120.25 13.6424 119.647 13.3541 119.647 12.4119C119.647 11.923 119.723 11.7581 120.465 10.6462C120.916 9.97168 121.284 9.3307 121.284 9.22182C121.284 9.11295 121.187 8.80859 121.068 8.5454C120.786 7.91946 120.793 7.81047 121.123 7.72717C121.547 7.62026 121.627 7.35707 121.395 6.83551C121.051 6.0637 120.617 5.97952 119.243 6.41777C117.467 6.98423 115.63 8.1438 114.022 9.71331C113.197 10.5187 112.66 11.2884 112.66 11.6661C112.66 11.8146 111.461 12.9462 110.67 13.5437C109.55 14.3908 108.512 13.4972 108.648 11.8012C108.703 11.1035 108.717 11.0767 109.441 10.2923C112.156 7.35114 113.97 3.94431 113.97 1.78914C113.97 0.641531 113.833 0.493909 113.097 0.846007ZM111.823 3.66279C111.271 4.29597 110.471 5.66441 109.983 6.81004C109.598 7.71421 109.131 9.21963 109.21 9.29931C109.273 9.36275 110.573 7.70456 111.098 6.89071C111.764 5.85945 112.557 4.17238 112.628 3.63469C112.682 3.23287 112.664 3.18282 112.465 3.18282C112.338 3.18282 112.062 3.38949 111.823 3.66279ZM118.438 8.97509C115.319 10.5511 114.188 11.5739 114.188 12.8183C114.188 13.0892 114.269 13.3549 114.4 13.5152L114.612 13.7743L115.246 13.4482C116.088 13.0152 117.797 11.2964 119.043 9.62957C119.574 8.91956 119.984 8.31513 119.956 8.28648C119.927 8.25773 119.244 8.56768 118.438 8.97509ZM103.208 9.20778C102.053 9.9742 101.293 10.6298 100.995 11.1159C100.773 11.4761 100.433 12.7542 100.433 13.2243C100.433 13.6039 100.915 13.9389 101.46 13.9389C101.782 13.9389 102.101 13.8268 102.567 13.5496L103.221 13.1603L103.219 11.9849L103.217 10.8094L103.738 9.72451C104.025 9.12776 104.242 8.62201 104.221 8.6006C104.2 8.5792 103.744 8.85238 103.208 9.20778ZM27.731 16.4133C26.4753 16.7661 25.472 17.6179 24.8745 18.8381C24.5732 19.4534 24.5234 19.6732 24.5212 20.3961C24.5194 21.0478 24.5718 21.3397 24.7538 21.6895C25.1107 22.3759 25.4689 22.7515 26.0522 23.051C26.4933 23.2775 26.7375 23.3231 27.51 23.3231C28.2897 23.3231 28.5382 23.2758 29.066 23.0272C30.8703 22.177 32.0107 20.0419 31.5583 18.3612C31.1486 16.8389 29.394 15.9458 27.731 16.4133ZM91.2531 18.9882C85.9678 19.5989 81.1379 23.6116 79.5454 28.7149C79.0294 30.369 78.8962 31.3894 78.9599 33.2011C79.0463 35.6494 79.5649 37.3189 80.8362 39.2399C81.4955 40.236 82.979 41.7267 83.9017 42.3201C87.5331 44.6557 92.179 44.8567 96.2092 42.8525C97.6455 42.1382 98.6106 41.4487 99.8398 40.2583C101.118 39.0203 102.109 37.6795 102.784 36.2743C105.772 30.0536 103.735 23.1164 98.0614 20.1873C96.1234 19.1869 93.5129 18.7271 91.2531 18.9882ZM57.8583 19.5976C57.8583 19.675 53.2803 43.1019 53.2 43.4359L53.1405 43.6828H56.6393C58.5635 43.6828 60.1607 43.6458 60.1884 43.6005C60.216 43.5552 60.6213 41.5527 61.089 39.1504L61.9392 34.7826L60.4814 33.3139L59.0235 31.8452L61.1974 29.5797L63.3713 27.3143L63.6633 25.9223C63.8239 25.1568 64.1723 23.4067 64.4375 22.0334L64.9198 19.5365H61.389C59.4471 19.5365 57.8583 19.564 57.8583 19.5976ZM66.705 25.6836L60.6727 31.8307L63.1682 34.2767C64.5408 35.622 67.2603 38.2875 69.2117 40.2002L72.7596 43.6777L77.2081 43.6803C79.6549 43.6816 81.6531 43.6458 81.6487 43.6005C81.6443 43.5552 78.8222 40.9005 75.3772 37.7011C71.9322 34.5017 69.1234 31.8547 69.1354 31.819C69.1473 31.7832 71.9695 29.0237 75.4069 25.6868C78.8442 22.3499 81.6567 19.601 81.6567 19.5781C81.6567 19.5552 79.6497 19.5365 77.197 19.5365H72.7372L66.705 25.6836ZM14.2489 19.8932C14.218 20.0291 13.5502 23.4246 12.7649 27.4389C11.9795 31.4532 11.2169 35.2563 11.07 35.8901C9.95447 40.7061 8.21403 42.6836 4.83838 42.9707C3.75621 43.0627 2.62994 42.8381 1.58292 42.3214L0.818752 41.9444L1.36458 42.4466C2.92611 43.8833 6.05013 44.5366 9.1545 44.0754C11.9357 43.6623 13.8373 42.7355 15.5083 40.9787C16.6239 39.8058 17.3249 38.6324 17.942 36.9052C18.4126 35.5877 18.6294 34.6054 20.1335 26.9725L21.5772 19.6462H17.9411H14.305L14.2489 19.8932ZM45.3588 24.9869C44.1434 25.1804 42.0602 25.8784 40.8344 26.5029L40.2551 26.7981L40.3322 26.2813C40.3745 25.9971 40.4351 25.6968 40.4667 25.6139C40.5147 25.4882 39.9364 25.4633 36.9646 25.4633C35.0068 25.4633 33.405 25.499 33.405 25.5426C33.405 25.6347 30.0366 43.0679 29.9477 43.4359L29.888 43.6828H33.3868C35.3111 43.6828 36.9081 43.6458 36.9357 43.6005C36.9633 43.5552 37.5129 40.777 38.1571 37.4267L39.3286 31.3353L39.7783 30.9283C40.6334 30.1544 42.0175 29.634 43.2205 29.634C44.0029 29.634 44.8447 29.8223 45.2 30.0767C45.8521 30.5435 45.8556 30.5051 44.5386 37.3293C43.8789 40.7474 43.3392 43.5759 43.3392 43.6149C43.3392 43.654 44.9213 43.6728 46.8551 43.6569L50.371 43.6279L51.7695 36.4389C53.3076 28.5318 53.3147 28.4687 52.7853 27.3806C52.3087 26.4014 51.1569 25.6011 49.6163 25.1787C48.968 25.001 46.0858 24.8712 45.3588 24.9869ZM91.0532 25.4729C88.7416 25.9289 86.93 27.3444 85.9742 29.4415C85.145 31.2608 85.1507 33.0276 85.9913 34.7645C86.4643 35.7414 87.4486 36.7133 88.4483 37.1903C90.3699 38.1072 92.7269 37.8873 94.633 36.6132C98.0388 34.3369 98.7383 29.6196 96.0607 26.9853C94.786 25.7313 92.7937 25.1295 91.0532 25.4729ZM23.3617 25.5692C23.3617 25.6693 20.041 42.9118 19.9208 43.4359L19.8642 43.6828H23.3909H26.9177L28.64 34.7651C29.5873 29.8605 30.3871 25.7611 30.4173 25.6554C30.4687 25.4753 30.2511 25.4633 26.9169 25.4633C24.7067 25.4633 23.3617 25.5034 23.3617 25.5692ZM4.10565 33.5892C2.27471 34.2402 0.971694 35.7107 0.588519 37.5588C0.228815 39.2929 0.978681 40.8766 2.48835 41.5714C4.0657 42.2975 5.99969 41.8738 7.48512 40.4767C9.84192 38.2602 9.6964 34.9907 7.18262 33.6794C6.49411 33.3203 4.98641 33.2761 4.10565 33.5892Z" fill="#16232A" fill-opacity="0.6"/>
</g>
<defs>
<clipPath id="clip0_555_990">
<rect width="131" height="45" fill="white"/>
</clipPath>
</defs>
</svg>
