<svg width="176" height="31" viewBox="0 0 176 31" fill="none" xmlns="http://www.w3.org/2000/svg">
<g clip-path="url(#clip0_555_988)">
<path fill-rule="evenodd" clip-rule="evenodd" d="M14.0594 0.0416033C10.6183 0.310066 7.59104 1.52022 5.01477 3.65718C3.58134 4.8462 2.19382 6.53923 1.39357 8.07577C1.13336 8.57537 1.10008 8.69122 1.1007 9.09551C1.10152 9.67819 1.30784 10.1356 1.73918 10.511C2.10741 10.8315 2.43851 10.9455 2.99861 10.9446C3.74572 10.9433 4.28754 10.5745 4.74527 9.75555C7.08119 5.57626 11.8039 3.21632 16.5824 3.8406C17.9997 4.02572 19.0968 4.37256 20.4931 5.07673C22.9178 6.29959 25.0082 8.57952 25.9976 11.0804C26.2517 11.7226 26.675 13.193 26.675 13.4333C26.675 13.5131 24.7476 13.5301 14.0078 13.545C1.63564 13.5622 1.33438 13.5656 1.07231 13.6942C0.425781 14.0114 0.0390625 14.6364 0.0390625 15.3641C0.0390625 16.1241 0.423306 16.7126 1.13294 17.0393L1.47814 17.1983L15.2675 17.1989C30.8246 17.1997 29.4494 17.2499 30.0471 16.659C30.5901 16.122 30.6851 15.5682 30.5207 13.8973C30.1232 9.85854 28.0482 6.03439 24.8652 3.47485C22.7086 1.74069 19.9959 0.563777 17.2563 0.173761C16.521 0.0690682 14.6818 -0.00693621 14.0594 0.0416033ZM147.853 5.37748C146.469 5.51324 144.983 6.08824 144.016 6.86242C141.999 8.47666 141.419 11.2759 142.665 13.3746C142.792 13.5896 143.175 14.0414 143.516 14.3785C144.513 15.3659 145.403 15.8863 147.875 16.9272C150.623 18.0839 151.552 18.5842 152.174 19.242C152.569 19.6589 152.694 19.9414 152.694 20.4145C152.694 21.5344 151.77 22.4188 150.263 22.7429C149.453 22.917 147.995 22.8543 147.159 22.6093C146.079 22.2927 145.264 21.8462 144.474 21.1393C144.037 20.7473 143.94 20.6928 143.514 20.5983C142.474 20.368 141.485 21.1797 141.489 22.2595C141.491 22.8248 141.651 23.1317 142.217 23.658C143.375 24.7345 144.746 25.4696 146.403 25.9014C147.387 26.1577 148.044 26.2413 149.077 26.2413C152.611 26.2413 155.337 24.4079 155.996 21.5892C156.202 20.7084 156.165 19.6663 155.899 18.8563C155.568 17.8469 154.72 16.782 153.639 16.0195C152.666 15.3331 151.351 14.6874 148.706 13.5979C147.009 12.8988 146.032 12.2808 145.649 11.6638C145.473 11.3809 145.442 11.2633 145.447 10.9091C145.462 9.83876 146.366 9.05968 147.896 8.797C149.536 8.51541 151.411 9.08361 152.703 10.2542C153.344 10.8344 153.939 11.0026 154.629 10.7983C155.511 10.5368 156.02 9.43243 155.65 8.58149C155.363 7.922 154.078 6.88744 152.762 6.25731C151.301 5.55743 149.433 5.22255 147.853 5.37748ZM41.1469 5.73629C40.9578 5.82521 40.7041 6.00108 40.5832 6.12719C40.1198 6.61014 40.15 5.94105 40.15 15.738C40.15 23.1151 40.166 24.6519 40.2445 24.8378C40.3794 25.1569 40.7439 25.545 41.0716 25.7184L41.3531 25.8674L47.4997 25.8862C54.4622 25.9074 54.1512 25.9285 54.6867 25.399C55.5897 24.5061 55.2478 23.0265 54.0414 22.6056C53.7866 22.5167 53.0307 22.5023 48.632 22.5023H43.5188V19.783V17.0637H47.15C51.2925 17.0637 51.2909 17.0638 51.7987 16.5617C52.1137 16.2502 52.3188 15.7781 52.3188 15.3641C52.3188 14.9501 52.1137 14.478 51.7987 14.1665C51.2909 13.6644 51.2925 13.6645 47.15 13.6645H43.5188V11.3191V8.97375H48.2156C53.4455 8.97375 53.3915 8.97803 53.9001 8.52371C54.8054 7.71492 54.5962 6.27301 53.4949 5.73072C53.2629 5.61651 52.8668 5.60753 47.3688 5.59169L41.4906 5.57476L41.1469 5.73629ZM60.0183 5.63425C59.4954 5.80332 59.1461 6.10985 58.9243 6.59437C58.7858 6.89702 58.7843 6.99383 58.7832 15.67C58.7824 21.5061 58.8058 24.5245 58.8532 24.693C58.9595 25.0715 59.324 25.4982 59.7082 25.6937C60.5749 26.1348 61.6507 25.7479 62.0606 24.8477C62.1761 24.5938 62.1867 24.1512 62.2188 18.1877L62.2531 11.7996L67.5905 18.5616C70.5261 22.2806 73.0011 25.3888 73.0905 25.4685C73.4564 25.7948 73.6986 25.8674 74.4219 25.8674C75.2166 25.8674 75.4952 25.7613 75.9191 25.2973C76.4105 24.7596 76.3859 25.2945 76.3654 15.5633L76.3469 6.8323L76.1468 6.47512C75.4745 5.27544 73.7853 5.28516 73.1265 6.49239C72.9781 6.76425 72.9781 6.76568 72.9438 13.2817L72.9094 19.7989L67.4594 12.8927C62.8565 7.05991 61.9596 5.95757 61.6892 5.80087C61.4188 5.64417 61.2774 5.61249 60.7798 5.59693C60.4557 5.58687 60.1131 5.60366 60.0183 5.63425ZM82.8955 5.67579C82.4965 5.82372 82.197 6.0847 81.9783 6.47512L81.7781 6.8323V15.738V24.6437L81.9268 24.9156C82.103 25.2379 82.4414 25.5662 82.775 25.7385C83.1491 25.9318 83.8268 25.9112 84.2543 25.6937C84.6385 25.4982 85.0031 25.0715 85.1093 24.693C85.1535 24.5356 85.1806 23.2624 85.1808 21.3296L85.1813 18.2194H88.2674C91.5751 18.2194 91.9183 18.1924 92.9232 17.8544C93.9192 17.5194 94.6941 17.0308 95.4321 16.2725C96.5283 15.1459 97.0599 13.8584 97.1263 12.1689C97.1831 10.7235 96.8529 9.48981 96.1114 8.3768C95.2453 7.07684 94.0259 6.24514 92.2754 5.76042C91.7636 5.61875 91.6112 5.61358 87.45 5.5972C83.897 5.58326 83.1085 5.59686 82.8955 5.67579ZM101.853 5.7369C101.664 5.82548 101.41 6.00108 101.289 6.12719C100.826 6.61014 100.856 5.94105 100.856 15.738C100.856 23.1151 100.872 24.6519 100.951 24.8378C101.086 25.158 101.451 25.5457 101.778 25.7168C102.167 25.9205 102.905 25.9183 103.307 25.7123C103.664 25.5288 104.041 25.0989 104.145 24.7553C104.202 24.5694 104.225 23.3999 104.225 20.7778V17.0637H109.141H114.056L114.057 20.8197L114.058 24.5757L114.22 24.9205C114.734 26.0124 116.196 26.2119 117.026 25.3033C117.486 24.7999 117.459 25.3906 117.459 15.704C117.459 6.90967 117.459 6.89995 117.315 6.59437C117.007 5.94017 116.474 5.60726 115.741 5.61127C115.001 5.61535 114.502 5.93412 114.199 6.59437C114.065 6.8888 114.059 7.02694 114.058 10.2824L114.056 13.6645H109.141H104.225L104.225 10.3164C104.224 8.31561 104.197 6.87071 104.156 6.72591C104.058 6.37533 103.633 5.92079 103.232 5.73602C102.774 5.525 102.305 5.52534 101.853 5.7369ZM129.374 5.67232C128.999 5.81495 128.707 6.05023 128.526 6.35643C128.437 6.50599 126.718 10.483 124.706 15.1941C121.155 23.5111 121.048 23.7728 121.046 24.2018C121.039 25.6847 122.83 26.4426 123.898 25.4085C124.161 25.1535 124.293 24.892 125.022 23.1821L125.849 21.2446L129.946 21.227L134.043 21.2095L134.86 23.1306C135.725 25.1612 135.894 25.4424 136.412 25.7036C137.292 26.1473 138.415 25.7142 138.77 24.794C139.029 24.1243 139.142 24.4309 135.272 15.3641C131.187 5.79584 131.43 6.34704 131.188 6.09524C130.768 5.65729 129.929 5.46157 129.374 5.67232ZM162.078 5.65668C161.859 5.73235 161.45 6.00951 161.301 6.18368C161.251 6.24133 161.143 6.42611 161.06 6.59437L160.909 6.90029V15.704C160.909 22.9868 160.926 24.5533 161.004 24.7716C161.124 25.1076 161.508 25.529 161.867 25.7193L162.147 25.8674H168.437C174.549 25.8674 174.736 25.8636 175 25.734C175.589 25.4454 176 24.8012 176 24.1676C176 23.7894 175.786 23.3064 175.486 23.0104C174.953 22.4831 175.182 22.5023 169.422 22.5023H164.312V19.7852V17.0681L168.077 17.0489C171.657 17.0306 171.854 17.0231 172.113 16.8963C172.688 16.6143 173.112 15.9634 173.112 15.3641C173.112 14.964 172.899 14.4701 172.599 14.1726C172.084 13.6635 172.094 13.6645 167.944 13.6645H164.312V11.3191V8.97375H169.009C174.379 8.97375 174.204 8.99 174.756 8.44179C175.112 8.0874 175.244 7.757 175.244 7.21314C175.244 6.56269 174.889 6.03772 174.247 5.7369L173.903 5.57599L168.094 5.58068C164.23 5.58381 162.215 5.60923 162.078 5.65668ZM85.1813 11.9366V14.8994L88.1891 14.8693C91.3411 14.8379 91.4901 14.8245 92.1602 14.511C92.7301 14.2444 93.1192 13.8596 93.4126 13.2725C93.6709 12.7555 93.6719 12.7499 93.6719 11.9003C93.6719 11.0883 93.6616 11.0259 93.46 10.6051C93.0958 9.84529 92.4141 9.30353 91.5382 9.07797C91.2048 8.99211 90.6096 8.97375 88.1574 8.97375H85.1813V11.9366ZM129.806 11.9714C129.475 12.7131 127.373 17.654 127.343 17.7605C127.311 17.8723 127.467 17.8795 129.929 17.8795C132.006 17.8795 132.55 17.8614 132.55 17.7929C132.55 17.709 130.031 11.7627 129.97 11.7022C129.953 11.6856 129.879 11.8068 129.806 11.9714ZM2.46167 19.6708C2.12102 19.7649 2.02992 19.8199 1.66115 20.1533C1.26721 20.5096 1.13837 20.8299 1.13624 21.4585C1.13446 21.9909 1.14772 22.0383 1.47814 22.6768C3.44996 26.488 6.96844 29.3214 11.1719 30.4833C12.5878 30.8746 13.115 30.9321 15.2884 30.9321C16.9982 30.9321 17.414 30.9118 18.052 30.7971C22.3065 30.0323 25.8718 27.7138 28.2848 24.1425C28.9491 23.1593 29.4892 22.0851 29.5393 21.6468C29.6602 20.592 28.7454 19.579 27.6719 19.579C26.9058 19.579 26.3053 20.0274 25.8053 20.9727C25.1482 22.2148 24.4938 23.086 23.5027 24.0382C20.5165 26.9074 16.2773 27.9874 12.2186 26.9132C9.10182 26.0882 6.34914 23.8939 4.87776 21.0614C4.68649 20.6932 4.41837 20.2815 4.28204 20.1467C3.82217 19.692 3.08366 19.4989 2.46167 19.6708Z" fill="#16232A" fill-opacity="0.6"/>
</g>
<defs>
<clipPath id="clip0_555_988">
<rect width="176" height="31" fill="white"/>
</clipPath>
</defs>
</svg>
