<svg width="165" height="37" viewBox="0 0 165 37" fill="none" xmlns="http://www.w3.org/2000/svg">
<path fill-rule="evenodd" clip-rule="evenodd" d="M6.644 0.174169C4.39619 0.392924 2.94423 1.24733 2.14775 2.81967C1.38236 4.33067 1.23058 5.54225 1.21994 10.2239C1.21173 13.8036 1.25829 14.7311 1.49725 15.7583C2.01868 18.0001 3.23942 19.4807 5.04282 20.0592C5.71217 20.2739 6.8749 20.3489 10.7962 20.4304C16.8524 20.556 19.3624 20.4546 20.1419 20.0523C21.2373 19.4872 22.0225 18.4811 22.4258 17.1254C22.6936 16.2255 22.8602 13.2524 22.7647 11.0759L22.6704 8.92564H17.0556H11.4408V10.873V12.8204H14.5828H17.7249V13.4776C17.7249 14.3359 17.3619 15.0175 16.7151 15.3735C16.2588 15.6248 15.734 15.6596 12.4881 15.6548C8.34943 15.6486 7.87553 15.5628 7.10613 14.6801C6.44983 13.9273 6.36508 13.3809 6.36508 9.89933C6.36508 6.50863 6.51106 5.93757 7.55714 5.23587C8.08807 4.87966 8.22197 4.86863 11.9883 4.8696C14.1243 4.87009 16.1329 4.94344 16.452 5.03269C17.213 5.2456 17.5712 5.6677 17.6792 6.47877L17.7673 7.14055H20.2657H22.764L22.6757 5.63946C22.5617 3.6955 22.2315 2.65852 21.4378 1.7504C20.6393 0.836924 19.6411 0.393735 17.8812 0.171411C16.3386 -0.0233263 8.65381 -0.0215412 6.644 0.174169ZM144.617 0.0969237C140.733 0.639266 139.356 1.79811 138.648 5.12162C138.317 6.67741 138.267 12.7404 138.568 14.9125C139.043 18.3355 140.34 19.8045 143.307 20.282C144.724 20.5099 153.433 20.511 155.091 20.2835C158.287 19.8449 159.3 18.5429 159.478 14.646L159.569 12.6581H157.066H154.563L154.449 13.4268C154.158 15.3791 153.861 15.5016 149.451 15.4862C145.788 15.4732 145.104 15.3593 144.332 14.6342C143.659 14.0015 143.517 13.2043 143.512 10.0491C143.509 7.34779 143.529 7.15451 143.902 6.3978C144.508 5.16592 144.678 5.12032 148.887 5.06028C151.247 5.02669 152.726 5.07229 153.125 5.19091C153.815 5.39652 154.364 6.13377 154.365 6.85656L154.366 7.30284H156.88H159.394L159.286 5.96402C159.005 2.48537 157.939 0.790511 155.735 0.31438C154.952 0.145121 145.584 -0.0380939 144.617 0.0969237ZM25.6204 10.2239V20.2853H34.8856H44.1507V18.0134V15.7414H37.4637H30.7767V13.9563V12.1713H36.9803H43.1839V10.1427V8.11424H36.9803H30.7767V6.49143V4.86863H37.4637H44.1507V2.51556V0.162485H34.8856H25.6204V10.2239ZM46.5677 10.2239V20.2853H48.9847H51.4017V12.8639V5.44261L56.276 12.8626L61.1502 20.2827L65.2188 20.284L69.2874 20.2853V10.2239V0.162485H66.8721H64.4567L64.4148 7.56849L64.3729 14.9745L59.473 7.56849L54.5731 0.162485H50.5704H46.5677V10.2239ZM71.8656 10.2239V20.2853H81.1307H90.3958V18.0134V15.7414H83.7088H77.0218V13.9563V12.1713H83.2254H89.429V10.1427V8.11424H83.2254H77.0218V6.49322V4.8722L83.6685 4.82984L90.3153 4.78749L90.3599 2.47498L90.4047 0.162485H81.1351H71.8656V10.2239ZM92.6517 10.2161V20.2853H95.2298H97.808V17.7699V15.2546H102.472C107.094 15.2546 107.139 15.2578 107.563 15.6244C108.081 16.0739 108.265 16.9089 108.274 18.8653L108.282 20.2853H110.86H113.438V17.9618C113.438 15.3197 113.216 14.2694 112.515 13.5933C112.014 13.1096 111.058 12.6618 110.502 12.6506C110.255 12.6456 110.454 12.494 111.11 12.1883C112.955 11.3277 113.599 9.9063 113.599 6.69201C113.599 4.75373 113.373 3.42481 112.875 2.44091C112.407 1.51461 111.955 1.08846 110.938 0.616709C110.136 0.244112 110.124 0.243625 101.393 0.195266L92.6517 0.146906V10.2161ZM123.369 0.689897C123.246 0.980055 121.278 5.27027 118.997 10.2239C116.716 15.1775 114.748 19.4679 114.625 19.7579L114.4 20.2853L117.263 20.2804L120.125 20.2756L120.91 18.4932L121.695 16.7107L127.027 16.7536L132.359 16.7963L133.09 18.538L133.821 20.2799L136.672 20.2825L139.523 20.2853L138.513 18.0539C137.958 16.8268 135.921 12.2991 133.988 7.99253L130.473 0.162485H127.033H123.594L123.369 0.689897ZM161.505 0.824103C160.853 1.2449 160.406 2.34662 160.558 3.16013C160.696 3.90516 161.598 4.81994 162.329 4.95804C164.131 5.29851 165.612 3.28541 164.769 1.64265C164.202 0.538165 162.579 0.131165 161.505 0.824103ZM162.181 1.0388C160.175 1.93199 160.981 4.88291 163.12 4.47883C164.462 4.22518 165.013 2.42257 164.046 1.44824C163.787 1.18729 163.467 0.973889 163.334 0.973889C163.201 0.973889 162.996 0.939972 162.879 0.89859C162.76 0.857371 162.446 0.920336 162.181 1.0388ZM161.778 2.75898C161.778 3.80471 161.825 4.05722 162.019 4.05722C162.188 4.05722 162.261 3.88585 162.261 3.48924C162.261 3.17685 162.33 2.92126 162.414 2.92126C162.498 2.92126 162.761 3.17685 162.997 3.48924C163.595 4.27809 164.029 4.26997 163.565 3.47853C163.263 2.96313 163.253 2.87306 163.469 2.65544C164.04 2.08048 163.533 1.46073 162.491 1.46073H161.778V2.75898ZM162.261 2.27213C162.261 2.61568 162.65 2.70364 163.047 2.44999C163.36 2.25055 163.123 1.94757 162.654 1.94757C162.369 1.94757 162.261 2.03618 162.261 2.27213ZM125.234 8.56441C124.329 10.597 123.589 12.3131 123.589 12.378C123.589 12.4428 125.112 12.4958 126.973 12.4958C128.834 12.4958 130.357 12.4494 130.357 12.3926C130.357 12.1896 127.064 4.86863 126.973 4.86863C126.921 4.86863 126.139 6.53168 125.234 8.56441ZM97.808 7.70188V10.2239L102.279 10.2229C104.941 10.2224 107.001 10.1522 107.368 10.0494C108.229 9.80861 108.491 9.13628 108.418 7.35687C108.371 6.21912 108.306 5.95688 107.995 5.64384C107.632 5.27773 107.583 5.27384 102.718 5.2271L97.808 5.17972V7.70188ZM77.9081 26.4617C35.2804 28.141 0.312604 29.5195 0.201745 29.5251C0.0391617 29.5333 -0.104891 30.1385 0.0406119 30.2019C0.10861 30.2316 159.117 36.9634 159.148 36.9379C159.164 36.9247 159.23 33.8662 159.294 30.1412L159.41 23.3686L157.412 23.3884C156.312 23.3995 120.536 24.7824 77.9081 26.4617Z" fill="#16232A" fill-opacity="0.6"/>
</svg>
