<svg width="27" height="64" viewBox="0 0 27 64" fill="none" xmlns="http://www.w3.org/2000/svg">
<path fill-rule="evenodd" clip-rule="evenodd" d="M20.4808 0.879118C15.6057 1.64348 11.2377 3.826 7.67925 7.27535C2.8987 11.9095 0.397345 17.7393 0.399415 24.2434C0.403142 36.0852 9.56572 46.4252 21.1537 47.6649L22.5511 47.8144V44.1671V40.52H22.0244C21.0344 40.52 18.7227 39.8455 17.0174 39.0592C11.2909 36.4185 7.65234 30.768 7.61425 24.4565C7.60079 22.2091 7.85626 20.5616 8.48709 18.8291C10.0286 14.596 12.8672 11.4054 16.8085 9.47609C18.4722 8.66184 20.52 8.01611 21.439 8.01611C22.5574 8.01611 22.5511 8.03743 22.5511 4.16388C22.5511 2.18341 22.4812 0.572091 22.3959 0.583064C22.3106 0.594036 21.4487 0.727364 20.4808 0.879118ZM25.4026 0.678918C25.35 0.731504 25.3359 2.33372 25.3715 4.23924C25.445 8.17242 25.2419 7.79645 27.5199 8.21651C30.3163 8.73223 33.0654 10.228 35.4639 12.5385C36.6839 13.714 38.3876 16.0794 38.8931 17.3L39.1639 17.9536H42.8309C44.8476 17.9536 46.5496 17.9016 46.6131 17.8383C46.7759 17.6756 45.9113 15.3655 45.0318 13.6134C41.758 7.09006 35.0119 2.07597 28.0375 0.98222C27.2404 0.85738 26.3431 0.716392 26.0433 0.668982C25.7436 0.621779 25.4554 0.626125 25.4026 0.678918ZM27.7269 24.3716V27.8911H33.8507H39.9747L39.8291 28.5534C39.302 30.9537 37.1988 34.3971 35.0912 36.3107C32.8066 38.3849 29.3558 40.0521 26.4949 40.4639C25.8848 40.5517 25.4001 40.6933 25.4177 40.7788C25.4353 40.8643 25.4496 42.4821 25.4496 44.3741V47.8144L26.8048 47.6692C30.0767 47.3189 34.1935 45.7577 37.2973 43.6903C40.4738 41.5746 43.7333 37.7094 45.4206 34.0573C47.1475 30.32 48.0253 24.9937 47.469 21.6284L47.3406 20.852H37.5338H27.7269V24.3716ZM5.86877 54.1625C4.6831 54.7012 4.12536 55.4809 4.12536 56.6001C4.12536 58.2388 5.0305 58.9516 7.50369 59.2607C9.22226 59.4754 9.8183 60.2919 8.91544 61.1948C8.03597 62.0742 5.77601 61.809 5.51101 60.7952C5.43648 60.5105 5.2249 60.395 4.77812 60.395C3.96863 60.395 3.82619 60.6513 4.21624 61.4057C4.92636 62.7788 6.62878 63.4943 8.22789 63.0916C9.84873 62.6833 10.7297 61.7306 10.7431 60.3712C10.7566 58.9853 9.6504 58.0715 7.64489 57.8117C6.26709 57.6332 5.57354 57.2305 5.57768 56.6119C5.58203 55.9766 5.79589 55.6964 6.47206 55.4393C7.44013 55.0712 8.05233 55.1807 8.71193 55.8403C9.34234 56.4707 9.80153 56.5972 10.304 56.2786C10.5352 56.1322 10.5301 56.001 10.2736 55.5049C9.8711 54.7271 9.36138 54.2977 8.49392 54.0064C7.51425 53.6773 6.8503 53.7168 5.86877 54.1625ZM14.2552 54.3394C11.6456 55.6612 10.8462 58.7357 12.4774 61.1766C14.2912 63.8905 18.4538 63.9721 20.2719 61.3293C23.1395 57.1616 18.7505 52.0626 14.2552 54.3394ZM31.7748 54.4429C31.6216 54.813 30.8278 56.8159 30.0109 58.894C29.1939 60.9722 28.4867 62.6724 28.4391 62.6724C28.3917 62.6724 28.3751 62.4628 28.4023 62.2065C28.4501 61.754 28.3915 61.7391 26.3295 61.6817L24.2074 61.6227V57.7999V53.977H23.4828H22.7582V58.5317V63.0864H26.3553H29.9523L30.3432 61.9995L30.7338 60.9126H32.5659H34.3981L34.8035 61.9995C35.1844 63.0206 35.2519 63.0864 35.9191 63.0864C36.3096 63.0864 36.6293 62.9935 36.6293 62.8798C36.6293 62.7664 35.8278 60.6702 34.8484 58.2216C33.2079 54.1209 33.0273 53.77 32.5605 53.77C32.1837 53.77 31.9818 53.9429 31.7748 54.4429ZM37.7965 53.9141C37.7172 53.9932 37.6615 56.0894 37.6727 58.5723L37.693 63.0864H38.4033H39.1136V59.1528V55.2192H40.3442C41.8632 55.2192 42.7021 55.7958 42.7021 56.8401C42.7021 57.857 42.1562 58.2953 40.8003 58.3667C39.932 58.4125 39.6192 58.5121 39.5726 58.7576C39.5383 58.9385 40.2699 59.9868 41.1984 61.0867C42.8677 63.0636 42.8973 63.0864 43.8103 63.0864H44.7337L44.0813 62.3101C42.294 60.183 41.9599 59.7598 42.0346 59.717C42.0792 59.6913 42.3903 59.5296 42.7263 59.3578C44.0491 58.6806 44.5938 56.4223 43.7193 55.2414C42.8354 54.0476 42.1233 53.77 39.9457 53.77C38.8428 53.77 37.8756 53.8348 37.7965 53.9141ZM14.9748 55.6134C12.559 56.7105 12.5526 60.248 14.9641 61.4155C16.4495 62.1345 17.7437 61.8728 18.9281 60.6138C19.4939 60.0126 19.5492 59.8271 19.5492 58.5317C19.5492 57.2363 19.4939 57.0508 18.9281 56.4496C17.7642 55.2124 16.4636 54.9373 14.9748 55.6134ZM32.0042 57.6558C31.7013 58.4278 31.4535 59.1185 31.4535 59.1905C31.4535 59.2626 31.9661 59.3534 32.5924 59.3924C33.2188 59.4315 33.7312 59.4046 33.731 59.3327C33.7308 59.1888 32.6924 56.39 32.6079 56.3049C32.5789 56.2757 32.3073 56.8836 32.0042 57.6558Z" fill="#16232A" fill-opacity="0.6"/>
</svg>
